<svg width="214" height="43" fill="none" xmlns="http://www.w3.org/2000/svg"><path fill-rule="evenodd" clip-rule="evenodd" d="M0 11.659h10.667v4.338c1.535-1.81 3.083-3.099 4.645-3.865a10.759 10.759 0 012.586-.86 15.36 15.36 0 013.07-.288c2.377 0 4.258.42 5.642 1.26.693.42 1.323.943 1.889 1.569.566.625 1.07 1.354 1.509 2.184 1.792-1.94 3.424-3.262 4.898-3.962a10.241 10.241 0 012.47-.788c.987-.182 1.988-.27 2.99-.263 3.192 0 5.682.952 7.474 2.855.896.953 1.568 2.173 2.015 3.66.447 1.489.672 3.246.672 5.272v18.766H39.074V24.524c0-.674-.064-1.262-.195-1.763a3.336 3.336 0 00-.585-1.244c-.381-.515-.809-.903-1.282-1.16a3.209 3.209 0 00-1.563-.387c-1.338 0-2.416.487-3.232 1.463-.408.487-.716 1.122-.92 1.905-.204.783-.307 1.712-.307 2.791v15.408H19.538V25.044c0-.657-.02-1.209-.056-1.655-.036-.445-.093-.786-.168-1.021a3.65 3.65 0 00-1.264-1.82c-.662-.506-1.365-.687-2.105-.69-1.31 0-2.385.498-3.228 1.494-.421.498-.737 1.157-.947 1.974-.21.817-.317 1.795-.317 2.93v15.281H0V11.66zm88.377 17.747H65.47c.103.922.28 1.725.526 2.41.249.687.569 1.256.962 1.708a5.42 5.42 0 001.908 1.46c1.524.68 3.67.733 5.615-.347.648-.372 1.311-1.012 1.993-1.862l11.23 1.01c-1.724 3.007-3.803 5.161-6.239 6.468-1.217.651-2.7 1.142-4.445 1.468-1.748.326-3.758.488-6.034.488-3.952 0-7.062-.557-9.328-1.673-2.266-1.115-4.144-2.888-5.633-5.316a14.576 14.576 0 01-1.674-3.963c-.373-1.429-.56-2.964-.56-4.603 0-4.67 1.496-8.45 4.486-11.339 1.495-1.444 3.274-2.526 5.339-3.248 2.065-.723 4.414-1.084 7.048-1.084 4.274 0 7.648.645 10.12 1.937 2.475 1.292 4.359 3.164 5.652 5.616.646 1.226 1.132 2.637 1.455 4.234.403 1.938.523 4.197.486 6.636zM76.7 23.902c-.225-2.209-.815-3.79-1.775-4.745a4.69 4.69 0 00-1.665-1.074 5.946 5.946 0 00-2.12-.358c-.903 0-1.715.18-2.436.54-.72.36-1.352.902-1.893 1.622-.345.45-.626 1.009-.845 1.678-.22.67-.374 1.448-.468 2.338H76.7v-.001zm17.61-12.243h-4.154v8.423h4.154l-.387 20.988 11.926-.177-.085-20.81h6.286v-8.424h-6.286V.314L94.311.137V11.66zm53.704 17.747h-22.907c.102.922.279 1.725.529 2.41.247.687.568 1.256.96 1.708a5.443 5.443 0 001.907 1.46c1.525.68 3.67.733 5.615-.347.649-.372 1.312-1.012 1.993-1.862l11.23 1.01c-1.724 3.007-3.802 5.161-6.238 6.468-1.217.651-2.699 1.142-4.446 1.468-1.747.326-3.758.488-6.031.488-3.953 0-7.062-.557-9.33-1.673-2.266-1.115-4.142-2.888-5.632-5.316a14.578 14.578 0 01-1.674-3.963c-.374-1.429-.559-2.964-.559-4.603 0-4.67 1.494-8.45 4.486-11.339 1.494-1.444 3.273-2.526 5.339-3.248 2.064-.723 4.412-1.084 7.047-1.084 4.274 0 7.648.645 10.121 1.937 2.473 1.292 4.357 3.164 5.651 5.616.647 1.226 1.132 2.637 1.455 4.234.401 1.938.523 4.197.484 6.636zm-11.676-5.504c-.224-2.209-.816-3.79-1.775-4.745a4.685 4.685 0 00-1.667-1.074 5.935 5.935 0 00-2.116-.358c-.903 0-1.717.18-2.438.54-.723.36-1.352.902-1.893 1.622-.345.45-.628 1.009-.844 1.678a11.36 11.36 0 00-.469 2.338h11.202v-.001zm54.192-12.243h10.672v4.886c1.03-2.115 2.095-3.571 3.191-4.367a5.976 5.976 0 011.839-.895 7.897 7.897 0 012.228-.298c.841 0 1.724.132 2.65.394.922.261 1.886.655 2.889 1.178l-3.546 8.145c-.676-.28-1.28-.492-1.814-.633-.535-.141-.999-.21-1.394-.21-.749 0-1.415.154-1.996.463-.583.31-1.08.774-1.494 1.396-.589.873-1.033 2.124-1.327 3.757-.297 1.633-.445 3.646-.445 6.038v10.024H190.53V11.66z" fill="#fff"/></svg>