<svg width="231" height="47" fill="none" xmlns="http://www.w3.org/2000/svg"><path d="M226.788 6.967c1.853.623 3.212 1.99 3.212 4.853v29.127c0 2.986-2.349 5.35-5.314 5.35H6.437C3.472 46.298 1 43.934 1 40.948v-14.44" stroke="#fff" stroke-width="1.122" stroke-miterlimit="2.613"/><path fill-rule="evenodd" clip-rule="evenodd" d="M24.728 42.938c-5.562 0-10.011-1.868-13.347-5.602-3.337-3.61-5.067-8.463-5.067-14.437 0-5.85 1.73-10.705 5.315-14.439 3.46-3.734 7.909-5.6 13.223-5.6 3.089 0 5.808.621 8.033 1.866 2.1 1.12 3.213 2.614 3.213 4.232 0 .995-.37 1.867-1.113 2.739-.742.746-1.607 1.12-2.472 1.12-.617 0-1.73-.248-3.46-.746-1.607-.498-2.966-.747-4.203-.747-2.72 0-4.943 1.12-6.674 3.235-1.73 2.117-2.47 4.98-2.47 8.59 0 3.484.865 6.222 2.47 8.338 1.73 1.99 4.079 2.988 6.922 2.988 1.359 0 2.965-.25 4.696-.872 1.73-.747 2.843-.997 3.337-.997a3.036 3.036 0 012.348 1.12c.741.747 1.113 1.618 1.113 2.614 0 1.742-1.113 3.36-3.461 4.605-2.223 1.246-5.066 1.992-8.403 1.992zM40.546 5.97c0-1.245.494-2.49 1.36-3.36.988-.996 2.1-1.493 3.46-1.493 1.236 0 2.348.497 3.337 1.493.988.87 1.359 2.116 1.359 3.36 0 1.37-.371 2.49-1.36 3.486-.864.87-1.977 1.368-3.336 1.368-1.36 0-2.47-.498-3.46-1.368-.865-.996-1.36-2.116-1.36-3.486zm8.898 29.997c0 2.116-.37 3.61-.989 4.73-.617.996-1.73 1.493-3.09 1.493-1.482 0-2.47-.623-3.212-1.618-.62-.996-.99-2.49-.99-4.605V19.164c0-2.116.37-3.61.99-4.605.741-.995 1.73-1.493 3.213-1.493 1.359 0 2.472.498 3.09 1.493.618.997.988 2.49.988 4.605v16.804zm14.336-8.463c0 1.99.494 3.733 1.483 4.977.989 1.37 2.348 1.992 3.954 1.992 1.607 0 2.966-.624 3.955-1.992.989-1.244 1.483-2.986 1.483-4.977 0-2.241-.494-3.858-1.483-5.228-.989-1.245-2.348-1.992-3.955-1.992-1.606 0-2.965.747-3.954 1.992-.99 1.37-1.483 3.112-1.483 5.228zm10.999 11.948c-.866.872-1.855 1.619-2.966 2.116a10.003 10.003 0 01-3.83.747c-3.46 0-6.427-1.493-9.022-4.357-2.471-2.862-3.83-6.472-3.83-10.58 0-4.23 1.235-7.716 3.83-10.578 2.472-2.863 5.438-4.232 9.021-4.232 1.36 0 2.472.124 3.585.622 1.113.374 2.1.997 2.965 1.742V7.341c0-2.116.37-3.735 1.113-4.73.618-.996 1.73-1.493 3.09-1.493 1.359 0 2.471.497 3.089 1.493.741 1.12.989 2.614.989 4.73v28.627c0 2.116-.248 3.734-.99 4.73-.617.996-1.73 1.493-3.088 1.493-.866 0-1.607-.249-2.225-.747a6.892 6.892 0 01-1.731-1.99zm23.729-3.485c0 2.116-.248 3.61-.99 4.73-.617.996-1.73 1.493-3.089 1.493s-2.472-.623-3.09-1.618c-.742-.996-1.113-2.49-1.113-4.605V19.164c0-2.116.371-3.61 1.112-4.605.62-.995 1.607-1.493 3.091-1.493 1.36 0 2.472.498 3.09 1.493.741.997.989 2.49.989 4.605v16.804zm5.807 1.37c0-1.37.494-2.49 1.483-3.486.865-.87 1.978-1.37 3.337-1.37 1.359 0 2.472.5 3.337 1.37.989.997 1.483 2.116 1.483 3.485 0 1.37-.494 2.49-1.483 3.36-.865.997-1.978 1.494-3.337 1.494-1.359 0-2.471-.498-3.46-1.493-.865-.87-1.36-1.993-1.36-3.36z" fill="#fff" stroke="#fff" stroke-width=".374" stroke-miterlimit="2.613"/><path fill-rule="evenodd" clip-rule="evenodd" d="M118.898 27.629c0-4.48 1.359-8.09 3.955-10.83 2.718-2.738 6.179-4.106 10.381-4.106 2.843 0 5.067.497 6.798 1.493 1.73.995 2.595 2.363 2.595 3.858 0 1.12-.371 1.867-.99 2.614-.74.623-1.484.995-2.471.995-.493 0-1.359-.249-2.595-.622-1.359-.498-2.471-.623-3.337-.623-1.731 0-3.09.622-4.08 1.867-1.113 1.37-1.605 3.111-1.605 5.228 0 2.116.494 3.858 1.605 5.102 1.114 1.244 2.596 1.869 4.451 1.869.865 0 1.978-.126 3.212-.625 1.359-.372 2.102-.622 2.471-.622.99 0 1.73.373 2.349 1.12.619.623.865 1.493.865 2.489 0 1.618-.865 2.863-2.718 3.983-1.978 1.12-4.202 1.618-7.044 1.618-4.08 0-7.415-1.369-10.012-4.107-2.471-2.735-3.83-6.345-3.83-10.701zm37.2-.124c0 2.116.493 3.858 1.605 5.228.988 1.244 2.224 1.867 3.955 1.867 1.605 0 2.964-.623 3.954-1.867.988-1.37 1.484-3.112 1.484-5.228 0-2.116-.496-3.734-1.484-5.104-1.113-1.244-2.47-1.867-3.954-1.867-1.606 0-2.967.623-3.955 1.867-1.112 1.368-1.605 2.988-1.605 5.104zm-8.652.124c0-4.357 1.361-7.967 4.079-10.83 2.596-2.738 6.054-4.231 10.134-4.231 4.077 0 7.415 1.493 10.133 4.232 2.596 2.862 3.83 6.472 3.83 10.829 0 4.356-1.234 7.965-3.83 10.83-2.718 2.738-6.056 4.23-10.133 4.23-4.08 0-7.538-1.493-10.134-4.356-2.719-2.738-4.079-6.348-4.079-10.704zm35.839 8.34V19.164c0-2.116.246-3.61.99-4.605.74-1.12 1.728-1.619 3.089-1.619.866 0 1.606.25 2.225.747.616.374 1.234 1.12 1.73 2.116.865-.995 1.853-1.742 2.964-2.116 1.113-.498 2.35-.747 3.709-.747 1.853 0 3.458.374 4.82.996a11.538 11.538 0 013.583 2.986c1.236-1.368 2.47-2.365 3.829-2.986 1.237-.623 2.721-.996 4.451-.996 2.965 0 5.314.996 7.042 2.863 1.608 1.991 2.473 4.729 2.473 8.214v11.949c0 2.116-.371 3.61-1.113 4.605-.619.996-1.73 1.618-3.089 1.618-1.484 0-2.473-.498-3.09-1.493-.742-1.12-1.112-2.614-1.112-4.73v-9.46c0-2.116-.249-3.733-.866-4.854-.619-.995-1.608-1.493-2.843-1.493-1.484 0-2.595.498-3.214 1.493-.619.996-.988 2.614-.988 4.73v9.582c0 2.116-.371 3.611-.99 4.605a3.912 3.912 0 01-3.212 1.619c-1.362 0-2.473-.623-3.09-1.619-.742-.995-1.112-2.489-1.112-4.605v-9.46c0-2.24-.249-3.732-.866-4.853-.618-.995-1.607-1.493-2.843-1.493-1.484 0-2.47.498-3.214 1.493-.619.995-.988 2.614-.988 4.73v9.582c0 2.116-.371 3.61-.99 4.605-.74.997-1.731 1.618-3.212 1.618-1.362 0-2.473-.622-3.089-1.618-.737-.992-.984-2.485-.984-4.6zM111.978 2.61c-.494-.249-.865-.498-1.237-.623-.37-.125-.865-.125-1.235-.125-.494 0-.741 0-1.113.25-.246.25-.37.623-.37.997 0 .25.124.497.248.622s.494.249.989.374l1.235.374c1.854.497 2.72 1.618 2.72 3.236 0 1.121-.372 1.991-1.237 2.614-.741.747-1.854.996-3.213.996-.618 0-1.237 0-1.854-.25-.618-.123-1.236-.372-1.853-.622l.865-1.742c.618.249 1.113.498 1.483.623.494.125.989.249 1.483.249 1.235 0 1.852-.498 1.852-1.494 0-.622-.493-1.12-1.359-1.37l-1.235-.373c-.495-.125-.989-.374-1.359-.498-.247-.249-.617-.623-.865-.995-.246-.374-.371-.87-.371-1.494 0-.995.371-1.867 1.112-2.49.742-.622 1.607-.87 2.842-.87.618 0 1.235.124 1.854.249.618.249 1.236.498 1.731.87l-1.113 1.492zm10.997 8.713c-1.359 0-2.346-.497-3.089-1.245-.74-.747-1.113-1.742-1.113-3.112s.372-2.365 1.113-3.111c.743-.747 1.73-1.12 2.967-1.12 1.234 0 2.224.25 2.964.996.619.746.99 1.742.99 3.111 0 1.37-.246 2.49-.99 3.236-.615.746-1.605 1.245-2.842 1.245zm-.122-7.22c-.619 0-1.113.25-1.359.747-.246.498-.372 1.246-.372 2.24 0 .997.126 1.743.372 2.116.246.374.74.623 1.359.623.494 0 .988-.248 1.234-.747.249-.374.371-1.12.371-2.24 0-.871-.122-1.62-.371-1.992-.246-.498-.615-.747-1.234-.747zM137.93 11.2h-4.82V2.736h2.102v6.721h3.214l-.496 1.742zm11.989-.746c-.246.249-.494.497-.99.623a5.415 5.415 0 01-1.606.248c-1.359 0-2.349-.248-2.718-.746-.249-.498-.496-.87-.619-1.12V2.737h2.099v6.1c0 .123.125.249.247.497.125.25.496.374.99.374.122 0 .371-.123.494-.123.125-.125.371-.126.494-.25 0-.124.125-.248.125-.373.125-.124.125-.498.125-.87V2.738h2.099v5.6c0 .623 0 .996-.123 1.246-.123.37-.371.619-.617.868zm10.998.871c-.742 0-1.236-.125-1.73-.248-.496-.124-.99-.498-1.608-.996-.616-.622-.862-1.618-.862-2.863 0-1.119.122-1.99.616-2.613.371-.747.865-1.245 1.484-1.494.619-.374 1.359-.497 2.102-.497.368 0 .865 0 1.234.125.494.123.865.374 1.112.497l-.987 1.37c-.494-.25-.865-.498-1.359-.498-.247 0-.497.125-.743.249a.685.685 0 00-.619.374c-.122.125-.369.374-.369.747-.125.373-.125.746-.125 1.245 0 1.12.125 1.867.247 2.24.246.249.493.498.742.623.247.124.619.124.988.124.246 0 .494 0 .743-.124.246 0 .493-.125.74-.374l.865 1.244a3.978 3.978 0 01-2.471.87zm8.157-.125V2.736h2.224V11.2h-2.224zm12.48.125a4.073 4.073 0 01-2.964-1.245c-.743-.747-1.113-1.742-1.113-3.112s.369-2.365 1.113-3.111c.74-.747 1.73-1.12 2.964-1.12 1.237 0 2.225.25 2.844.996.742.746 1.112 1.742 1.112 3.111 0 1.37-.246 2.49-.987 3.236-.619.746-1.61 1.245-2.969 1.245zm0-7.22c-.619 0-1.112.25-1.359.747-.246.498-.371 1.246-.371 2.24 0 .997.125 1.743.371 2.116.247.374.74.623 1.359.623.494 0 .991-.248 1.237-.747.246-.374.369-1.12.369-2.24 0-.871-.123-1.62-.369-1.992-.246-.498-.618-.747-1.237-.747zm14.707 1.744V2.736h1.978V11.2h-2.224l-1.484-3.484c-.371-.872-.74-1.618-.865-2.116v5.6h-1.853V2.736h2.224l1.605 3.236c.126.249.247.622.372.995.122.249.246.623.371.996v-1.12c-.124-.497-.124-.746-.124-.995zm8.776 5.351V2.736h5.314l-.247 1.617h-2.966v1.619h2.47V7.59h-2.47v1.867h3.337V11.2h-5.438zm14.211.125c-.619 0-1.113 0-1.606-.125-.492-.125-.99-.374-1.484-.623l.619-1.493c.494.124.988.374 1.359.374.372.125.743.25 1.113.25.99 0 1.484-.375 1.484-.871 0-.498-.371-.747-.988-.872l-1.114-.249c-.865-.249-1.481-.623-1.727-1.12-.249-.498-.372-.996-.372-1.37 0-.872.246-1.493.865-1.99.619-.499 1.484-.748 2.471-.748.619 0 1.113.126 1.73.25a4.097 4.097 0 011.484.622l-.99 1.493c-.865-.497-1.484-.622-2.224-.622-.246 0-.619 0-.74.123a.687.687 0 00-.372.623c0 .124.125.374.247.498.125 0 .371.125.619.249l1.112.249c.652.11 1.255.413 1.731.87.494.374.619.872.619 1.618 0 .872-.372 1.494-.991 2.116-.744.498-1.733.748-2.845.748zM24.728 42.938c-5.562 0-10.011-1.867-13.347-5.602-3.337-3.61-5.067-8.463-5.067-14.437 0-5.85 1.73-10.704 5.315-14.439 3.46-3.734 7.909-5.6 13.223-5.6 3.089 0 5.808.623 8.033 1.867 2.1 1.12 3.213 2.614 3.213 4.232 0 .996-.37 1.868-1.113 2.74-.742.746-1.607 1.12-2.472 1.12-.617 0-1.73-.249-3.46-.747-1.607-.497-2.966-.746-4.203-.746-2.72 0-4.943 1.119-6.674 3.235-1.729 2.116-2.47 4.979-2.47 8.59 0 3.484.865 6.221 2.47 8.337 1.73 1.991 4.079 2.988 6.922 2.988 1.359 0 2.965-.249 4.696-.872 1.73-.746 2.843-.996 3.337-.996a3.036 3.036 0 012.348 1.12c.741.747 1.113 1.617 1.113 2.614 0 1.742-1.113 3.36-3.461 4.605-2.223 1.244-5.066 1.99-8.403 1.99zM40.546 5.972c0-1.246.494-2.49 1.36-3.36.988-.996 2.1-1.494 3.46-1.494 1.236 0 2.348.498 3.337 1.493.988.87 1.359 2.116 1.359 3.36 0 1.37-.371 2.49-1.36 3.486-.864.87-1.977 1.368-3.336 1.368-1.36 0-2.47-.497-3.46-1.368-.865-.997-1.36-2.116-1.36-3.485zm8.898 29.996c0 2.116-.37 3.61-.989 4.73-.617.997-1.73 1.493-3.09 1.493-1.482 0-2.47-.623-3.212-1.618-.62-.996-.99-2.489-.99-4.605V19.165c0-2.116.37-3.61.99-4.605.741-.996 1.73-1.494 3.213-1.494 1.359 0 2.472.498 3.09 1.494.618.996.988 2.489.988 4.605v16.803zm14.336-8.463c0 1.991.494 3.733 1.483 4.978.989 1.369 2.348 1.992 3.954 1.992 1.607 0 2.966-.624 3.955-1.992.989-1.245 1.483-2.987 1.483-4.978 0-2.241-.494-3.858-1.483-5.228-.989-1.245-2.348-1.992-3.955-1.992-1.606 0-2.965.747-3.954 1.992-.99 1.37-1.483 3.112-1.483 5.228zm10.999 11.949c-.866.871-1.855 1.618-2.966 2.116a10.003 10.003 0 01-3.83.746c-3.46 0-6.427-1.493-9.022-4.357-2.471-2.861-3.83-6.472-3.83-10.579 0-4.23 1.235-7.716 3.83-10.58 2.472-2.862 5.438-4.231 9.021-4.231 1.36 0 2.472.125 3.585.623 1.113.374 2.1.996 2.965 1.742V7.34c0-2.116.37-3.734 1.113-4.73.618-.995 1.73-1.493 3.09-1.493 1.359 0 2.471.498 3.089 1.493.741 1.12.989 2.614.989 4.73v28.627c0 2.116-.248 3.734-.99 4.73-.617.997-1.73 1.493-3.088 1.493-.866 0-1.607-.249-2.225-.746a6.892 6.892 0 01-1.731-1.991zm23.729-3.486c0 2.116-.248 3.61-.99 4.73-.617.997-1.73 1.493-3.089 1.493s-2.472-.623-3.09-1.618c-.742-.996-1.113-2.489-1.113-4.605V19.165c0-2.116.371-3.61 1.112-4.605.62-.996 1.607-1.494 3.091-1.494 1.36 0 2.472.498 3.09 1.494.741.996.989 2.489.989 4.605v16.803zm5.807 1.37c0-1.37.494-2.49 1.483-3.486.865-.87 1.978-1.37 3.337-1.37 1.359 0 2.472.5 3.337 1.37.989.997 1.483 2.116 1.483 3.486 0 1.369-.494 2.49-1.483 3.36-.865.997-1.978 1.493-3.337 1.493-1.359 0-2.471-.498-3.46-1.493-.865-.87-1.36-1.992-1.36-3.36zM94.43 1.118c2.717 0 4.941 2.24 4.941 4.855 0 2.739-2.224 4.853-4.942 4.853-2.72 0-4.82-2.116-4.82-4.853 0-2.615 2.1-4.855 4.82-4.855z" fill="#fff"/></svg>