<svg width="173" height="65" fill="none" xmlns="http://www.w3.org/2000/svg"><g clip-path="url(#clip0)" fill="#fff"><path d="M37.5 16.12c-5.674 0-10.914 2.825-14.095 7.057h-.182l1.007-5.534H7.033L0 64.19h17.839l3.798-24.825c.793-4.844 2.45-8.958 8.123-8.958 2.887 0 5.138 1.496 5.31 4.46.104 1.882-.607 5.147-.996 7.842L30.718 64.19H48.56l4.148-26.437c.517-3.414.87-6.915.742-8.976-.533-9.142-7.758-12.657-15.95-12.657zm43.426.038c-11.618 0-27.615 6.993-26.37 28.36.659 11.298 7.864 20.478 24.44 20.478 20.175 0 23.021-11.547 24.007-14.802h-17.12c-.804 1.953-2.958 3.423-6.83 3.423-5.584 0-7.539-3.749-7.82-8.957h33.324c.651-3.255.58-5.596.435-8.1-.85-14.633-13.711-20.402-24.066-20.402zm7.146 19.063h-15.85c1.064-4.883 4.054-7.728 8.83-7.728 4.501 0 6.914 2.737 7.116 6.246.023.442-.03 1.482-.096 1.482z"/><path d="M166.368 11.923c2.07 0 3.606.018 4.792.19L173 .323c-3.162-.18-6.244-.32-9.392-.32-13.965 0-18.609 3.644-20.609 17.64h-12.571c.655-4.557 2.02-5.72 5.543-5.72 2.063 0 3.604.018 4.778.19l1.845-11.79c-3.166-.18-6.243-.32-9.392-.32-13.966 0-18.611 3.644-20.601 17.64h-7.211l-1.798 10.742h7.391l-5.324 35.806h17.832l5.316-35.806h12.581l-5.317 35.806h17.832l5.321-35.806h9.007l1.707-10.742h-9.108c.662-4.557 2.031-5.72 5.538-5.72z"/></g><defs><clipPath id="clip0"><path fill="#fff" d="M0 0h173v65H0z"/></clipPath></defs></svg>