<svg width="214" height="47" fill="none" xmlns="http://www.w3.org/2000/svg"><path fill-rule="evenodd" clip-rule="evenodd" d="M185.624.26c.067.088.128.182.192.302.06.118.127.262.185.424.058.16.112.34.17.57.057.229.121.508.162.693a8.4 8.4 0 00.08.336.267.267 0 00.038.094c.064.2.145.396.212.528.064.13.116.196.192.268.075.072.178.148.285.215.128-.143.259-.285.464-.545.202-.26.481-.64.758-1.017a1.69 1.69 0 01.14-.24 1.16 1.16 0 01.324-.308.908.908 0 01.188-.086c.079-.025.16-.043.242-.055.088-.013.178-.024.247-.033.072-.006.127-.015.17-.024a.309.309 0 00.097-.043.495.495 0 01.192.056.26.26 0 01.053.051c.015.019.026.04.033.064.01.026.015.055.014.084a.782.782 0 01-.069.28c-.033.082-.072.16-.117.236-.069.12-.145.237-.227.35-.109.152-.256.354-.409.547-.147.23-.299.458-.496.868-.2.41-.447 1.001-.697 1.593.235.072.471.146.835.176.369.028.864.013 1.36-.003.497.018.996.033 1.318.07.326.037.474.096.623.154.06.018.115.038.16.057.045.017.075.036.107.051a.448.448 0 01.06.046c.059.054.062.102.04.152a.29.29 0 01-.038.052c-.022.026-.055.059-.075.08a.261.261 0 00-.041.042.4.4 0 00-.052.063 1.6 1.6 0 01-.706.325c-.302.066-.692.088-.949.103l-.511.024-.395.018a.32.32 0 01-.14.026 3.206 3.206 0 01-.266 0c-.1-.003-.2-.009-.295-.014a2.727 2.727 0 00-.257-.006.785.785 0 00-.187.025.54.54 0 00-.143.046.363.363 0 00-.164.148.289.289 0 00-.045.105.745.745 0 00-.02.133c.062.176.1.36.12.558.017.198.012.407-.005.595-.015.185-.041.35-.065.513a2.961 2.961 0 00-.042.46c0 .13.021.229.062.321.074.24.149.48.207.927.062.444.109 1.1.154 1.751a1.227 1.227 0 01-.162-.192 2.08 2.08 0 01-.177-.312 5.699 5.699 0 01-.178-.414c-.043-.102-.05-.128-.065-.16a1.676 1.676 0 00-.047-.096c-.122.083-.25.088-.364-.036a1.006 1.006 0 01-.148-.25 2.684 2.684 0 01-.062-.196 2.402 2.402 0 01-.04-.223l-.397-1.75c-.088-.366-.105-.405-.119-.444a.574.574 0 00-.028-.116 1.258 1.258 0 00-.162-.311c-.115-.161-.24-.249-.357-.251a.434.434 0 00-.285.139c-.012.01-.022.024-.038.04-.012.022-.028.042-.062.089-.128.18-.254.36-.38.543l-.302.456c-.104.157-.204.308-.28.426l-.174.26-.08.12c-.017.022-.02.028-.025.03-.004.007-.002.002-.002 0a1.509 1.509 0 01-.329.377 1.26 1.26 0 01-.583.287 1.08 1.08 0 01-.183.015.698.698 0 01-.287-.066.44.44 0 01-.097-.067.323.323 0 01-.103-.288.45.45 0 01.031-.13.953.953 0 01.204-.32c.046-.112.1-.22.16-.323.045-.08.1-.176.187-.31.174-.27.452-.677.694-1.031l.315-.468a6.52 6.52 0 00.162-.25l.054-.1a.249.249 0 00.012-.036c.003-.007.003-.01 0-.013 0-.004-.002-.004-.004-.004.032-.072.064-.141.087-.207a.702.702 0 00-.022-.164.46.46 0 00-.166-.24.61.61 0 00-.165-.091 1.77 1.77 0 00-.352-.09 13.683 13.683 0 00-.799-.111 21.432 21.432 0 01-1.103-.092c-.254-.032-.339-.067-.428-.102-.071-.047-.14-.1-.205-.154a1.721 1.721 0 01-.242-.233 10.742 10.742 0 01-.29-.352c-.074-.091-.095-.122-.127-.157a.801.801 0 00-.085-.102c-.024-.025-.04-.03-.055-.03.16-.04.319-.079.509-.086.19-.006.412.018.634.041.494.086.993.168 1.26.21.271.041.311.039.357.036.319.028.636.055.955.061a14 14 0 00.959-.022.658.658 0 01-.072-.093 8.312 8.312 0 00-.18-.884c-.184-.714-.375-1.427-.571-2.137a4.35 4.35 0 01-.046-.497 8.358 8.358 0 01.055-1.073c.007-.092.023-.182.05-.27a.642.642 0 01.057-.133c.043-.073.083-.096.128-.112a.235.235 0 01.078-.006.363.363 0 01.1.03c.079.025.195.115.307.228zm-18.388 11.237c1.849-.016 3.693-.03 5.021.056 1.324.09 2.128.283 2.934.476a.77.77 0 01.235.08c.115.055.283.146.459.24l.529.286c.311.143.626.284.848.405.227.119.362.22.495.319.187.155.376.312.761.601.387.29.973.711 1.552 1.135.537.425 1.075.849 1.542 1.292.469.442.863.902 1.26 1.362.152.19.302.382.504.655s.454.626.709.98c.105.065.209.13.376.375.164.244.392.667.621 1.088.257.34.481.703.759 1.25.276.546.608 1.281.801 1.907.195.629.254 1.152.297 1.503.043.35.072.533.11.758.035.226.082.494.124.797.042.304.085.643.117.984-.078 1.243-.155 2.486-.542 3.736-.385 1.251-1.08 2.51-1.772 3.77-.749.977-1.498 1.952-1.926 2.487-.429.537-.54.633-.649.73a39.511 39.511 0 01-1.527 1.38c-.412.35-.669.54-1.066.841-.397.304-.93.724-1.464 1.143-.844.58-1.689 1.16-2.643 1.687-.958.53-2.023 1.002-3.089 1.476-.259.084-.516.168-.982.266-.462.098-1.128.211-1.797.324a4.514 4.514 0 01-.723.069c-.28.005-.626-.009-.987-.009a31.52 31.52 0 00-1.138.02c-.699.007-1.395.012-1.893-.001a12.181 12.181 0 01-1.091-.076.755.755 0 00-.257-.078 5.963 5.963 0 00-.476-.053c-.178-.019-.352-.033-.526-.058a4.056 4.056 0 01-.497-.096 1.666 1.666 0 01-.631-.326c-.344-.094-.689-.188-.973-.308-.283-.12-.506-.267-.728-.412l-1.591-.561c-.374-.13-.512-.177-.602-.214a.664.664 0 01-.177-.092c-.54-.39-1.078-.783-1.605-1.208-.529-.425-1.044-.884-1.563-1.341-.575-.613-1.153-1.227-1.619-1.974-.466-.748-.821-1.63-1.173-2.511a13.382 13.382 0 01-.91-4.078c-.088-1.406.052-2.843.271-4.22.219-1.376.519-2.694.918-3.978.188-.374.374-.75.495-.984.121-.238.174-.337.226-.444.055-.105.107-.217.16-.328.568-1.116 1.139-2.227 1.729-3.142.584-.912 1.192-1.627 1.798-2.34.178-.244.364-.488.552-.73.63-.684 1.26-1.367 2.235-2.038.971-.672 2.291-1.33 3.611-1.99.292-.128.584-.256.893-.349.307-.094.626-.148.949-.203a55.19 55.19 0 012.726-.336zm2.601.978c-.868-.014-1.734-.028-2.575.082-.839.109-1.655.34-2.471.574a34.955 34.955 0 00-1.701.907c-.12.074-.24.15-.359.226-.09.058-.135.088-.207.132-.069.041-.167.095-.262.148-.05.026-.099.056-.145.09-.047.032-.087.068-.126.102a.68.68 0 00-.153.19.28.28 0 00-.028.075c-.009.068-.014.13.088.193a.332.332 0 00.078.03 1.193 1.193 0 00.284.024c.164-.075.33-.154.641-.261.312-.105.771-.24 1.233-.374.344-.011.689-.016.938-.011.25.005.405.017.604.02.198.003.44-.003.684-.015.839-.044 1.681-.088 2.183-.117.504-.028.671-.04.887-.05.22-.011.487-.02.757-.026.87-.036 1.741-.075 2.359-.041.624.034.992.141 1.363.248.737.155 1.477.31 2.026.49.549.179.911.387 1.273.591.444.252.888.502 1.182.64.295.139.442.163.587.187a.696.696 0 00-.067-.324 1.828 1.828 0 00-.28-.446 4.426 4.426 0 00-.585-.587 6.595 6.595 0 00-.808-.587 4.586 4.586 0 00-.783-.39c-.968-.447-1.936-.896-3.039-1.185-1.104-.283-2.341-.41-3.578-.535zm.6 4.48a.05.05 0 01-.028.014.113.113 0 01-.054-.009.594.594 0 01-.14-.073 18.23 18.23 0 01-.31-.187c-.112-.072-.226-.142-.328-.205a2.07 2.07 0 00-.52-.243 1.286 1.286 0 00-.185-.044.776.776 0 00-.155-.009.523.523 0 00-.128.02.512.512 0 00-.295.2 1.1 1.1 0 00-.078.131 1.421 1.421 0 00-.119.39c-.05.07-.105.108-.152.108a.302.302 0 01-.055-.006.397.397 0 01-.074-.038 1.736 1.736 0 01-.119-.088l-.105-.078a1.74 1.74 0 00-.155-.097 1.079 1.079 0 00-.302-.116 1.238 1.238 0 00-.651-.054c-.26.04-.574.14-1.016.347-.444.207-1.018.52-1.567.87-.634.502-1.27 1.001-1.793 1.472-.526.473-.939.918-1.353 1.363-.562.804-1.128 1.607-1.508 2.524-.384.918-.584 1.948-.786 2.977-.1.895-.198 1.789-.215 2.507-.017.718.05 1.258.117 1.801.048.182.098.363.177.738.078.375.18.944.285 1.511.135.438.269.877.404 1.274s.272.75.407 1.106c.162.512.413.993.741 1.42.329.423.739.788 1.427 1.333a53.441 53.441 0 002.66 1.946 4.03 4.03 0 001.182.462c.437.1.928.146 1.342.133a3.13 3.13 0 001.077-.21c.938-.258 1.874-.515 2.645-.836.771-.322 1.368-.701 1.972-1.087a24.783 24.783 0 001.841-1.953c.449-.546.671-.905.823-1.22.152-.313.24-.584.285-.859.247-.703.494-1.403.637-1.89.144-.484.187-.756.23-1.029.066-1.32-.01-2.643-.227-3.947a17.065 17.065 0 00-1.158-3.977 23.094 23.094 0 00-2.143-3.882c-.741-1.073-1.42-1.784-2.193-2.378l-.34-.132zm8.036.686c-.4-.3-.794-.602-1.073-.78-.274-.18-.429-.236-.583-.293a.56.56 0 00.062.389c.044.08.099.155.164.22.005.016.015.028.043.058.03.03.08.077.287.248.207.168.574.455.939.741.13.109.257.22.392.372.133.15.274.342.412.533.124.152.244.306.337.419.09.112.15.185.19.24.045.055.069.091.092.126.231.381.452.765.649 1.12.195.355.36.678.507.915.142.237.264.388.452.91.185.523.439 1.416.644 2.3.204.885.361 1.76.476 2.64.022.734.028 1.468.015 2.077-.013.609-.048 1.092-.05 1.649-.005.555.022 1.186.074 1.811.019.015.047.028.069.04.07.024.131.025.19-.052a.244.244 0 00.038-.07c.012-.028.026-.06.04-.125l.038-.225.024-.163c.01-.06.025-.14.038-.194a.509.509 0 01.033-.107c.209-.786.421-1.577.497-2.425.078-.849.024-1.757-.031-2.667-.216-1.087-.437-2.171-.701-3.078-.267-.909-.578-1.636-.889-2.365-.461-.912-.923-1.824-1.484-2.535-.562-.709-1.225-1.219-1.891-1.729zm-3.993-.872c.024.109.06.216.093.292a.472.472 0 00.116.174c.046.047.108.09.186.153.075.063.169.143.259.226.39.33.78.658 1.043.896.265.238.402.389.537.537.177.212.355.42.519.593.167.176.317.317.452.472.137.152.259.317.371.49.111.21.208.429.288.653.171.433.454 1.192.735 1.953.093.247.197.488.312.715.114.228.237.438.335.61.099.175.174.31.224.44.05.13.078.253.085.37.012.114.005.23-.02.342.022.444.041.89.1 1.871.055.982.155 2.5.031 3.74-.124 1.242-.476 2.206-1.013 3.056a11.938 11.938 0 01-1.46 2.08 17.787 17.787 0 01-2.029 1.988c-.673.553-1.265.923-1.901 1.21-.492.32-.982.64-1.317.827-.22.13-.456.23-.702.3a.9.9 0 01-.249.068c-.112.016-.272.025-.4.036a4.648 4.648 0 00-.321.032 2.034 2.034 0 00-.29.066.751.751 0 00-.369.263.818.818 0 00-.119.21 1.408 1.408 0 00-.083.282c.133.099.285.167.447.2a.507.507 0 00.207-.009c.08-.02.178-.059.245-.088.069-.03.107-.048.209-.087.1-.04.264-.1.431-.157a7.44 7.44 0 002.566-.757c.799-.41 1.527-.977 2.338-1.685a38.288 38.288 0 002.559-2.439c.594-.749 1.192-1.499 1.579-2.112.395-.61.581-1.084.771-1.555.274-1.03.545-2.056.637-2.836.093-.778 0-1.303-.09-1.831.033-.623-.017-1.244-.217-2.113a28.396 28.396 0 00-.813-2.756c-.269-.766-.459-1.174-.687-1.56a78.155 78.155 0 00-1.522-1.912 50.105 50.105 0 00-1.432-1.69c-.402-.443-.689-.71-.963-.913a3.406 3.406 0 00-.823-.44 3.806 3.806 0 00-.855-.205zm-16.738.698c.048-.08.089-.164.121-.251.019-.078.019-.146-.043-.216-.014-.013-.028-.027-.045-.038-.28.163-.537.366-.875.717-.335.35-.757.852-1.156 1.416a15.67 15.67 0 00-1.113 1.83c-.73 1.5-1.462 2.999-1.929 4.245-.466 1.243-.67 2.23-.873 3.217a34.96 34.96 0 00-.082 1.24c-.022.389-.031.747-.055 1.123a41.51 41.51 0 01-.095 1.125c-.036.35-.067.659.112 1.599.178.938.568 2.51 1.12 3.794.547 1.286 1.258 2.285 2.136 3.116.13.144.269.285.371.385.107.101.178.16.243.208.069.045.127.08.18.105.044.022.09.038.137.05a.42.42 0 00.115.006.317.317 0 00.173-.077 26.574 26.574 0 01-.956-1.634c-.283-.538-.504-1.062-.728-1.588a37.548 37.548 0 01-.526-1.3 9.502 9.502 0 01-.269-.822 17.086 17.086 0 00-.319-1.242c-.14-.458-.319-.986-.457-1.857a14.55 14.55 0 01-.143-3.277c.093-1.188.379-2.349.699-3.542.321-1.193.681-2.42 1.143-3.454.466-1.039 1.037-1.888 1.412-2.45.374-.56.552-.834.733-1.103.122-.212.242-.424.317-.548.071-.125.09-.16.121-.21.067-.12.153-.228.255-.32a3.6 3.6 0 01.276-.247zm15.715-.133a3.12 3.12 0 00-.523-.145c-.185-.033-.392-.038-.599-.044.177.255.356.51.546.775.185.266.385.538.764 1.066l1.367 1.898c.426.594.716 1 1.006 1.407a8.47 8.47 0 01.718 1.764c.178.637.293 1.331.397 1.853.107.523.202.875.283 1.192.08.316.145.598.204.88.062.701.127 1.404.072 2.451-.055 1.047-.229 2.438-.404 3.83.075.08.162.088.235.057a.288.288 0 00.075-.045.618.618 0 00.088-.082c.033-.036.072-.083.112-.141.04-.06.085-.13.145-.245.06-.113.138-.267.209-.421.231-.464.459-.932.624-1.49.162-.556.259-1.206.359-1.856-.015-.932-.028-1.86-.135-2.748-.107-.89-.309-1.737-.509-2.583-.412-1.281-.818-2.56-1.385-3.597-.566-1.036-1.287-1.828-2.011-2.62-.178-.167-.354-.338-.628-.53-.273-.195-.638-.41-1.01-.626zm7.685.213c-.07.237-.081.487-.031.728.048.21.157.356.243.479.087.12.152.212.352.571.202.36.539.986.88 1.75.341.766.684 1.674.983 2.595.021.09.04.182.154.465.112.282.322.755.529 1.227.05.145.107.286.132.404.031.116.036.205.041.293.124.915.204 1.838.239 2.759.036.92.02 1.837.008 2.53l-.026 1.632c-.057.091-.028.182.04.285.052.069.12.124.198.161.082.031.169.05.249-.052.01-.016.022-.033.031-.055a.6.6 0 00.035-.182c.064-.306.127-.61.164-.809.041-.2.055-.29.076-.4a8.1 8.1 0 01.08-.357c.247-.949.492-1.899.524-2.753.028-.855-.16-1.616-.347-2.377a60.71 60.71 0 01-.666-2.12c-.148-.509-.185-.718-.333-1.106a17.821 17.821 0 00-.696-1.51c-.031-.069-.06-.14-.329-.523-.272-.385-.778-1.086-1.282-1.786-.16-.24-.322-.48-.445-.67-.126-.188-.214-.325-.339-.513-.132-.189-.296-.427-.464-.666zm-25.441 6.677c-.007 0-.017-.003-.024-.016l-.005-.026a.31.31 0 010-.06l.015-.136a.696.696 0 00.019-.416.206.206 0 00-.019-.054.171.171 0 00-.043-.068c-.075-.063-.142-.049-.224-.03a.453.453 0 00-.1.035.294.294 0 00-.08.063.422.422 0 00-.062.091.416.416 0 00-.06.16c-.019.08-.033.198-.042.281-.013.08-.017.127-.026.204-.012.074-.028.177-.047.26a.872.872 0 01-.143.339.626.626 0 01-.097.108c-.025.058-.048.118-.128.474a381.72 381.72 0 00-.359 1.658c-.058.159-.107.32-.148.485a.852.852 0 00-.033.424.43.43 0 00.126.216c.315-.467.59-.96.823-1.472a9.517 9.517 0 00.514-1.436c.108-.423.148-.752.143-1.084zm-.135 9.851c-.033-.278-.067-.557-.074-.94-.01-.384.005-.872.02-1.363.032-.581.069-1.158.045-1.564-.025-.404-.108-.63-.188-.86a.6.6 0 00-.155.1.7.7 0 00-.149.197 2.41 2.41 0 00-.162.38c-.06.182-.12.361-.215.86-.092.497-.219 1.313-.347 2.129.058.545.115 1.09.319 1.689.205.599.552 1.254.901 1.908.103.148.207.297.267.377.057.08.067.09.143.185.078.094.224.274.369.468.147.193.289.4.428.615a11.75 11.75 0 001.565 1.466c.504.383.958.635 1.353.797a2.92 2.92 0 001.077.24 46.104 46.104 0 00-1.562-1.552c-.412-.386-.659-.584-.988-.89a24.596 24.596 0 01-1.134-1.155c-.412-.648-.823-1.293-1.076-1.807a5.784 5.784 0 01-.437-1.28zm2.005-2.162a5.12 5.12 0 00-.183 1.48c.015.499.102.99.337 1.624.238.633.624 1.409 1.078 2.136.169.2.335.399.549.608.217.21.482.428.749.643.03-.11.057-.223.062-.316a.755.755 0 00-.155-.528 5.174 5.174 0 00-.384-.496c-.44-.709-.883-1.416-1.225-2.274-.339-.86-.584-1.868-.828-2.877zm24.924 2.22a.236.236 0 00.017-.07.444.444 0 00-.098-.286.655.655 0 00-.08-.086.434.434 0 00-.093-.064.709.709 0 00-.047.218c-.012.17.04.403.14.627a.773.773 0 01.161-.34zm.13 2.336c.112-.127.219-.259.299-.366a2.61 2.61 0 00.29-.447.9.9 0 00.053-.133.41.41 0 00.019-.094.213.213 0 00-.005-.068.12.12 0 00-.016-.048.114.114 0 00-.034-.038.177.177 0 00-.052-.028.43.43 0 00-.178-.016c-.276.32-.549.637-.73.851-.181.212-.265.318-.35.418a4.636 4.636 0 01-.271.29c-.516.498-1.043.984-1.58 1.458-.509.441-.987.819-1.469 1.196-.421.24-.833.496-1.235.766a3.14 3.14 0 00-.559.453 1.324 1.324 0 00-.369.682.12.12 0 00.045.027c.017.01.03.013.057.018.027.005.06.006.093.006a11.887 11.887 0 002.119-1.01c.689-.41 1.362-.898 2.023-1.552a12.754 12.754 0 001.85-2.365zm-20.64 4.479a.324.324 0 00-.06-.054.555.555 0 00-.093-.047.846.846 0 00-.388-.04.552.552 0 00-.095.029.312.312 0 00-.062.039c-.06.057-.057.11-.05.168.018.07.052.134.097.19.115.074.233.146.322.192.085.048.137.07.182.084a.47.47 0 00.125.026c.09.006.164-.006.242-.083a.447.447 0 00.064-.084.806.806 0 00.055-.12.632.632 0 00-.112-.132 2.1 2.1 0 00-.216-.155.056.056 0 00-.011-.013zm-2.426.975a.17.17 0 00-.075-.045.442.442 0 00-.21-.01.6.6 0 00-.069.014l-.053.025c-.014.007-.025.016-.037.025-.065.066-.026.12.042.18l.06.044c.262.232.549.438.868.617.321.178.678.331 1.001.431.323.1.616.146.863.155.25.01.454-.025.647-.089a.311.311 0 00-.081-.196.515.515 0 00-.102-.096 1.119 1.119 0 00-.226-.128 9.862 9.862 0 00-.509-.225c-.155-.061-.307-.125-.659-.242a79.68 79.68 0 00-1.46-.46zm15.784 1.172a1.692 1.692 0 00-.316-.251.912.912 0 00-.35-.124 1.947 1.947 0 00-.499 0 3.67 3.67 0 00-.561.172c-.31.114-.794.31-1.282.508-.136.05-.274.101-.517.188l-.937.346a9.682 9.682 0 00-1.038.376c-.326.128-.608.35-.808.637.012.005.024.006.062 0 .065-.015.13-.03.195-.049.102-.027.244-.07.416-.118.169-.05.369-.107.533-.148.162-.04.29-.068.422-.09.226.005.451.01.725-.056.272-.063.592-.196.911-.33.663-.266 1.33-.522 2.001-.765a8.113 8.113 0 011.043-.296zM0 15.659h10.667v4.338c1.535-1.81 3.083-3.099 4.645-3.865a10.759 10.759 0 012.586-.86 15.36 15.36 0 013.07-.288c2.377 0 4.258.42 5.642 1.26.693.42 1.323.943 1.889 1.569a10.69 10.69 0 011.509 2.184c1.792-1.94 3.424-3.262 4.898-3.962a10.241 10.241 0 012.47-.788c.987-.182 1.988-.27 2.99-.263 3.192 0 5.682.952 7.474 2.855.896.953 1.568 2.173 2.015 3.66.447 1.489.672 3.246.672 5.272v18.766H39.074V28.524c0-.674-.064-1.262-.195-1.763a3.336 3.336 0 00-.585-1.244c-.381-.515-.809-.903-1.282-1.16a3.209 3.209 0 00-1.563-.387c-1.338 0-2.416.487-3.232 1.463-.408.487-.716 1.122-.92 1.905-.204.783-.307 1.712-.307 2.791v15.408H19.538V29.044c0-.657-.02-1.209-.056-1.655-.036-.445-.093-.786-.168-1.021a3.65 3.65 0 00-1.264-1.82c-.662-.506-1.365-.687-2.105-.69-1.31 0-2.385.498-3.228 1.494-.421.498-.737 1.157-.947 1.974-.21.817-.317 1.795-.317 2.93v15.281H0V15.66zm88.377 17.747H65.47c.103.922.28 1.725.526 2.41.249.687.569 1.256.962 1.708a5.42 5.42 0 001.908 1.46c1.524.68 3.67.733 5.615-.347.648-.372 1.311-1.012 1.993-1.862l11.23 1.01c-1.724 3.007-3.803 5.161-6.239 6.468-1.217.651-2.7 1.142-4.445 1.468-1.748.326-3.758.488-6.034.488-3.952 0-7.062-.557-9.328-1.673-2.266-1.115-4.144-2.888-5.633-5.316a14.576 14.576 0 01-1.674-3.963c-.373-1.429-.56-2.964-.56-4.603 0-4.67 1.496-8.45 4.486-11.339 1.495-1.444 3.274-2.527 5.339-3.248 2.065-.723 4.414-1.084 7.048-1.084 4.274 0 7.648.645 10.12 1.937 2.475 1.292 4.359 3.163 5.652 5.616.646 1.226 1.132 2.637 1.455 4.234.403 1.938.523 4.197.486 6.636zM76.7 27.902c-.225-2.209-.815-3.79-1.775-4.745a4.69 4.69 0 00-1.665-1.074 5.946 5.946 0 00-2.12-.358c-.903 0-1.715.18-2.436.54-.72.36-1.352.902-1.893 1.622-.345.45-.626 1.009-.845 1.678-.22.67-.374 1.448-.468 2.338H76.7v-.001zm17.61-12.243h-4.154v8.423h4.154l-.387 20.988 11.926-.177-.085-20.81h6.286v-8.424h-6.286V4.314L94.31 4.137V15.66zm53.704 17.747h-22.907c.102.922.279 1.725.529 2.41.247.687.568 1.256.96 1.708a5.443 5.443 0 001.907 1.46c1.525.68 3.67.733 5.615-.347.649-.372 1.312-1.012 1.993-1.862l11.23 1.01c-1.724 3.007-3.802 5.161-6.238 6.468-1.217.651-2.699 1.142-4.446 1.468-1.747.326-3.758.488-6.031.488-3.953 0-7.062-.557-9.33-1.673-2.266-1.115-4.142-2.888-5.632-5.316a14.578 14.578 0 01-1.674-3.963c-.374-1.429-.559-2.964-.559-4.603 0-4.67 1.494-8.45 4.486-11.339 1.494-1.444 3.273-2.527 5.339-3.248 2.064-.723 4.412-1.084 7.047-1.084 4.274 0 7.648.645 10.121 1.937 2.473 1.292 4.357 3.163 5.651 5.616.647 1.226 1.132 2.637 1.455 4.234.401 1.938.523 4.197.484 6.636zm-11.676-5.504c-.224-2.209-.816-3.79-1.775-4.745a4.685 4.685 0 00-1.667-1.074 5.935 5.935 0 00-2.116-.358c-.903 0-1.717.18-2.438.54-.723.36-1.352.902-1.893 1.622-.345.45-.628 1.009-.844 1.678a11.36 11.36 0 00-.469 2.338h11.202v-.001zm54.192-12.243h10.672v4.886c1.03-2.115 2.095-3.571 3.191-4.367a5.976 5.976 0 011.839-.895 7.897 7.897 0 012.228-.298c.841 0 1.724.132 2.65.394.922.261 1.886.655 2.889 1.178l-3.546 8.145c-.676-.28-1.28-.492-1.814-.633-.535-.141-.999-.21-1.394-.21-.749 0-1.415.154-1.996.463-.583.31-1.08.774-1.494 1.396-.589.873-1.033 2.124-1.327 3.757-.297 1.633-.445 3.646-.445 6.038v10.024H190.53V15.66z" fill="#fff"/></svg>