<svg width="215" height="55" fill="none" xmlns="http://www.w3.org/2000/svg"><path fill-rule="evenodd" clip-rule="evenodd" d="M29.252 17.117c-2.869 0-5.294.97-7.192 2.647-1.942 1.677-2.868 4.325-2.868 7.414 0 2.646.705 5.073 2.161 6.969 1.413 1.898 4.06 3.134 7.192 3.134 3.838 0 7.897-1.677 11.736-4.588l-.485 19.19c-5.295 1.458-9.575 2.384-12.486 2.384-4.28 0-8.869-.928-13.148-2.869-4.324-1.896-7.943-5.249-10.324-9.087C1.456 38.472 0 33.178 0 27.44c0-4.322.971-8.867 2.868-12.926C4.81 10.41 7.898 6.837 12.002 4.41c4.06-2.603 9.354-4.059 15.31-4.059 3.838 0 8.427.97 12.707 2.648v19.148c-3.092-3.355-6.93-5.031-10.767-5.031zm16.28 35.958V1.322h18.927v51.753H45.53zm24.222 0V1.322h18.707V36.53h17.958v16.545H69.754zm41.959 0V1.322h18.663V36.53h18.001v16.545h-36.664zm41.915 0V1.322h18.927v51.753h-18.927zm32.383 0V18.308h-10.545V1.322H215v16.986h-10.324v34.767h-18.665z" fill="#fff"/></svg>