<svg width="40" height="40" fill="none" xmlns="http://www.w3.org/2000/svg"><g clip-path="url(#clip0)" fill="#051223"><path d="M40 6.62H4.688v4.687H0v22.072h35.312v-4.688H40V6.62zm-7.032 10.156a4.47 4.47 0 01-3.125-3.125h3.125v3.125zm-5.525-3.125a6.816 6.816 0 005.525 5.525v6.335a6.816 6.816 0 00-5.525 5.524H7.87a6.816 6.816 0 00-5.525-5.524v-6.335a6.816 6.816 0 005.525-5.525h19.575zm-21.974 0a4.47 4.47 0 01-3.125 3.125V13.65h3.125zM2.344 27.91a4.47 4.47 0 013.125 3.124H2.344V27.91zm27.5 3.124a4.47 4.47 0 013.124-3.125v3.125h-3.125zm7.812-4.687h-2.344v-15.04H7.032V8.963h30.624v17.385z"/><path d="M17.656 27.37a5.033 5.033 0 005.028-5.028 5.033 5.033 0 00-5.028-5.027 5.033 5.033 0 00-5.028 5.027 5.033 5.033 0 005.028 5.028zm0-7.712a2.687 2.687 0 012.684 2.684 2.687 2.687 0 01-2.684 2.684 2.687 2.687 0 01-2.684-2.684 2.687 2.687 0 012.684-2.684zm7.858 1.514h3.835v2.344h-3.835v-2.344zm-19.551 0h3.835v2.344H5.963v-2.344z"/></g><defs><clipPath id="clip0"><path fill="#fff" d="M0 0h40v40H0z"/></clipPath></defs></svg>