<svg width="36" height="36" fill="none" xmlns="http://www.w3.org/2000/svg"><g clip-path="url(#clip0)" fill="#051223"><path d="M34.456 27.027c-3.222-3.222-3.01-3.018-3.101-3.085l-8.53-6.297 3.31-3.308a7.396 7.396 0 007.698-1.735 7.393 7.393 0 001.443-8.4 1.055 1.055 0 00-1.697-.292L30.85 6.638a1.056 1.056 0 01-1.491-1.491l2.727-2.728a1.055 1.055 0 00-.29-1.697 7.393 7.393 0 00-8.401 1.443 7.396 7.396 0 00-1.735 7.698l-3.815 3.816c-.777-.605.248.428-7.07-7.331l.768-.767a1.055 1.055 0 00-.203-1.65L5.694.543a3.75 3.75 0 00-4.588.565 3.75 3.75 0 00-.564 4.587l3.388 5.647a1.055 1.055 0 001.65.203l.723-.723c7.28 7.718 6.321 6.67 6.897 7.41.013.017.028.033.043.05l-3.384 3.382A7.396 7.396 0 002.161 23.4a7.393 7.393 0 00-1.442 8.4 1.055 1.055 0 001.696.292l2.728-2.728a1.054 1.054 0 111.491 1.491l-2.728 2.728a1.055 1.055 0 00.292 1.697 7.39 7.39 0 008.4-1.442 7.396 7.396 0 001.735-7.7l2.89-2.889 6.727 8.176c.051.062-.118-.11 2.891 2.898a5.659 5.659 0 003.984 1.664c1.05 0 2.089-.306 2.96-.934 2.66-1.916 2.974-5.723.671-8.025zM7.092 8.585a1.055 1.055 0 00-1.512-.022l-.537.536L2.35 4.61a1.644 1.644 0 01.247-2.01 1.644 1.644 0 012.013-.25l4.489 2.694-.536.536a1.054 1.054 0 00-.023 1.47c8.408 8.915 7.085 7.573 7.803 8.131l-1.6 1.6c-.553-.71.73.691-7.65-8.196zm5.252 16.56a1.054 1.054 0 00-.206 1.2 5.28 5.28 0 01-1.03 6 5.28 5.28 0 01-4.475 1.492l1.492-1.492a3.161 3.161 0 000-4.473 3.167 3.167 0 00-4.473 0L2.16 29.363a5.284 5.284 0 011.492-4.473 5.281 5.281 0 016-1.031c.404.192.885.11 1.2-.206L23.65 10.857c.316-.316.399-.797.206-1.2a5.28 5.28 0 011.03-6.001 5.284 5.284 0 014.474-1.492l-1.49 1.492a3.142 3.142 0 00-.927 2.236c0 .845.33 1.64.927 2.237a3.167 3.167 0 004.473 0l1.492-1.492a5.284 5.284 0 01-1.492 4.474 5.281 5.281 0 01-6 1.03 1.054 1.054 0 00-1.2.207l-12.8 12.796zm6.372-3.39l2.602-2.602 2.652 1.958-3.168 3.168c-2.155-2.618-2.02-2.46-2.086-2.524zM32.553 33.34c-1.23.886-3.044.667-4.22-.51l-2.787-2.786-3.398-4.13 3.538-3.538 4.353 3.214 2.926 2.927a3.164 3.164 0 01-.412 4.823z"/><path d="M31.456 29.827l-4.218-4.217a1.054 1.054 0 10-1.49 1.49l4.217 4.218a1.054 1.054 0 001.49-1.491z"/></g><defs><clipPath id="clip0"><path fill="#fff" d="M0 0h36v36H0z"/></clipPath></defs></svg>