<svg width="36" height="36" fill="none" xmlns="http://www.w3.org/2000/svg"><path d="M34.456 27.027c-3.222-3.222-3.01-3.018-3.101-3.085l-8.529-6.297 3.308-3.308a7.396 7.396 0 007.7-1.734 7.393 7.393 0 001.442-8.401 1.055 1.055 0 00-1.697-.291L30.85 6.638a1.054 1.054 0 11-1.491-1.491l2.728-2.727a1.055 1.055 0 00-.291-1.697 7.393 7.393 0 00-8.401 1.442 7.396 7.396 0 00-1.735 7.699l-3.815 3.815c-.777-.604.248.428-7.07-7.33l.768-.768a1.055 1.055 0 00-.203-1.65L5.694.544a3.75 3.75 0 00-4.587.565 3.75 3.75 0 00-.565 4.587l3.388 5.647a1.055 1.055 0 001.65.204l.723-.724c7.28 7.719 6.321 6.67 6.897 7.41.013.018.029.033.043.05l-3.384 3.383A7.396 7.396 0 002.161 23.4a7.393 7.393 0 00-1.442 8.4 1.055 1.055 0 001.697.292l2.727-2.728a1.054 1.054 0 111.491 1.491l-2.728 2.728a1.055 1.055 0 00.292 1.697 7.391 7.391 0 008.4-1.442 7.396 7.396 0 001.735-7.699l2.89-2.89 6.727 8.177c.051.062-.118-.111 2.891 2.898a5.659 5.659 0 003.984 1.663c1.05 0 2.089-.306 2.96-.934 2.66-1.915 2.974-5.722.671-8.025zM7.092 8.586a1.055 1.055 0 00-1.512-.023l-.537.537L2.35 4.61a1.644 1.644 0 01.248-2.01 1.644 1.644 0 012.01-.248l4.49 2.693-.536.536a1.054 1.054 0 00-.022 1.47c8.408 8.914 7.085 7.572 7.803 8.13l-1.6 1.6c-.553-.71.73.692-7.65-8.195zm5.252 16.559a1.054 1.054 0 00-.206 1.2 5.28 5.28 0 01-1.03 6 5.279 5.279 0 01-4.475 1.492l1.492-1.492a3.161 3.161 0 000-4.473 3.167 3.167 0 00-4.473 0L2.16 29.364a5.284 5.284 0 011.492-4.474 5.281 5.281 0 016-1.03c.404.192.885.11 1.2-.206L23.65 10.857c.316-.316.399-.797.206-1.2a5.28 5.28 0 011.03-6 5.284 5.284 0 014.475-1.493l-1.492 1.492a3.143 3.143 0 00-.927 2.237c0 .845.33 1.639.927 2.236a3.167 3.167 0 004.473 0l1.492-1.491a5.284 5.284 0 01-1.492 4.473 5.281 5.281 0 01-6 1.031 1.054 1.054 0 00-1.2.206L12.343 25.145zm6.372-3.39l2.602-2.602 2.652 1.958-3.168 3.169c-2.155-2.618-2.02-2.46-2.086-2.525zm13.837 11.586c-1.23.886-3.044.667-4.22-.51l-2.787-2.786-3.398-4.13 3.538-3.537 4.353 3.214 2.926 2.926a3.164 3.164 0 01-.412 4.823z" fill="#fff"/></svg>