<svg width="44" height="44" fill="none" xmlns="http://www.w3.org/2000/svg"><path d="M22 0C12.435 0 4.654 7.781 4.654 17.346c0 5.961 3.022 11.229 7.615 14.353V42.73a1.269 1.269 0 001.79 1.157L22 40.315l7.94 3.573a1.269 1.269 0 001.79-1.157V31.699c4.594-3.124 7.616-8.392 7.616-14.353C39.346 7.781 31.565 0 22 0zm7.192 40.768l-6.671-3.002a1.268 1.268 0 00-1.042 0l-6.671 3.002v-7.635a17.21 17.21 0 001.96.752l.113.036a16.035 16.035 0 00.654.188 18.017 18.017 0 00.843.202c.103.022.206.042.31.063l.126.024c.11.02.22.04.331.058l.114.019c.114.018.228.035.343.05l.107.016c.116.015.233.029.35.042l.104.012c.117.013.234.023.351.033l.107.01c.116.009.232.016.348.023l.112.007c.117.006.235.01.353.014l.107.004a17.976 17.976 0 00.918 0c.036 0 .071-.003.107-.004.118-.004.236-.008.354-.014l.111-.007c.117-.007.233-.014.348-.023l.107-.01c.117-.01.234-.02.35-.033l.105-.012c.117-.013.234-.027.35-.042l.107-.015c.115-.016.23-.033.343-.051l.114-.019a17.153 17.153 0 001.61-.348 16.671 16.671 0 00.654-.187l.114-.036a17.09 17.09 0 001.96-.751v7.634zm-2.36-9.425l-.152.052a14.013 14.013 0 01-1.06.31l-.136.034c-.119.028-.238.056-.357.082l-.09.02c-.154.031-.31.061-.464.089l-.048.008a14.206 14.206 0 01-.967.134l-.017.002c-.158.016-.316.03-.475.041l-.103.007c-.123.008-.247.014-.37.02-.043 0-.084.002-.127.004a15.42 15.42 0 01-.933 0l-.126-.005a14.706 14.706 0 01-.37-.02l-.103-.006a14.985 14.985 0 01-.475-.041l-.017-.002a15.11 15.11 0 01-.967-.135l-.048-.008c-.155-.027-.31-.057-.464-.089l-.09-.02c-.12-.025-.238-.053-.357-.081l-.136-.034a14.98 14.98 0 01-.362-.096l-.193-.056a14.686 14.686 0 01-.505-.158l-.152-.052c-5.8-2.007-9.976-7.523-9.976-13.997C7.192 9.181 13.835 2.538 22 2.538s14.808 6.643 14.808 14.808c0 6.474-4.176 11.99-9.976 13.997z" fill="#fff"/><path d="M29.53 17.346l2.384-4.48A1.269 1.269 0 0030.837 11l-5.072-.176-2.689-4.305a1.27 1.27 0 00-2.152 0l-2.689 4.305-5.072.176a1.27 1.27 0 00-1.077 1.864l2.384 4.481-2.384 4.48a1.269 1.269 0 001.077 1.865l5.072.176 2.689 4.305a1.27 1.27 0 002.152 0l2.689-4.305 5.072-.176a1.27 1.27 0 001.077-1.864l-2.384-4.48zm-4.528 4.008a1.269 1.269 0 00-1.032.596L22 25.104l-1.97-3.154a1.27 1.27 0 00-1.032-.596l-3.716-.13 1.746-3.282a1.27 1.27 0 000-1.192l-1.746-3.283 3.716-.129a1.27 1.27 0 001.032-.596L22 9.588l1.97 3.154c.223.358.61.582 1.032.597l3.716.128-1.746 3.283a1.27 1.27 0 000 1.192l1.746 3.283-3.716.129z" fill="#fff"/></svg>