<svg width="40" height="28" fill="none" xmlns="http://www.w3.org/2000/svg"><path d="M40 .62H4.688v4.688H0V27.38h35.312v-4.688H40V.62zm-7.032 10.157a4.47 4.47 0 01-3.125-3.126h3.125v3.126zM27.443 7.65a6.816 6.816 0 005.525 5.525v6.335a6.816 6.816 0 00-5.525 5.525H7.87a6.816 6.816 0 00-5.525-5.525v-6.335A6.816 6.816 0 007.87 7.65h19.575zm-21.974 0a4.47 4.47 0 01-3.125 3.126V7.65h3.125zM2.344 21.91a4.47 4.47 0 013.125 3.125H2.344V21.91zm27.5 3.125a4.47 4.47 0 013.124-3.125v3.125h-3.125zm7.812-4.688h-2.344V5.308H7.032V2.964h30.624v17.384z" fill="#fff"/><path d="M17.656 21.372a5.033 5.033 0 005.028-5.028 5.033 5.033 0 00-5.028-5.028 5.033 5.033 0 00-5.028 5.028 5.033 5.033 0 005.028 5.028zm0-7.712a2.687 2.687 0 012.684 2.684 2.687 2.687 0 01-2.684 2.684 2.687 2.687 0 01-2.684-2.684 2.687 2.687 0 012.684-2.684zm7.858 1.512h3.835v2.344h-3.835v-2.344zm-19.551 0h3.835v2.344H5.963v-2.344z" fill="#fff"/></svg>