<svg width="44" height="44" fill="none" xmlns="http://www.w3.org/2000/svg"><path d="M22 0C12.435 0 4.654 7.781 4.654 17.346c0 5.961 3.022 11.229 7.615 14.353V42.73a1.269 1.269 0 001.79 1.157L22 40.315l7.94 3.573a1.268 1.268 0 001.79-1.157V31.699c4.594-3.124 7.616-8.392 7.616-14.353C39.346 7.781 31.565 0 22 0zm7.192 40.768l-6.671-3.002a1.268 1.268 0 00-1.042 0l-6.671 3.002v-7.635a17.21 17.21 0 001.96.752l.113.036a16.676 16.676 0 00.654.188 17.65 17.65 0 001.153.265l.126.024c.11.02.22.04.33.058l.115.019c.114.018.228.035.343.05l.107.016c.116.015.233.029.35.042l.104.012c.117.013.234.023.351.033l.107.01c.116.009.232.016.348.023l.112.007c.117.006.235.01.353.014l.107.004a17.982 17.982 0 00.918 0c.036 0 .071-.003.107-.004.118-.004.236-.008.353-.014l.112-.007c.117-.007.233-.014.348-.023l.107-.01c.117-.01.234-.02.35-.033l.105-.012c.117-.013.234-.027.35-.042l.107-.015c.115-.016.23-.033.343-.051l.114-.019a17.153 17.153 0 001.61-.348 17.939 17.939 0 00.654-.187l.114-.036a17.09 17.09 0 001.96-.751v7.634zm-2.36-9.425l-.152.052a14.013 14.013 0 01-1.06.31l-.136.034c-.119.028-.238.056-.357.082l-.09.02c-.154.031-.31.061-.464.089l-.048.008a14.212 14.212 0 01-.967.134l-.017.002c-.158.016-.316.03-.475.041l-.103.007a15.193 15.193 0 01-1.43.024l-.126-.005a14.706 14.706 0 01-.37-.02l-.103-.006a15.037 15.037 0 01-.475-.041l-.017-.002a15.07 15.07 0 01-.967-.135l-.048-.008a14.78 14.78 0 01-.464-.089l-.09-.02a14.33 14.33 0 01-.357-.081l-.136-.034a14.98 14.98 0 01-1.06-.31l-.152-.052c-5.8-2.007-9.976-7.523-9.976-13.997C7.192 9.181 13.835 2.538 22 2.538s14.808 6.643 14.808 14.808c0 6.474-4.176 11.99-9.976 13.997z" fill="#051223"/><path d="M29.53 17.346l2.384-4.48A1.27 1.27 0 0030.838 11l-5.073-.176-2.688-4.305a1.27 1.27 0 00-2.153 0l-2.689 4.305-5.072.176a1.27 1.27 0 00-1.077 1.864l2.384 4.48-2.384 4.482a1.269 1.269 0 001.077 1.864l5.072.176 2.689 4.305a1.27 1.27 0 002.153 0l2.688-4.305 5.073-.176a1.27 1.27 0 001.076-1.864l-2.384-4.481zm-4.528 4.007a1.269 1.269 0 00-1.032.597L22 25.104l-1.97-3.154a1.27 1.27 0 00-1.032-.597l-3.716-.128 1.746-3.283c.199-.373.199-.82 0-1.192l-1.746-3.283 3.716-.129a1.27 1.27 0 001.033-.596L22 9.588l1.969 3.154c.223.358.61.582 1.032.596l3.716.13-1.746 3.282a1.27 1.27 0 000 1.192l1.746 3.283-3.716.128z" fill="#051223"/></svg>