<svg width="40" height="40" fill="none" xmlns="http://www.w3.org/2000/svg"><g clip-path="url(#clip0)" fill="#051223"><path d="M36.485 4.686C29.583 4.686 20.608.3 20.52.256L20 0l-.518.256c-.09.044-9.065 4.43-15.967 4.43H2.343v14.217c0 10.285 7.334 19.14 17.439 21.056L20 40l.218-.041c10.105-1.916 17.44-10.771 17.44-21.056V4.686h-1.173zm-1.172 14.217c0 9.086-6.426 16.919-15.313 18.71-8.887-1.791-15.313-9.624-15.313-18.71V6.995C10.963 6.63 18.034 3.522 20 2.605c1.966.917 9.037 4.025 15.313 4.39v11.908z"/><path d="M19.546 6.646a65.09 65.09 0 01-3.499 1.355c-2.436.863-4.758 1.516-6.9 1.94l-.944.188v8.774c0 3.461 1.177 6.87 3.316 9.6a15.676 15.676 0 008.174 5.427l.307.083.308-.083a15.676 15.676 0 008.174-5.428 15.634 15.634 0 003.316-9.599V10.13l-.944-.187c-2.143-.425-4.464-1.078-6.9-1.94a65.15 65.15 0 01-3.5-1.356L20 6.456l-.454.19zm-2.717 3.565a66.824 66.824 0 002-.746v8.845h-8.283v-6.268c1.984-.44 4.092-1.056 6.283-1.831zm-3.465 16.846a13.297 13.297 0 01-2.699-6.403h8.163v10.515a13.343 13.343 0 01-5.464-4.112zm13.273 0a13.342 13.342 0 01-5.465 4.112V20.654h8.163a13.297 13.297 0 01-2.698 6.403zm2.817-15.015v6.268h-8.282V9.464c.666.26 1.334.51 1.999.746 2.191.775 4.3 1.39 6.283 1.831z"/></g><defs><clipPath id="clip0"><path fill="#fff" d="M0 0h40v40H0z"/></clipPath></defs></svg>