<svg width="44" height="44" fill="none" xmlns="http://www.w3.org/2000/svg"><path d="M44 22l-4.285-4.747L41.053 11l-6.085-1.968L33 2.948l-6.253 1.337L22 0l-4.747 4.285L11 2.947 9.032 9.032 2.948 11l1.337 6.253L0 22l4.285 4.747L2.948 33l6.084 1.968L11 41.052l6.253-1.337L22 44l4.747-4.285L33 41.052l1.968-6.084L41.052 33l-1.337-6.253L44 22zM32.907 32.907l-1.655 5.118-5.26-1.125L22 40.504 18.008 36.9l-5.26 1.125-1.655-5.118-5.118-1.655 1.125-5.26L3.496 22 7.1 18.008l-1.125-5.26 5.118-1.655 1.655-5.118 5.26 1.125L22 3.496 25.992 7.1l5.26-1.125 1.655 5.118 5.118 1.655-1.125 5.26L40.504 22 36.9 25.992l1.125 5.26-5.118 1.655z" fill="#051223"/><path d="M27.623 23.73a3.897 3.897 0 00-3.893 3.893 3.897 3.897 0 003.893 3.893 3.897 3.897 0 003.893-3.893 3.897 3.897 0 00-3.893-3.893zm0 5.19a1.3 1.3 0 01-1.298-1.297 1.3 1.3 0 011.298-1.297 1.3 1.3 0 011.297 1.297 1.3 1.3 0 01-1.297 1.298zm-11.246-8.65a3.897 3.897 0 003.893-3.893 3.897 3.897 0 00-3.893-3.893 3.897 3.897 0 00-3.893 3.893 3.897 3.897 0 003.893 3.893zm0-5.19a1.3 1.3 0 011.298 1.297 1.3 1.3 0 01-1.298 1.298 1.3 1.3 0 01-1.297-1.298 1.3 1.3 0 011.297-1.297zm-3.084 13.787l15.57-15.569 1.834 1.835-15.569 15.569-1.835-1.835z" fill="#051223"/></svg>