<svg width="43" height="43" fill="none" xmlns="http://www.w3.org/2000/svg"><path d="M21.5 43c10.42 0 18.897-8.515 18.897-18.98a18.78 18.78 0 00-5.91-13.726l2.13-2.13 1.629 1.629 1.781-1.781-5.039-5.04-1.781 1.782 1.629 1.629-2.297 2.296a18.682 18.682 0 00-7.26-3.18V2.52h2.52V0H15.2v2.52h2.52V5.5C9.178 7.224 2.604 14.791 2.604 24.02 2.604 34.484 11.08 43 21.5 43zM20.24 2.52h2.52v2.645a19.359 19.359 0 00-1.26-.042c-.422 0-.842.015-1.26.042V2.52zm1.26 5.123c9.03 0 16.377 7.346 16.377 16.377 0 9.076-7.347 16.46-16.377 16.46-9.03 0-16.377-7.384-16.377-16.46 0-9.03 7.347-16.377 16.377-16.377z" fill="#fff"/><path d="M21.5 37.877c7.64 0 13.857-6.217 13.857-13.858 0-7.64-6.216-13.857-13.857-13.857-7.64 0-13.857 6.217-13.857 13.857 0 7.642 6.216 13.858 13.857 13.858zM10.233 22.76a11.283 11.283 0 012.413-5.813l1.728 1.728 1.781-1.782-1.728-1.728a11.282 11.282 0 015.813-2.413v2.45h2.52v-2.45a11.282 11.282 0 015.813 2.413l-1.728 1.728 1.781 1.782 1.728-1.728a11.283 11.283 0 012.413 5.813h-2.449v2.518h2.45a11.287 11.287 0 01-2.414 5.814l-1.728-1.728-1.781 1.782 1.728 1.728a11.283 11.283 0 01-5.813 2.413v-2.45h-2.52v2.45a11.283 11.283 0 01-5.813-2.413l1.728-1.728-1.781-1.782-1.728 1.728a11.284 11.284 0 01-2.413-5.813h2.449v-2.52h-2.45z" fill="#fff"/><path d="M26.54 22.76h-3.78v-3.78h-2.52v6.3h6.3v-2.52z" fill="#fff"/></svg>