<svg width="15" height="20" fill="none" xmlns="http://www.w3.org/2000/svg"><path d="M6.753 10.586a.929.929 0 011.412 0l4.444 5.201a.929.929 0 01-.706 1.532H3.014a.929.929 0 01-.706-1.531l4.445-5.202z" fill="#1D634A"/><path d="M6.753 6.15a.929.929 0 011.412 0l4.444 5.202a.929.929 0 01-.706 1.532H3.014a.929.929 0 01-.706-1.532L6.753 6.15z" fill="#278362"/><path d="M6.753 1.716a.929.929 0 011.412 0l4.445 5.201a.929.929 0 01-.707 1.532H3.014a.929.929 0 01-.706-1.532l4.445-5.201z" fill="#3EA47F"/></svg>