<svg width="66" height="9" fill="none" xmlns="http://www.w3.org/2000/svg"><path d="M5.772.457v1.649H2.16v1.78h2.703v1.6H2.16v3.418H0V.457h5.772zM9.702 9c-.69 0-1.314-.14-1.87-.421a3.224 3.224 0 01-1.3-1.203c-.312-.522-.468-1.131-.468-1.83 0-.689.16-1.295.48-1.816a3.18 3.18 0 011.314-1.215c.556-.281 1.179-.421 1.87-.421.69 0 1.313.14 1.868.42.556.281.994.687 1.314 1.216.32.521.48 1.127.48 1.817s-.164 1.3-.493 1.829a3.19 3.19 0 01-1.326 1.203c-.556.28-1.179.421-1.87.421zm0-1.78a1.42 1.42 0 001.048-.434c.295-.289.442-.702.442-1.24 0-.537-.143-.95-.43-1.239a1.38 1.38 0 00-1.035-.433c-.42 0-.77.145-1.048.433-.278.281-.417.694-.417 1.24 0 .537.135.95.404 1.24.278.288.623.432 1.036.432zm6.993-3.911c.253-.37.569-.658.948-.866a2.5 2.5 0 011.263-.325v2.177h-.594c-.539 0-.943.113-1.213.337-.269.217-.404.602-.404 1.155v3.117h-2.16V2.19h2.16v1.119zm9.886 2.13c0 .192-.012.393-.037.601h-4.888c.033.417.172.738.416.963.253.216.56.325.922.325.54 0 .914-.217 1.125-.65h2.298a2.918 2.918 0 01-.644 1.191c-.303.353-.686.63-1.15.83-.462.2-.98.301-1.553.301-.69 0-1.305-.14-1.844-.421a3.074 3.074 0 01-1.263-1.203c-.303-.522-.454-1.131-.454-1.83 0-.697.147-1.307.442-1.828a3.074 3.074 0 011.263-1.203c.538-.281 1.157-.421 1.856-.421.682 0 1.288.136 1.819.409.53.272.943.661 1.238 1.167.303.505.454 1.095.454 1.769zm-2.21-.542c0-.353-.126-.634-.379-.842-.252-.209-.568-.313-.947-.313-.362 0-.67.1-.922.3-.244.201-.396.486-.455.855h2.703zM30.588 9c-.615 0-1.162-.1-1.642-.3-.48-.201-.859-.474-1.137-.819a2.139 2.139 0 01-.467-1.18h2.134a.774.774 0 00.341.566c.202.145.45.217.745.217.27 0 .476-.048.62-.144.15-.105.227-.237.227-.397 0-.193-.106-.333-.316-.422-.21-.096-.552-.2-1.023-.312a10.804 10.804 0 01-1.263-.35 2.27 2.27 0 01-.872-.589c-.244-.273-.366-.638-.366-1.095 0-.385.11-.734.329-1.047.227-.32.555-.573.985-.758.438-.184.955-.276 1.553-.276.884 0 1.579.208 2.084.625.514.417.808.97.884 1.66H31.41a.803.803 0 00-.329-.553c-.176-.136-.412-.204-.707-.204-.253 0-.446.048-.581.144a.421.421 0 00-.202.373c0 .193.105.337.316.433.219.096.555.193 1.01.289.522.128.947.257 1.276.385.328.12.614.32.859.602.252.272.383.641.391 1.107 0 .393-.118.746-.353 1.058-.228.305-.56.546-.998.722-.43.177-.93.265-1.503.265zm8.103-1.84v1.744h-1.098c-.784 0-1.394-.18-1.832-.542-.438-.369-.657-.966-.657-1.792V3.898h-.858V2.19h.858V.553h2.16V2.19h1.415v1.708h-1.415v2.696c0 .2.05.345.152.433.1.088.27.132.505.132h.77zm12.177-4.826l-2.16 6.57h-.883l-1.908-5.51-1.907 5.51h-.896l-2.16-6.57h.897l1.717 5.715 1.933-5.715h.884l1.907 5.728 1.705-5.728h.871zM57.9 5.282c0 .289-.009.51-.026.662h-5.721c.025.497.152.922.379 1.275.227.353.526.622.897.806.37.177.774.265 1.212.265.573 0 1.053-.132 1.44-.397.396-.265.657-.622.783-1.07h.935a2.793 2.793 0 01-1.087 1.575c-.547.401-1.237.602-2.07.602-.65 0-1.23-.136-1.744-.41a3.1 3.1 0 01-1.212-1.178c-.287-.514-.43-1.111-.43-1.793 0-.682.143-1.28.43-1.793a2.912 2.912 0 011.2-1.179c.513-.273 1.098-.409 1.755-.409.657 0 1.23.136 1.718.41a2.83 2.83 0 011.136 1.106c.27.457.405.967.405 1.528zm-.897-.024c.008-.49-.097-.906-.316-1.251a2.012 2.012 0 00-.871-.782 2.782 2.782 0 00-1.213-.265c-.657 0-1.216.2-1.68.602-.463.4-.72.966-.77 1.696h4.85zm2.972-1.468a2.73 2.73 0 011.049-1.119c.48-.289 1.044-.433 1.692-.433.632 0 1.196.14 1.693.421.496.273.884.666 1.162 1.18.286.505.429 1.094.429 1.768 0 .674-.143 1.267-.43 1.78a2.93 2.93 0 01-1.174 1.192 3.354 3.354 0 01-1.68.421c-.657 0-1.225-.14-1.705-.421a2.64 2.64 0 01-1.036-1.12v1.445h-.871V0h.871v3.79zm5.128 1.817c0-.546-.113-1.015-.34-1.408a2.221 2.221 0 00-.91-.914 2.726 2.726 0 00-1.314-.313c-.471 0-.905.108-1.3.325a2.383 2.383 0 00-.922.926c-.228.401-.342.867-.342 1.396 0 .53.114.995.341 1.396.228.4.535.71.922.926.396.217.83.325 1.301.325a2.72 2.72 0 001.314-.313 2.3 2.3 0 00.91-.926c.227-.41.34-.883.34-1.42z" fill="#fff"/></svg>