<svg width="173" height="56" fill="none" xmlns="http://www.w3.org/2000/svg"><g clip-path="url(#clip0)" fill="#fff"><path d="M0 30.914h3.166v12.4c0 .813.137 1.579.412 2.297a5.624 5.624 0 001.183 1.885c.514.54 1.132.965 1.854 1.276.722.311 1.529.467 2.421.467.902 0 1.714-.156 2.435-.467a5.427 5.427 0 001.84-1.276 5.649 5.649 0 001.163-1.885 6.47 6.47 0 00.406-2.298V30.914h1.393v12.4a8.1 8.1 0 01-.466 2.763 6.003 6.003 0 01-1.468 2.278c-.667.653-1.521 1.17-2.564 1.55-1.041.379-2.292.57-3.754.57-1.298 0-2.448-.191-3.449-.57-1.001-.38-1.84-.899-2.515-1.558A6.512 6.512 0 01.52 46.044 7.535 7.535 0 010 43.246V30.913zm20.67 0h1.771l12.35 13.963h.123V30.914h1.393v19.559h-.73l-13.379-15.54h-.108V50.02h-1.42V30.914zm20.372 0h3.165V50.02h-3.165V30.914zm14.453 17.913a6.018 6.018 0 01-2.09-1.907c-.558-.813-.98-1.78-1.264-2.9-.284-1.12-.426-2.343-.426-3.67 0-1.307.142-2.507.426-3.6.283-1.093.705-2.034 1.265-2.825a5.896 5.896 0 012.09-1.845c.834-.44 1.8-.658 2.902-.658 1.073 0 2.024.219 2.854.658a5.975 5.975 0 012.09 1.845c.563.79.991 1.733 1.284 2.825.293 1.093.44 2.293.44 3.6 0 1.327-.147 2.526-.44 3.6-.293 1.075-.723 2.004-1.291 2.785a6.663 6.663 0 01-2.097 1.886c-.83.476-1.777.773-2.841.891-1.1 0-2.068-.228-2.901-.685zM68.543 56h-.002.002zm-.002 0v-.508c-.91 0-1.78-.157-2.61-.473a9.427 9.427 0 01-2.266-1.227 8.724 8.724 0 01-1.752-1.708c-.486-.636-.833-1.27-1.041-1.9a8.499 8.499 0 002.151-.747 9.773 9.773 0 001.88-1.241c.577-.485 1.1-1.03 1.563-1.626a10.606 10.606 0 001.934-4.018 9.333 9.333 0 00.264-2.202c0-.906-.117-1.778-.351-2.62a9.6 9.6 0 00-1.008-2.359 9.854 9.854 0 00-3.653-3.545 10.695 10.695 0 00-5.256-1.35 10.75 10.75 0 00-5.269 1.35 9.553 9.553 0 00-2.062 1.542 9.993 9.993 0 00-1.576 2.003 9.608 9.608 0 00-1.008 2.359 9.718 9.718 0 00-.351 2.62c0 1.051.18 2.099.541 3.141.36 1.043.863 2.008 1.508 2.895a10.522 10.522 0 002.307 2.31 8.295 8.295 0 002.948 1.379c.343.42.778.86 1.306 1.316a17.27 17.27 0 001.785 1.345c.697.458 1.42.875 2.165 1.247a21 21 0 002.448 1.044c.865.304 1.751.543 2.652.712.907.173 1.828.26 2.751.261zm15.057-15.471c0 1.344.198 2.547.595 3.607.397 1.06.942 1.96 1.637 2.695a6.986 6.986 0 002.469 1.688 8.102 8.102 0 003.09.583 4.82 4.82 0 001.908-.392 7.443 7.443 0 001.711-1.015 8.468 8.468 0 001.414-1.412 9.337 9.337 0 001.028-1.598l1.325.864c-.4.658-.86 1.277-1.372 1.851a9.006 9.006 0 01-1.834 1.57 9.48 9.48 0 01-2.353 1.092c-.875.274-1.854.412-2.936.412-1.037 0-2.015-.122-2.935-.364-.92-.242-1.765-.58-2.536-1.015a9.398 9.398 0 01-2.07-1.57 9.61 9.61 0 01-1.543-2.025 10.021 10.021 0 01-1.305-4.972c0-.896.115-1.767.345-2.612.226-.835.558-1.637.988-2.386a9.856 9.856 0 013.679-3.648c.78-.445 1.634-.79 2.563-1.037a11.527 11.527 0 012.976-.37c1.001 0 1.923.137 2.767.411a9.811 9.811 0 012.313 1.091c.684.44 1.31.968 1.86 1.57.522.57.989 1.19 1.393 1.852l-1.366.933c-.794-1.545-1.678-2.68-2.652-3.401-.974-.723-2.092-1.084-3.355-1.084a7.74 7.74 0 00-3.057.603 7.24 7.24 0 00-2.475 1.729c-.703.75-1.258 1.66-1.664 2.729-.405 1.07-.608 2.276-.608 3.62zm22.266-.453v-7.97h2.787c.577 0 1.109.097 1.597.289.486.191.906.46 1.257.802.352.343.627.755.826 1.235a4.08 4.08 0 01.297 1.57c0 .622-.124 1.184-.372 1.687-.246.5-.6.938-1.035 1.283a4.855 4.855 0 01-1.563.816 6.406 6.406 0 01-1.968.288h-1.826zm-3.165 9.944h3.165v-8.984h2.219l6.547 8.984h3.666l-6.859-9.272a7.753 7.753 0 001.881-.706 6 6 0 001.461-1.083 4.56 4.56 0 00.94-1.4 4.194 4.194 0 00.331-1.666c0-.723-.144-1.388-.432-1.996a4.376 4.376 0 00-1.285-1.577c-.569-.444-1.279-.79-2.131-1.036-.853-.247-1.847-.37-2.983-.37h-6.52V50.02zm24.295-15.17l3.423 7.558h-6.94l3.517-7.558zm.447-4.375l-9.077 19.545h1.583l2.976-6.378h8.075l2.882 6.378h3.219l-8.874-19.545h-.784zm12.092.439h1.773l12.35 13.963h.122V30.914h1.393v19.559h-.73l-13.379-15.541h-.108V50.02h-1.421V30.914zm33.467 0v1.234h-9.929v6.83h6.642v1.235h-6.642v8.572H173v1.235h-13.095V30.914H173zM89.86 13.325a3.761 3.761 0 01-.482-.03c-.275-.033-.456-.09-.456-.09a.191.191 0 01-.13-.212s.028-.19.12-.457c.043-.136.105-.287.184-.45a3.32 3.32 0 01.287-.502c.231-.337.524-.691.92-.936.404-.234.935-.32 1.391-.524.466-.193.925-.396 1.373-.556.443-.172.864-.317 1.224-.443.723-.248 1.221-.388 1.221-.388a.126.126 0 01.158.092.134.134 0 01-.028.122s-.341.391-.88.942c-.268.272-.583.593-.928.92-.338.337-.72.667-1.095 1.006-.382.328-.692.774-1.076 1.037-.391.255-.833.366-1.232.428-.18.028-.361.042-.543.041h-.029zm37.594 12.97c-.635-.356-1.578-.863-2.758-1.538a577.566 577.566 0 01-9.754-5.638 583.37 583.37 0 01-6.467-3.847c-2.286-1.379-4.703-2.822-7.178-4.357-2.477-1.533-5.055-3.084-7.639-4.718a3081.73 3081.73 0 01-3.91-2.456l-.895-.561c-.331-.16-.735-.4-.95-.42-.131-.033-.237-.084-.387-.115l-.472-.08a2.19 2.19 0 00-.48-.047l-.486-.023c-.645.038-1.31.09-1.889.317-.313.077-.556.24-.826.365-.3.172-.648.403-.97.6-1.31.822-2.617 1.64-3.913 2.451-2.584 1.636-5.164 3.183-7.643 4.713-2.475 1.533-4.893 2.975-7.182 4.35a543.832 543.832 0 01-6.47 3.843 564.17 564.17 0 01-9.759 5.625c-1.18.675-2.123 1.18-2.76 1.536l-.977.538.906-.653c.595-.424 1.456-1.06 2.572-1.841a568.47 568.47 0 019.27-6.421 563.536 563.536 0 016.245-4.208c2.223-1.48 4.563-3.05 7.008-4.633 2.444-1.585 4.948-3.257 7.532-4.893l3.89-2.488c.335-.21.631-.413 1-.632.42-.221.843-.469 1.282-.592.871-.334 1.769-.426 2.664-.472l.674.034c.223.01.447.026.67.075l.672.124c.227.05.483.146.721.225.544.169.799.353 1.162.53l.033.017.124.07.06.04.124.08.244.156.488.313c1.304.835 2.6 1.667 3.89 2.492 2.579 1.642 5.083 3.315 7.526 4.901 2.444 1.585 4.78 3.159 7.004 4.64a574.37 574.37 0 016.24 4.213 583.315 583.315 0 019.265 6.428c1.116.782 1.978 1.42 2.57 1.843l.907.653-.978-.54zM22.628 25.259a205.293 205.293 0 015.44-3.995 187.893 187.893 0 013.686-2.588c1.315-.905 2.698-1.868 4.147-2.83a347.007 347.007 0 014.479-2.96c1.53-1 3.097-1.996 4.661-2.994 1.573-.986 3.143-1.976 4.701-2.93a360.576 360.576 0 014.588-2.78c1.491-.898 2.952-1.734 4.33-2.536.18-.1.328-.198.531-.3.206-.099.414-.197.618-.297.2-.108.413-.152.619-.22.207-.058.411-.129.617-.165.824-.14 1.62-.2 2.375-.11.187.022.374.04.558.06.18.042.36.084.54.124.177.047.346.065.525.138l.52.204c.365.126.585.303.855.455l.23.138.178.132.35.256c.916.666 1.702 1.271 2.352 1.763A92.583 92.583 0 0171.554 5.4s-.84-.406-2.285-1.16c-.72-.377-1.6-.83-2.592-1.376l-.38-.204-.176-.096c.015.01.03.02.008.007l-.012-.005-.026-.011-.051-.022-.103-.043c-.272-.108-.575-.276-.829-.302-.261-.06-.516-.137-.83-.157a82.69 82.69 0 00-.451-.054l-.47.005c-.63-.011-1.281.118-1.917.296-.158.044-.304.123-.46.177-.15.064-.316.106-.448.2l-.421.243c-.143.083-.32.216-.48.322-1.316.906-2.698 1.868-4.149 2.833a331.327 331.327 0 01-4.477 2.959c-1.53 1-3.096 1.998-4.66 2.996-1.571.987-3.14 1.978-4.7 2.932a347.249 347.249 0 01-4.587 2.781c-1.49.896-2.95 1.735-4.33 2.535a191.587 191.587 0 01-3.91 2.222 202.852 202.852 0 01-5.929 3.203c-1.445.75-2.287 1.154-2.287 1.154s.728-.59 2.026-1.577zm89.887-22.35l-.006-.002c.024.014.015.009.006.003zm37.112 22.774a203.517 203.517 0 01-5.901-3.194 190.147 190.147 0 01-3.894-2.215c-1.373-.8-2.826-1.634-4.311-2.528a347.783 347.783 0 01-4.566-2.773c-1.552-.953-3.115-1.939-4.68-2.923-1.557-.996-3.117-1.988-4.639-2.988a332.562 332.562 0 01-4.458-2.95c-1.442-.962-2.819-1.921-4.128-2.824a76.738 76.738 0 00-.487-.336l-.06-.043-.031-.021-.009-.007-.081-.046-.254-.142c-.36-.233-.611-.27-.885-.395-.284-.1-.623-.166-.932-.237-.32-.023-.638-.094-.951-.084a6.631 6.631 0 00-1.789.196l-.413.104c-.135.038-.251.103-.378.153-.124.05-.248.103-.368.155l-.378.2c-.989.542-1.866.991-2.585 1.367-1.44.746-2.276 1.15-2.276 1.15s.723-.588 2.018-1.571c.648-.49 1.43-1.091 2.345-1.756l.349-.256c.136-.081.275-.166.415-.251.143-.081.284-.18.437-.248.155-.066.313-.13.472-.196.315-.152.659-.221 1.01-.308.349-.107.716-.12 1.092-.172.25-.033.505-.03.764-.027.13.002.262.003.396.002.397.043.79.074 1.221.17.431.116.923.258 1.229.425l.263.123.134.062.195.112.511.296c1.375.797 2.827 1.633 4.312 2.528 1.487.892 3.02 1.815 4.565 2.774 1.552.951 3.114 1.94 4.679 2.924 1.558.997 3.116 1.99 4.638 2.988 1.493.973 2.979 1.957 4.457 2.952 1.442.962 2.819 1.923 4.128 2.825 1.314.896 2.538 1.773 3.669 2.58a206.053 206.053 0 015.413 3.985 96.506 96.506 0 012.019 1.573s-.838-.404-2.277-1.153zm-82.553 1.13a.147.147 0 01.02-.083s.16-.272.48-.684a13.622 13.622 0 011.419-1.554c.623-.584 1.374-1.228 2.26-1.783.894-.544 1.947-.962 2.929-1.498.989-.523 1.97-1.058 2.909-1.528.931-.484 1.813-.914 2.567-1.285 1.504-.752 2.525-1.223 2.525-1.223a.124.124 0 01.165.064.126.126 0 01-.034.15s-.865.722-2.19 1.764c-.66.524-1.43 1.137-2.266 1.774-.829.648-1.735 1.309-2.632 1.979-.906.658-1.737 1.436-2.613 2.01-.88.565-1.781.965-2.573 1.278a13.602 13.602 0 01-1.999.61c-.505.11-.816.137-.816.137a.14.14 0 01-.151-.127zm38.207.128s-1.851-.998-4.6-2.54c-1.376-.767-2.984-1.659-4.692-2.636-1.717-.965-3.529-2.027-5.346-3.08-1.811-1.061-3.695-2.006-5.366-3.046a43.585 43.585 0 01-2.349-1.595 51.948 51.948 0 01-2.035-1.543c-.626-.485-1.18-.959-1.674-1.378a39.12 39.12 0 01-1.251-1.128c-.682-.642-1.05-1.044-1.05-1.044a.131.131 0 01.066-.216.123.123 0 01.066.004s.519.157 1.387.498c.435.169.955.387 1.546.648.588.267 1.25.566 1.956.923.706.353 1.47.74 2.257 1.181.793.433 1.61.918 2.443 1.445 1.652 1.068 3.313 2.373 5.048 3.559 1.727 1.197 3.462 2.385 5.069 3.527 1.613 1.132 3.108 2.207 4.391 3.126a340.325 340.325 0 014.264 3.084.126.126 0 01-.001.202.122.122 0 01-.072.024.114.114 0 01-.057-.015z"/></g><defs><clipPath id="clip0"><path fill="#fff" d="M0 0h173v56H0z"/></clipPath></defs></svg>