<svg width="30" height="30" fill="none" xmlns="http://www.w3.org/2000/svg"><path d="M26.25 20.525v4.42a1.25 1.25 0 01-1.163 1.247 20.15 20.15 0 01-1.337.058c-11.046 0-20-8.954-20-20 0-.345.019-.791.058-1.338A1.25 1.25 0 015.054 3.75h4.42a.625.625 0 01.623.563c.028.287.054.516.08.69.248 1.733.757 3.42 1.51 5a.57.57 0 01-.184.71L8.806 12.64a16.309 16.309 0 008.555 8.555l1.925-2.692a.577.577 0 01.716-.187 17.378 17.378 0 005 1.507c.174.024.403.052.688.08a.625.625 0 01.561.622h-.001z" fill="#fff"/></svg>