<svg width="128" height="96" fill="none" xmlns="http://www.w3.org/2000/svg"><path d="M124.357 26.09c-1.895-2.795-5.341-7.022-10.961-11.287C104.714 8.22 89.187.373 64.498.373 39.806.373 24.28 8.22 15.6 14.803 5.528 22.446.995 31.08.995 34.77v58.213a2.646 2.646 0 002.645 2.644h121.717A2.647 2.647 0 00128 92.983V34.77c0-2.11-1.326-5.275-3.643-8.68zM18.801 19.018c8.029-6.09 22.476-13.353 45.697-13.353 23.22 0 37.666 7.262 45.696 13.353 7.497 5.688 11 11.492 12.109 14.273-2.02-2.676-4.891-5.903-8.822-9.159-8.721-7.217-24.302-15.821-48.983-15.821-24.684 0-40.261 8.605-48.984 15.821-3.932 3.256-6.8 6.483-8.82 9.159 1.107-2.78 4.61-8.585 12.107-14.273zm43.052 71.314H24.808v-31.75h37.043v31.75zm42.334 0H67.143v-31.75h37.044v31.75zm5.294 0V55.938a2.646 2.646 0 00-2.651-2.643H22.163a2.645 2.645 0 00-2.647 2.643v34.394H6.288V45.355c0-1.423 3.15-9.326 12.6-17.145 8.052-6.665 22.501-14.607 45.61-14.607 23.108 0 37.557 7.942 45.611 14.607 9.45 7.82 12.596 15.722 12.596 17.145v44.977h-13.224z" fill="#616D7D"/><path d="M56.56 71.813H30.101a2.647 2.647 0 000 5.294H56.56a2.647 2.647 0 000-5.294zm0-7.938H30.101a2.647 2.647 0 000 5.295H56.56a2.648 2.648 0 000-5.295zm0 15.875H30.101a2.647 2.647 0 000 5.295H56.56a2.648 2.648 0 000-5.295zm42.332-7.937H72.435a2.644 2.644 0 00-2.643 2.643 2.646 2.646 0 002.643 2.65h26.457a2.648 2.648 0 100-5.294zm0-7.938H72.435a2.644 2.644 0 00-2.643 2.643 2.646 2.646 0 002.643 2.652h26.457a2.648 2.648 0 100-5.295zm0 15.875H72.435a2.644 2.644 0 00-2.643 2.643 2.646 2.646 0 002.643 2.652h26.457a2.648 2.648 0 100-5.295zm-5.287-52.92H35.391a2.647 2.647 0 00-2.645 2.647V40.06a2.645 2.645 0 002.645 2.646h58.214a2.646 2.646 0 002.644-2.646V29.477a2.647 2.647 0 00-2.644-2.647zM61.852 37.415H38.039v-5.292h23.813v5.292zm29.102 0H67.143v-5.292h23.811v5.292z" fill="#616D7D"/></svg>