<svg width="120" height="120" fill="none" xmlns="http://www.w3.org/2000/svg"><path d="M27.5 120C12.335 120 0 107.66 0 92.5c0-8.17 3.715-16.005 10-21.21V17.5C10 7.85 17.85 0 27.5 0S45 7.85 45 17.5v53.79c6.285 5.205 10 13.04 10 21.21 0 15.16-12.335 27.5-27.5 27.5zm0-115C20.61 5 15 10.61 15 17.5v55c0 .785-.37 1.525-.995 1.995C8.365 78.74 5 85.47 5 92.5 5 104.905 15.095 115 27.5 115S50 104.905 50 92.5c0-7.03-3.365-13.76-9.005-18.005A2.498 2.498 0 0140 72.5v-55C40 10.61 34.39 5 27.5 5z" fill="#616D7D"/><path d="M27.5 105C20.61 105 15 99.395 15 92.5S20.61 80 27.5 80 40 85.605 40 92.5 34.39 105 27.5 105zm0-20c-4.135 0-7.5 3.365-7.5 7.5s3.365 7.5 7.5 7.5 7.5-3.365 7.5-7.5-3.365-7.5-7.5-7.5z" fill="#616D7D"/><path d="M27.5 85a2.5 2.5 0 01-2.5-2.5v-55a2.5 2.5 0 015 0v55a2.5 2.5 0 01-2.5 2.5zm35-65h-5a2.5 2.5 0 010-5h5a2.5 2.5 0 010 5zm0 20h-5a2.5 2.5 0 010-5h5a2.5 2.5 0 010 5zm1 20h-6a2.5 2.5 0 010-5h6a2.5 2.5 0 010 5zm14.836-.072v-2.432h4.416v2.432h-4.416zM88.038 63v-2.208h-4.56V58.52l4.752-6.944h2.848v6.912h1.264v2.304h-1.264V63h-3.04zm0-6.384c0-.373.016-.736.048-1.088h-.064c-.086.17-.182.347-.288.528-.107.181-.219.363-.336.544l-1.248 1.888h1.888v-1.872zm13.877.688c0 1.216-.133 2.261-.4 3.136-.256.875-.688 1.547-1.296 2.016-.597.47-1.408.704-2.432.704-1.429 0-2.474-.517-3.136-1.552-.661-1.035-.992-2.47-.992-4.304 0-1.237.128-2.293.384-3.168.267-.875.704-1.547 1.312-2.016.608-.47 1.419-.704 2.432-.704 1.43 0 2.475.517 3.136 1.552.662 1.035.992 2.48.992 4.336zm-5.184 0c0 1.12.07 1.968.208 2.544.139.565.422.848.848.848.427 0 .71-.283.848-.848.139-.565.208-1.413.208-2.544 0-1.13-.069-1.984-.208-2.56-.138-.576-.421-.864-.848-.864-.426 0-.709.288-.848.864-.138.576-.208 1.43-.208 2.56zm9.364-.16a3.095 3.095 0 01-1.488-.352 2.65 2.65 0 01-1.024-1.008 2.981 2.981 0 01-.368-1.488c0-.555.122-1.045.368-1.472a2.619 2.619 0 011.024-1.024 2.888 2.888 0 011.488-.384c.565 0 1.061.128 1.488.384.437.245.778.587 1.024 1.024.245.427.368.917.368 1.472 0 .555-.123 1.05-.368 1.488a2.663 2.663 0 01-1.024 1.008c-.427.235-.923.352-1.488.352zm0-1.856c.309 0 .554-.09.736-.272.192-.181.288-.421.288-.72 0-.31-.096-.56-.288-.752-.182-.192-.427-.288-.736-.288-.31 0-.56.096-.752.288-.182.192-.272.443-.272.752 0 .299.09.539.272.72.192.181.442.272.752.272zm9.694-1.344c-.726 0-1.296.299-1.712.896-.416.597-.624 1.43-.624 2.496 0 1.077.208 1.899.624 2.464.416.555 1.045.832 1.888.832.501 0 .986-.07 1.456-.208.48-.139.96-.31 1.44-.512v2.608a6.717 6.717 0 01-1.552.48 8.398 8.398 0 01-1.68.16c-1.238 0-2.251-.245-3.04-.736a4.364 4.364 0 01-1.744-2.048c-.374-.885-.56-1.904-.56-3.056 0-1.152.213-2.17.64-3.056a4.839 4.839 0 011.872-2.08c.832-.512 1.84-.768 3.024-.768.554 0 1.136.064 1.744.192.608.128 1.205.33 1.792.608l-.944 2.432a8.41 8.41 0 00-1.264-.496 4.374 4.374 0 00-1.36-.208zM78.728 16.312h2.912v2.096h-2.912v2.816h-2.096v-2.816H73.72v-2.096h2.912v-2.864h2.096v2.864zM87.319 23v-2.208h-4.56V18.52l4.752-6.944h2.848v6.912h1.264v2.304h-1.264V23h-3.04zm0-6.384c0-.373.016-.736.048-1.088h-.064c-.085.17-.181.347-.288.528-.107.181-.219.363-.336.544l-1.248 1.888h1.888v-1.872zm13.878.688c0 1.216-.134 2.261-.4 3.136-.256.875-.688 1.547-1.296 2.016-.598.47-1.408.704-2.432.704-1.43 0-2.475-.517-3.136-1.552-.662-1.035-.992-2.47-.992-4.304 0-1.237.128-2.293.384-3.168.266-.875.704-1.547 1.312-2.016.608-.47 1.418-.704 2.432-.704 1.429 0 2.474.517 3.136 1.552.661 1.035.992 2.48.992 4.336zm-5.184 0c0 1.12.069 1.968.208 2.544.138.565.421.848.848.848.426 0 .709-.283.848-.848.138-.565.208-1.413.208-2.544 0-1.13-.07-1.984-.208-2.56-.139-.576-.422-.864-.848-.864-.427 0-.71.288-.848.864-.139.576-.208 1.43-.208 2.56zm9.363-.16a3.095 3.095 0 01-1.488-.352 2.657 2.657 0 01-1.024-1.008 2.992 2.992 0 01-.368-1.488c0-.555.123-1.045.368-1.472a2.625 2.625 0 011.024-1.024 2.888 2.888 0 011.488-.384c.565 0 1.061.128 1.488.384.437.245.779.587 1.024 1.024.245.427.368.917.368 1.472 0 .555-.123 1.05-.368 1.488a2.657 2.657 0 01-1.024 1.008c-.427.235-.923.352-1.488.352zm0-1.856c.309 0 .555-.09.736-.272.192-.181.288-.421.288-.72 0-.31-.096-.56-.288-.752-.181-.192-.427-.288-.736-.288s-.56.096-.752.288c-.181.192-.272.443-.272.752 0 .299.091.539.272.72.192.181.443.272.752.272zm9.694-1.344c-.725 0-1.296.299-1.712.896-.416.597-.624 1.43-.624 2.496 0 1.077.208 1.899.624 2.464.416.555 1.045.832 1.888.832.501 0 .987-.07 1.456-.208.48-.139.96-.31 1.44-.512v2.608a6.702 6.702 0 01-1.552.48 8.398 8.398 0 01-1.68.16c-1.237 0-2.251-.245-3.04-.736a4.37 4.37 0 01-1.744-2.048c-.373-.885-.56-1.904-.56-3.056 0-1.152.213-2.17.64-3.056a4.851 4.851 0 011.872-2.08c.832-.512 1.84-.768 3.024-.768.555 0 1.136.064 1.744.192.608.128 1.205.33 1.792.608l-.944 2.432a8.368 8.368 0 00-1.264-.496 4.374 4.374 0 00-1.36-.208z" fill="#616D7D"/></svg>