<svg width="155" height="134" fill="none" xmlns="http://www.w3.org/2000/svg"><path d="M22.586 0v4.063h-6.082v6.682h6.082v4.062H6.384v-4.062h6.082V4.063H6.384V0h16.202zm127.483 10.745v4.062h-16.192v-4.062h6.082V4.063h-6.334V0h16.202v4.062h-5.84v6.682h6.082zM41.477 43.916v-3.26H24.56v-4.051h107.071v4.051h-16.917v3.26H112.7v-3.26H90.97v3.26h-2.014v-3.26h-21.73v3.26h-2.014v-3.26h-21.72v3.26h-2.015zm14.641 16.26c0-.536.21-1.05.584-1.431a5.87 5.87 0 01.574-1.503c.23-.417.508-.805.826-1.158a4.01 4.01 0 00-2.848 1.19 4.08 4.08 0 00-1.18 2.872v20.421a4.08 4.08 0 001.18 2.873 4.01 4.01 0 002.848 1.19 6.008 6.008 0 01-1.4-2.661 2.034 2.034 0 01-.584-1.442v-20.35zm4.442.002c0-.444.145-.876.412-1.229.048-.069.102-.133.161-.193a6.027 6.027 0 011.4-2.66 4.011 4.011 0 00-2.848 1.19 4.08 4.08 0 00-1.18 2.872v20.411a4.08 4.08 0 001.18 2.872 4.01 4.01 0 002.848 1.19 6.11 6.11 0 01-1.4-2.66 2.03 2.03 0 01-.584-1.443l.01-20.35zm4.44 0c.012-.449.171-.881.453-1.229.048-.069.102-.133.161-.193.23-.994.713-1.91 1.4-2.66a4.011 4.011 0 00-2.848 1.19 4.08 4.08 0 00-1.18 2.872v20.411a4.08 4.08 0 001.18 2.872 4.01 4.01 0 002.848 1.19 6.11 6.11 0 01-1.4-2.66 2.032 2.032 0 01-.584-1.443L65 60.178zm8.509 13.058v7.373c0 .548-.216 1.073-.6 1.46a2.04 2.04 0 01-2.898 0 2.075 2.075 0 01-.6-1.46V60.177c0-.444.145-.876.412-1.229a2 2 0 012.78-.467l1.47-1.493a3.998 3.998 0 00-4.317-.543 4.04 4.04 0 00-1.687 1.527 4.089 4.089 0 00-.602 2.205v20.39c0 1.088.428 2.13 1.19 2.898a4.046 4.046 0 002.873 1.2 4.046 4.046 0 002.873-1.2 4.115 4.115 0 001.19-2.897v-7.332H73.51zm21.055 47.241a3.318 3.318 0 01-1.035-1.151 3.35 3.35 0 01-.404-1.499v-3.229h-4.421v4.062c.023.668.264 1.311.685 1.828l-3.021 4.569v-.081c.144-.479.148-.99.01-1.472a2.59 2.59 0 00-.786-1.239c-.695-.65-2.165-1.016-2.668-.63-.504.386 1.218 1.168 1.35 2.133.13.964-.746.761-.826 2.437a7.154 7.154 0 00.862 3.513 7.077 7.077 0 002.466 2.63 7 7 0 006.936.288 7.077 7.077 0 002.671-2.417 7.152 7.152 0 00.467-6.985 7.092 7.092 0 00-2.326-2.757h.04zm-4.863 7.982a3.402 3.402 0 01-2.018-.673 3.449 3.449 0 01-1.235-1.744v-.101l4.028-4.458c.113.088.23.169.353.243.764.27 1.409.803 1.82 1.506a3.48 3.48 0 01.426 2.336 3.456 3.456 0 01-1.17 2.06 3.406 3.406 0 01-2.214.811l.01.02z" fill="#616D7D"/><path d="M101.1 100.391v3.046h-4.028v-3.046a3.505 3.505 0 00-1.104 1.26 3.54 3.54 0 00-.396 1.634v2.214h-9.315v-2.214a3.538 3.538 0 00-1.47-2.894v3.046h-4.028v-3.046a3.503 3.503 0 00-1.104 1.26 3.538 3.538 0 00-.396 1.634v10.693c0 .943.371 1.847 1.032 2.513a3.508 3.508 0 004.984 0 3.567 3.567 0 001.032-2.513v-2.153.132l1.763 1.676h5.79l1.762-1.676v-.132 2.204a3.57 3.57 0 001.032 2.513 3.512 3.512 0 002.492 1.041 3.51 3.51 0 002.492-1.041 3.571 3.571 0 001.033-2.513v-10.744a3.537 3.537 0 00-1.007-2.498 3.49 3.49 0 00-.564-.396z" fill="#616D7D"/><path d="M102.963 55.068H78.866l-6.223 6.266v9.87h9.063v31.186h2.014V64.909h-2.014v2.234H76.67v-3.656h28.487v3.656h-4.028v4.061h8.056v-9.87l-6.223-6.266zm2.125 7.87H76.741l3.817-3.808H101.3l3.787 3.808z" fill="#616D7D"/><path d="M98.069 99.894v2.498h2.014V64.91h-2.014v2.234H84.767v4.062h13.302v28.688z" fill="#616D7D"/><path fill-rule="evenodd" clip-rule="evenodd" d="M137.674 17.407a6.722 6.722 0 00-2.256 4.039h-2.961l-8.469 7.87H32.223l-8.519-7.86h-2.668a6.726 6.726 0 00-2.266-4.035 6.622 6.622 0 00-4.32-1.59h-.352a6.697 6.697 0 00-4.03 1.714 6.798 6.798 0 00-2.133 3.85H1.531V40.69h10.805L19.133 61a4.06 4.06 0 001.459 1.994c.68.495 1.498.763 2.337.768h26.477V59.7H22.93l-7.724-23.022H5.56v-11.17h4.27v6.387h9.304v-6.387h3.02l8.47 7.87h94.936l8.469-7.87h3.242v6.387h9.325v-6.387h4.028v11.17h-9.647L133.253 59.7h-19.148v4.062h19.148a4.005 4.005 0 002.337-.742 4.056 4.056 0 001.479-1.97l6.797-20.31h10.785V21.446h-6.092a6.728 6.728 0 00-2.257-4.039 6.623 6.623 0 00-4.314-1.6c-1.581 0-3.11.567-4.314 1.6zm6.947 5.146v7.311h-5.296v-7.311a2.691 2.691 0 01.775-1.889 2.65 2.65 0 011.873-.782 2.625 2.625 0 011.873.782 2.669 2.669 0 01.775 1.889zM17.119 29.864h-5.277l-.01-7.311a2.69 2.69 0 01.714-1.994 2.649 2.649 0 011.93-.841 2.629 2.629 0 011.929.84 2.676 2.676 0 01.714 1.995v7.311z" fill="#616D7D"/></svg>