<svg width="118" height="118" fill="none" xmlns="http://www.w3.org/2000/svg"><path d="M118 59c0-15.558-12.659-28.217-28.217-28.217-1.029 0-2.07.066-3.114.184C84.099 13.335 72.673 0 59 0S33.901 13.335 31.331 30.967a27.834 27.834 0 00-3.114-.184C12.66 30.783 0 43.443 0 59c0 14.694 11.292 26.786 25.652 28.087v25.783H2.565A2.562 2.562 0 000 115.435 2.562 2.562 0 002.565 118h112.87a2.562 2.562 0 002.565-2.565 2.562 2.562 0 00-2.565-2.565H92.348V87.087C106.708 85.786 118 73.694 118 59zM87.159 36.067C100.974 34.443 112.87 45.402 112.87 59c0 12.73-10.356 23.087-23.087 23.087-7.311 0-13.984-3.34-18.314-9.05 4.384-2.937 8.055-7.389 10.757-12.757a42.287 42.287 0 001.347-2.952c.095-.232.2-.455.291-.688.352-.893.67-1.811.97-2.74.136-.425.26-.856.386-1.29.174-.6.338-1.208.49-1.824.11-.444.222-.885.323-1.334a50.48 50.48 0 00.558-2.957c.054-.339.09-.686.137-1.029a54.536 54.536 0 00.359-3.535c.079-1.144.13-2.293.13-3.453 0-.805-.02-1.613-.058-2.41zM59 5.13c11.715 0 21.396 12.678 22.871 29.028l-.002.019c.147 1.398.218 2.85.218 4.301a47.88 47.88 0 01-.108 3.048c-.022.362-.056.715-.09 1.074a50.192 50.192 0 01-.374 3.158c-.082.526-.18 1.042-.277 1.557a44.027 44.027 0 01-.857 3.691c-.005.019-.007.04-.015.057-.16.56-.342 1.103-.521 1.647-.103.31-.2.621-.308.924a36.58 36.58 0 01-.965 2.436c-.223.519-.45 1.035-.695 1.535-.108.22-.225.43-.335.649a33.537 33.537 0 01-1.621 2.829c-.127.195-.245.4-.372.59-.278.413-.573.805-.866 1.197-.192.26-.387.519-.584.77-.293.368-.593.723-.9 1.07-.213.24-.433.475-.653.706-.314.333-.632.667-.962.977-.201.192-.414.364-.622.55a22.396 22.396 0 01-2.056 1.608c-.21.145-.417.302-.63.44-.354.226-.719.421-1.08.624-1.785.985-3.668 1.678-5.633 1.993V54.932l9.51-9.51a2.562 2.562 0 000-3.627 2.562 2.562 0 00-3.628 0l-5.88 5.882v-14.33A2.562 2.562 0 0059 30.784a2.562 2.562 0 00-2.565 2.565v14.329l-5.882-5.882a2.562 2.562 0 00-3.628 0 2.562 2.562 0 000 3.627l9.51 9.51v16.676c-1.966-.316-3.85-1.008-5.635-1.995-.362-.2-.727-.398-1.079-.621-.215-.14-.423-.299-.636-.444a21.864 21.864 0 01-2.05-1.606c-.207-.182-.42-.357-.623-.55a24.656 24.656 0 01-.962-.976c-.22-.23-.438-.463-.651-.706a33.235 33.235 0 01-.901-1.07c-.2-.249-.392-.51-.585-.77a32.992 32.992 0 01-.864-1.197c-.128-.19-.246-.395-.372-.59a33.537 33.537 0 01-1.621-2.83c-.11-.218-.228-.428-.336-.648-.244-.5-.47-1.016-.695-1.535a36.58 36.58 0 01-.964-2.436c-.108-.306-.208-.619-.31-.932a39.318 39.318 0 01-.52-1.642c-.046-.166-.083-.338-.127-.507a44.409 44.409 0 01-.744-3.243c-.098-.515-.198-1.03-.277-1.557a49.614 49.614 0 01-.375-3.158c-.03-.357-.067-.712-.09-1.074a49.91 49.91 0 01-.105-3.043c0-1.451.071-2.903.218-4.305l-.002-.017C37.604 17.808 47.285 5.13 59 5.13zM5.13 59c0-12.73 10.357-23.087 23.087-23.087a22.6 22.6 0 012.625.154 49.764 49.764 0 00-.06 2.411c0 1.16.052 2.309.128 3.451a53.206 53.206 0 00.36 3.535c.046.343.082.687.136 1.028.157 1 .346 1.985.559 2.957.098.453.213.89.323 1.334.154.614.316 1.221.49 1.824.126.433.25.865.386 1.291.3.931.617 1.847.97 2.74.09.233.193.456.291.687.323.782.665 1.547 1.023 2.296.108.22.213.439.324.657 2.701 5.368 6.373 9.82 10.756 12.757-4.327 5.713-11 9.052-18.31 9.052C15.485 82.087 5.13 71.731 5.13 59zm25.653 28.053c8.211-.731 15.535-4.937 20.31-11.66a21.455 21.455 0 005.342 1.387v36.09H30.783V87.053zm30.782 25.817V76.78a21.645 21.645 0 005.341-1.388c4.773 6.724 12.097 10.93 20.311 11.661v25.817H61.565z" fill="#616D7D"/></svg>