<svg width="95" height="95" fill="none" xmlns="http://www.w3.org/2000/svg"><g clip-path="url(#clip0)" fill="#616D7D"><path d="M91.06 90.97v-4.329H3.985v4.542H37.84c.678 0 1.526-.043 2.034.255.509.297 1.06 1.146.975 1.655-.085.637-.72 1.358-1.271 1.698-.467.297-1.23.17-1.865.17H3.391c-3.008 0-3.39-.382-3.39-3.438v-5.731c0-2.59.466-3.056 3.093-3.099.551 0 1.102-.042 1.823-.085v-14.39c-.255-.127-.467-.254-.636-.254-4.237-.297-4.237-.297-4.237-4.457 0-1.826-.17-3.694.084-5.519.127-.806 1.144-2.08 1.78-2.08 7.797.127 14.619-3.566 21.822-5.56 5.848-1.614 11.568-3.609 17.373-5.434.254-.085.508-.212.636-.297-.594-1.57-1.272-3.014-1.695-4.542-.34-1.274 0-2.547 1.525-2.76 1.398-.212 1.907.807 2.161 2.08.466 2.378 1.95 3.651 3.983 3.524a3.732 3.732 0 003.56-3.311c.254-2.08-.933-3.778-3.263-4.202-1.865-.34-2.5-1.316-2.373-3.057.085-1.316 0-2.632 0-3.905-.466-.127-.678-.212-.848-.255-4.788-.382-4.788-.382-5.762-5.094-.382-1.782-.763-3.608-1.144-5.39-.72-3.524-.509-3.863 3.22-4.458V4.206c0-.722-.212-1.528.085-2.08.423-.807 1.186-1.443 1.822-2.165.635.722 1.737 1.4 1.822 2.165.212 2.801.084 5.645.084 8.49v2.674h5.212V2.932c-.042-1.443.17-2.929 1.95-2.929s1.864 1.529 1.864 2.972c-.042 3.396 0 6.792 0 10.272.593.085 1.06.17 1.525.255 1.568.17 2.33 1.019 1.992 2.59-.678 3.395-1.44 6.749-2.119 10.145-.254 1.316-1.017 1.952-2.373 1.952H49.62c-.381 2.08-.466 3.396 1.695 4.542 4.237 2.208 4.873 6.834 1.78 11.886 2.839.934 5.635 1.825 8.39 2.717 8.135 2.546 16.27 5.178 24.448 7.64 2.034.595 4.28.68 6.441.807 1.865.085 2.712.849 2.627 2.717-.085 2.122 0 4.244 0 6.367 0 2.717-.296 3.014-3.05 3.056-.551 0-1.102.085-1.823.127v14.348c.17.085.255.212.382.212 5.508.043 4.406 1.104 4.491 4.967.043 1.273 0 2.547 0 3.82 0 3.226-.339 3.566-3.474 3.566h-65.17c-1.313 0-2.288-.552-2.288-1.953 0-1.4.975-1.867 2.288-1.867h46.526c5.847 0 11.737 0 17.584-.043.127.043.255-.042.594-.127zm-5-22.879H9.028v14.475H86.06V68.09zm5.043-8.362H3.984v4.287h87.119v-4.287zm-70.17-4.457c.043.084.085.17.128.297h52.754C67.544 53.19 61.145 51.45 55 49.116c-5.084-1.952-9.745-1.952-14.83 0-6.314 2.377-12.84 4.118-19.238 6.156zm20.975-37.865c.678 7.09.678 7.09 7.373 7.09.508 0 1.06.127 1.483-.043.508-.213 1.186-.595 1.271-1.019.509-1.953.848-3.948 1.271-6.028H41.908z"/><path fill-rule="evenodd" clip-rule="evenodd" d="M16 77a2 2 0 100-4 2 2 0 000 4zm7 0a2 2 0 100-4 2 2 0 000 4zm9-2a2 2 0 11-4 0 2 2 0 014 0zm5 2a2 2 0 100-4 2 2 0 000 4zm9-2a2 2 0 11-4 0 2 2 0 014 0zm5 2a2 2 0 100-4 2 2 0 000 4zm9-2a2 2 0 11-4 0 2 2 0 014 0zm5 2a2 2 0 100-4 2 2 0 000 4zm9-2a2 2 0 11-4 0 2 2 0 014 0zm5 2a2 2 0 100-4 2 2 0 000 4z"/></g><defs><clipPath id="clip0"><path fill="#fff" d="M0 0h95v95H0z"/></clipPath></defs></svg>