<svg width="155" height="133" fill="none" xmlns="http://www.w3.org/2000/svg"><path d="M22.586 63.763V59.7h-6.082v-6.682h6.082v-4.062H6.384v4.062h6.082V59.7H6.384v4.062h16.202zm127.483-10.744v-4.062h-16.192v4.062h6.082v6.682h-6.334v4.062h16.202V59.7h-5.84v-6.682h6.082zm-14.651-10.703a6.722 6.722 0 002.256 4.038 6.623 6.623 0 004.314 1.601c1.581 0 3.11-.567 4.314-1.6a6.728 6.728 0 002.257-4.04h6.092V23.022h-10.785l-6.797-20.31a4.057 4.057 0 00-1.479-1.97A4.005 4.005 0 00133.253 0H22.929a4.005 4.005 0 00-2.337.768 4.06 4.06 0 00-1.46 1.994l-6.796 20.31H1.53v19.294h6.404a6.799 6.799 0 002.133 3.851 6.698 6.698 0 004.03 1.714h.352a6.623 6.623 0 004.32-1.59 6.726 6.726 0 002.266-4.036h2.668l8.52-7.86H52.09v-4.061H30.622l-8.468 7.87h-3.021v-6.388H9.828v6.388h-4.27v-11.17h9.647L22.93 4.061h110.324l7.723 23.021h9.647v11.17h-4.028v-6.387h-9.325v6.388h-3.242l-8.469-7.87H111.2v4.062h12.788l8.469 7.87h2.961zm3.907-8.419h5.296v7.312a2.691 2.691 0 01-.775 1.888 2.644 2.644 0 01-1.873.782 2.632 2.632 0 01-1.873-.782 2.669 2.669 0 01-.775-1.888v-7.312zm-127.483 0h5.277v7.312a2.693 2.693 0 01-.714 1.994 2.65 2.65 0 01-1.93.841 2.629 2.629 0 01-1.93-.841 2.674 2.674 0 01-.713-1.994l.01-7.312z" fill="#616D7D"/><path d="M41.477 8.082v3.26H24.56v4.052h107.071v-4.052h-16.917v-3.26H112.7v3.26H90.97v-3.26h-2.014v3.26h-21.73v-3.26h-2.014v3.26h-21.72v-3.26h-2.015zm14.641 21.51c0-.536.21-1.05.584-1.431a5.868 5.868 0 01.574-1.503 6.19 6.19 0 01.826-1.158 4.01 4.01 0 00-2.848 1.19 4.08 4.08 0 00-1.18 2.872v20.421a4.08 4.08 0 001.18 2.873 4.01 4.01 0 002.848 1.19 6.008 6.008 0 01-1.4-2.661 2.034 2.034 0 01-.584-1.442v-20.35zm4.442 0c0-.444.145-.876.412-1.229.048-.069.102-.133.161-.193a6.027 6.027 0 011.4-2.66 4.01 4.01 0 00-2.848 1.19 4.08 4.08 0 00-1.18 2.872v20.411a4.08 4.08 0 001.18 2.872 4.011 4.011 0 002.848 1.19 6.11 6.11 0 01-1.4-2.66 2.031 2.031 0 01-.584-1.442l.01-20.351zm4.44 0c.012-.449.172-.88.453-1.229.048-.069.102-.133.161-.193a5.92 5.92 0 011.4-2.66 4.01 4.01 0 00-2.848 1.19 4.08 4.08 0 00-1.18 2.872v20.411a4.08 4.08 0 001.18 2.872 4.011 4.011 0 002.848 1.19 6.11 6.11 0 01-1.4-2.66 2.031 2.031 0 01-.584-1.442L65 29.592zm8.509 13.058v7.373c0 .548-.216 1.073-.6 1.46a2.04 2.04 0 01-2.898 0 2.076 2.076 0 01-.6-1.46V29.59c0-.444.145-.876.412-1.229a2.001 2.001 0 012.78-.467l1.47-1.493a3.998 3.998 0 00-4.317-.543 4.04 4.04 0 00-1.687 1.528 4.088 4.088 0 00-.602 2.204v20.391c0 1.087.428 2.129 1.19 2.897a4.046 4.046 0 002.873 1.2 4.046 4.046 0 002.873-1.2 4.115 4.115 0 001.19-2.897V42.65H73.51zm21.056 76.437a3.325 3.325 0 01-1.036-1.151 3.356 3.356 0 01-.404-1.5v-3.229h-4.421v4.062c.023.669.264 1.311.685 1.828l-3.021 4.57v-.082a2.608 2.608 0 00-.775-2.711c-.695-.65-2.166-1.015-2.669-.63-.504.386 1.218 1.168 1.35 2.133.13.965-.746.762-.826 2.437a7.158 7.158 0 00.862 3.514 7.092 7.092 0 002.466 2.63 7.006 7.006 0 006.936.287 7.069 7.069 0 002.671-2.417 7.163 7.163 0 00.467-6.985 7.097 7.097 0 00-2.326-2.756h.04zm-4.864 7.981a3.395 3.395 0 01-2.017-.673 3.45 3.45 0 01-1.236-1.743v-.102l4.028-4.458c.113.088.23.17.353.244.764.269 1.41.802 1.82 1.506a3.477 3.477 0 01-.745 4.396 3.41 3.41 0 01-2.213.81l.01.02z" fill="#616D7D"/><path d="M101.1 99v3.046h-4.028V99a3.503 3.503 0 00-1.104 1.261 3.535 3.535 0 00-.396 1.633v2.214h-9.315v-2.214A3.54 3.54 0 0084.787 99v3.046H80.76V99a3.534 3.534 0 00-1.5 2.894v10.693c0 .943.371 1.847 1.032 2.513a3.508 3.508 0 002.492 1.042c.935 0 1.831-.375 2.492-1.042a3.567 3.567 0 001.033-2.513v-2.153.132l1.762 1.676h5.79l1.762-1.676v-.132 2.204c0 .943.371 1.847 1.032 2.513a3.508 3.508 0 004.985 0 3.567 3.567 0 001.032-2.513v-10.744a3.54 3.54 0 00-1.007-2.498A3.554 3.554 0 00101.1 99z" fill="#616D7D"/><path d="M102.963 24.484H78.866l-6.223 6.266v9.87h9.063v60.186h2.014V34.325h-2.014v2.234H76.67v-3.656h28.487v3.656h-4.028v4.062h8.056V30.75l-6.223-6.266zm2.125 7.87H76.741l3.817-3.808H101.3l3.787 3.808z" fill="#616D7D"/><path d="M98.069 98.308v2.498h2.014V34.324h-2.014v2.234H84.767v4.062h13.302v57.688z" fill="#616D7D"/></svg>