<svg width="112" height="96" fill="none" xmlns="http://www.w3.org/2000/svg"><path fill-rule="evenodd" clip-rule="evenodd" d="M57.07.636l53.439 27.88a2.329 2.329 0 011.249 2.06v9.293a2.33 2.33 0 01-1.12 1.988 2.334 2.334 0 01-2.28.073l-5.895-3.077v52.128h2.325a2.323 2.323 0 010 4.646H7.208a2.323 2.323 0 110-4.646H9.53V38.853L3.635 41.93a2.33 2.33 0 01-2.28-.073 2.325 2.325 0 01-1.117-1.988v-9.293c0-.866.48-1.66 1.246-2.06L54.923.636a2.324 2.324 0 012.147 0zm-33.6 90.346h9.294v-.003h4.645v.003h9.295v-.003h4.645v.003h9.295v-.003h4.645v.003h9.294v-.003h4.646v.003h9.294v-.003h4.646v.003h4.649V36.429L55.998 14.61l-41.82 21.819v54.553h4.646v-.003h4.645v.003zm33.6-81.053l50.039 26.108v-4.053L55.998 5.317 4.884 31.984v4.053L54.923 9.93a2.322 2.322 0 012.147 0z" fill="#616D7D"/></svg>