<svg width="100" height="98" fill="none" xmlns="http://www.w3.org/2000/svg"><path d="M16.538 23.663h0l-1.46 1.46-.452.453-.33-.549-7.333-12.222a4.976 4.976 0 01.75-6.087l8.825 16.945zm0 0a2.372 2.372 0 013.401.05C38.986 43.91 39.695 44.585 40.267 45.361c.114.155.223.313.47.63l.347.447.401-.4 4.356-4.356.4-.4-.446-.348c-.246-.192-.41-.306-.542-.398l-.014-.01a4.174 4.174 0 01-.352-.266c-.271-.23-.7-.654-1.808-1.814a1634.032 1634.032 0 01-6.182-6.553c-2.88-3.06-6.83-7.259-12.288-13.046h0a2.37 2.37 0 01.048-3.303s0 0 0 0l1.46-1.46.453-.452M16.538 23.663L26.57 13.632m0 0l-.55-.33m.55.33l-.55-.33m0 0L13.8 5.97s0 0 0 0m12.222 7.333L13.799 5.97m0 0a4.975 4.975 0 00-6.087.75l6.087-.75zM86.06 65.581h0l.041.03c.028.02.036.025.104.088.11.105.33.32.824.812l2.65 2.65c1.16 1.162 2.706 2.708 4.768 4.77l.354-.353-.354.353c6.05 6.05 5.229 16.053-1.765 21.09-2.282 1.643-5.003 2.448-7.767 2.448-3.769 0-7.605-1.495-10.492-4.382l-4.925-4.923-2.03-2.03c-.83-.83-.844-.85-.872-.886l-.013-.016-18.316-22.259-.35-.425-.39.39-7.866 7.866-.224.223.106.298c2.516 7.06.778 15.057-4.604 20.438a19.623 19.623 0 01-22.302 3.83 2.372 2.372 0 01-.655-3.816l-.354-.353.354.353 7.426-7.425-.354-.354.354.354a3.369 3.369 0 000-4.767h0a3.374 3.374 0 00-4.767 0h0l-7.425 7.426a2.372 2.372 0 01-3.816-.655c-3.571-7.477-2.033-16.44 3.83-22.302l-.354-.353.354.353c5.381-5.382 13.378-7.12 20.438-4.604l.297.106.224-.224 9.212-9.21.331-.332-.31-.352a3.597 3.597 0 00-.059-.066.43.43 0 01-.039-.046c-.26-.335-.409-.538-.562-.738-.78-1.016-1.698-1.926-18.245-19.472l-.353-.374-.364.364-1.97 1.97a2.372 2.372 0 01-3.708-.457h0L2.898 15.244h0A9.709 9.709 0 014.36 3.366a9.708 9.708 0 0111.878-1.462l.257-.429-.257.429 15.374 9.225a2.372 2.372 0 01.457 3.708h0l-2.088 2.089-.344.343.334.353c4.078 4.325 7.206 7.648 9.618 10.21 3.477 3.694 5.469 5.81 6.684 7.077 1.027 1.07 1.514 1.55 1.883 1.866.21.181.396.318.614.48.147.107.308.226.502.377l.349.271.312-.312L60.32 27.204l.224-.224-.106-.298c-2.516-7.06-.778-15.056 4.604-20.438 5.862-5.862 14.825-7.4 22.302-3.829h0A2.372 2.372 0 0188 6.23l.353.354L88 6.23l-7.426 7.426a3.369 3.369 0 000 4.766h0a3.374 3.374 0 004.767 0l7.425-7.425h0a2.372 2.372 0 013.815.654c3.572 7.477 2.033 16.44-3.829 22.303-5.38 5.38-13.377 7.12-20.438 4.604l-.298-.106-.224.223-9.007 9.007-.411.41.467.346 23.22 17.143zM18.7 91.765l-.708.708.991.14a14.872 14.872 0 0012.604-4.203 14.878 14.878 0 002.904-16.906 2.37 2.37 0 01.463-2.698l34.841-34.839a2.37 2.37 0 012.698-.462h0A14.878 14.878 0 0089.4 30.6a14.886 14.886 0 004.202-12.604l-.14-.992-.708.709-4.062 4.06c-3.162 3.163-8.309 3.163-11.47.001a8.056 8.056 0 01-2.377-5.736c0-2.167.843-4.203 2.376-5.736l-.353-.353.353.353 4.061-4.06.709-.709-.992-.14a14.885 14.885 0 00-12.604 4.202 14.878 14.878 0 00-2.903 16.907 2.37 2.37 0 01-.463 2.698L30.187 64.04a2.37 2.37 0 01-2.698.462 14.878 14.878 0 00-16.906 2.904A14.886 14.886 0 006.38 80.01l.14.992.709-.709 4.06-4.06c3.163-3.163 8.31-3.163 11.472 0l.354-.354-.354.353a8.106 8.106 0 010 11.472l-4.061 4.06zM51.595 58.87l-.357.357.36.354.02.018c.042.039.063.058.651.773.306.37.761.924 1.45 1.761l3.522 4.282.35.425.39-.39 8.626-8.626.41-.41-.466-.346-7.221-5.33-.346-.256-.305.304-7.084 7.084zm18.562 23.242l.015.018.017.017 7.587 7.587c3.35 3.35 8.562 4.013 12.136 1.44a9.115 9.115 0 001.183-13.892l-7.966-7.967-.027-.026-.03-.022-11.851-8.75-.347-.256-.304.304-9.632 9.633-.32.32.287.35 9.252 11.244z" fill="#616D7D" stroke="#F1F1F1"/><path d="M74.797 70.075h0l11.482 11.482a2.37 2.37 0 01-3.353 3.352L71.444 73.427a2.37 2.37 0 013.353-3.352z" fill="#616D7D" stroke="#F1F1F1"/></svg>