<svg width="96" height="96" fill="none" xmlns="http://www.w3.org/2000/svg"><path d="M88.493 13.47v.001l-43.406 43.29-.368.368-.353-.383-15.66-17.008a3.12 3.12 0 00-4.406-.182L88.493 13.47zm0 0a3.117 3.117 0 114.402 4.416h0l-46.07 45.95a3.122 3.122 0 01-2.202.91l-.056-.001h0-.01a3.114 3.114 0 01-2.228-1.006h0m46.164-50.268L42.329 63.739m0 0L24.12 43.962s0 0 0 0m18.21 19.777L24.12 43.962m0 0a3.118 3.118 0 01.18-4.406l-.18 4.406z" fill="#616D7D" stroke="#F1F1F1"/><path d="M89.264 48a3.118 3.118 0 116.236 0c0 26.19-21.31 47.5-47.5 47.5C21.809 95.5.5 74.19.5 48 .5 21.809 21.809.5 48 .5a3.118 3.118 0 110 6.236C25.247 6.736 6.736 25.247 6.736 48c0 22.754 18.511 41.264 41.264 41.264 22.754 0 41.264-18.51 41.264-41.264z" fill="#616D7D" stroke="#F1F1F1"/></svg>