<svg width="94" height="121" fill="none" xmlns="http://www.w3.org/2000/svg"><path d="M13.815 38.846c-.396 3.486-.898 6.602-1.11 9.771-.316 4.516.634 8.741 3.328 12.465a7.95 7.95 0 001.452 1.531c1.796 1.427 3.354 1.32 5.07-.264 2.906-2.693 3.038-6.073 2.536-9.639-.396-2.825-1.03-5.65-1.136-8.477-.317-9.533 3.75-16.98 11.356-22.552a83.079 83.079 0 014.463-3.037c4.621-2.931 5.968-7.13 4.859-12.306-.45-2.06-.925-4.093-1.426-6.338 3.644 1.901 7.236 3.46 10.14 6.153 3.75 3.46 5.44 7.817 4.939 12.808-.423 4.278-1.347 8.503-2.034 12.729-.818 4.938-.396 9.665 2.773 13.811 1.585 2.06 3.67 3.433 6.312 3.697 3.195.343 5.968-1.61 7.447-5.202 1.531-3.724 1.531-7.632 1.188-11.567-.238-2.588-.607-5.15-.95-8.002.448.423.712.66.977.898 9.19 8.45 13.864 19.41 17.006 31.162 1.69 6.311 2.641 12.728 2.14 19.304-1.453 18.486-13.046 38.212-33.935 43.441-17.667 4.41-33.459.74-46.135-12.94C6.235 98.898 2.327 89.972.716 80.069c-1.347-8.266-.871-16.4 2.086-24.295 1.902-5.07 5.07-9.322 8.372-13.495.792-1.056 1.61-2.112 2.64-3.433zm36.179-29.26c-.132.159-.185.185-.185.211-.027.132-.027.264-.027.396.08 4.728-1.901 8.398-5.73 11.118-2.192 1.558-4.463 2.984-6.602 4.595-5.678 4.305-8.847 9.983-8.768 17.166.053 3.327.713 6.628 1.162 9.929.713 5.097-.449 9.507-4.383 13.02-3.222 2.877-7.316 3.036-10.696.395-2.931-2.297-4.542-5.44-5.651-8.873-.264-.845-.475-1.69-.766-2.694-.185.291-.29.37-.343.476-.264.607-.555 1.188-.792 1.796-3.037 8.028-3.301 16.267-1.506 24.533 2.377 11.038 7.712 20.36 16.954 27.121 8.266 6.074 17.667 8.133 27.808 7.315 11.17-.925 20.466-5.572 27.49-14.313 8.372-10.432 11.91-22.395 10.168-35.73-1.215-9.27-4.173-18.01-8.583-26.276-.185-.344-.422-.66-.819-1.242-.396 3.724-1.109 6.972-3.036 9.824-2.747 4.067-6.523 6.127-11.461 5.36-5.282-.818-8.715-4.092-10.96-8.74-2.482-5.15-2.35-10.537-1.215-16.003.82-3.962 1.849-7.896 1.48-11.99-.318-2.878-1.427-5.334-3.54-7.394z" fill="#616D7D"/><path d="M22.794 71.249c.633 1.901 1.24 3.829 1.9 5.73 1.268 3.618 3.302 6.76 6.735 8.662 1.558.871 3.407 1.532 5.176 1.743 4.833.634 8.292-3.301 7.21-8.16-.608-2.72-1.69-5.335-2.668-7.975-1.77-4.727-3.988-9.296-5.387-14.129-2.245-7.658-.37-14.524 5.308-20.228 1.69-1.717 3.512-3.301 5.572-5.203 0 1.849.026 3.354 0 4.86-.08 6.179 1.637 11.83 5.202 16.848 1.69 2.403 3.592 4.674 5.52 6.892 3.565 4.12 7.341 8.081 10.827 12.254 2.588 3.09 4.357 6.68 5.678 10.484 1.769 5.07 1.346 9.956-1.004 14.709-3.83 7.737-10.22 12.306-18.512 14.128-9.348 2.06-18.221.792-26.17-4.806-6.338-4.489-10.035-10.643-10.484-18.486-.132-2.297.079-4.727.713-6.919 1.056-3.591 2.64-7.024 3.987-10.536.132.052.264.079.397.132zM42.23 42.86c-2.509 3.935-2.958 8.054-2.113 12.412.898 4.516 2.879 8.635 4.727 12.808 1.558 3.538 3.116 7.05 3.75 10.933 1.083 6.602-3.618 12.596-10.273 13.019-6.047.37-10.668-2.35-14.418-6.84-.37-.449-.74-.95-1.268-1.637-.132 1.135-.29 2.007-.317 2.852-.211 7.394 3.01 13.072 9.005 17.192 5.73 3.934 12.174 5.07 18.988 4.278 5.968-.687 11.223-2.958 15.237-7.527 4.648-5.281 6.259-11.25 3.037-17.878-1.162-2.35-2.35-4.78-3.988-6.787-3.406-4.199-7.103-8.16-10.721-12.174-3.962-4.384-7.685-8.952-9.771-14.577-.713-1.954-1.215-3.961-1.875-6.074z" fill="#616D7D"/></svg>