<svg width="115" height="115" fill="none" xmlns="http://www.w3.org/2000/svg"><path d="M100.519 53.252L67.967 32.998A10.487 10.487 0 0069 28.492c.235-3.497-1.713-6.994-4.905-9.247-2.7-1.76-4.154-4.506-4.154-7.51V0h-4.905v11.758c0 4.506 2.44 8.989 6.595 11.758 1.713 1.01 2.699 3.004 2.699 5 0 3.238-3.192 6.008-6.595 6.008-2.16.14-6.994-1.315-6.853-6.243H46c0 1.736.422 3.403 1.15 4.858L14.762 53.252H0V115h115V53.252h-14.481zm-50.2-16.194a11.497 11.497 0 007.181 2.488c2.793 0 5.351-.962 7.346-2.558l26.168 16.288H24.291l26.027-16.218zM15.77 109.837H5.046V58.251H15.77v51.586zm15.866 0H20.653V58.251h10.984v51.586zm15.607 0H36.518V58.251h10.726v51.586zm15.607 0H52.126V58.251H62.85v51.586zm15.63 0H67.757V58.251h10.726v51.586zm15.866 0H83.363V58.251h10.984v51.586zm15.607 0H99.229V58.251h10.725v51.586z" fill="#616D7D"/></svg>