<svg width="129" height="130" fill="none" xmlns="http://www.w3.org/2000/svg"><g clip-path="url(#clip0)" fill="#616D7D"><path d="M36 97.2c.5.3 1 .4 1.6.4.3 0 .6 0 .9-.1.8-.2 1.4-.8 1.8-1.5.7-1.4.5-3.4-1.2-4.3-1.5-.8-3.3-.4-4.2 1.1l-.1.1c-.8 1.3-.5 3.4 1.2 4.3zM129 20V0H0v20h11.5v-4.3H4.2V4.3h120.5v11.5H65.1V20h.8v58.8c0 2.7 2.2 4.9 4.9 4.9h6.7V86c0 1.7 1.4 3.2 3.1 3.2H105c.5 0 1-.1 1.5-.2v27.3H104c-3.8 0-6.9 3.1-6.9 7v6.7h27.1c2.3 0 4.1-1.9 4.1-4.1V64.3c0-2.7-1.3-5.2-3.4-6.7-.1-.1-.3-.2-.4-.3.8-.5 1.6-1 2.3-1.7 1.5-1.3 2.3-3.1 2.3-5.1v-9.9c0-2-.8-3.8-2.3-5.1-2.6-2.3-5.9-3.5-9.3-3.5-3.4 0-6.7 1.3-9.3 3.6-1.5 1.3-2.3 3.1-2.3 5.1v9.9c0 1.9.8 3.8 2.3 5.1.7.6 1.4 1.2 2.2 1.6-1.4.9-2.6 2.1-3.4 3.4l-8 13.9H80.6c-1.7 0-3.1 1.4-3.1 3.2v1.7h-6.7c-.4 0-.7-.3-.7-.7V20H129zm-11.6 39.5c1.8 0 3.5.5 5 1.6 1 .7 1.6 1.9 1.6 3.2v17.8l-8.1 43.7h-14.7v-2.4c0-1.5 1.2-2.7 2.7-2.7h6.7V85.9l.1-.1 7.8-13.5-3.7-2.1-7.8 13.5c-.5.8-1.3 1.3-2.2 1.3H81.7v-6.1h19.6l9.2-16c1.2-2.1 4-3.4 6.9-3.4zm7.4-9c0 .7-.3 1.4-.9 1.9-1.8 1.6-4.1 2.5-6.5 2.5-2.4 0-4.7-.9-6.5-2.5-.6-.5-.9-1.2-.9-1.9v-9.9c0-.7.3-1.4.9-1.9 1.8-1.6 4.1-2.5 6.5-2.5 2.4 0 4.7.9 6.6 2.5.6.5.8 1.1.8 1.9v9.9zm-4.5 75.2l3.8-20.5v20.5h-3.8z"/><path d="M14.9 20.3l5.5 5.6h3.8v68.6c0 6.6 4.8 12.1 11.1 13.2v2.3c-4.6 1-7.9 5.1-7.9 9.9 0 5.6 4.5 10.1 10.1 10.1s10.1-4.5 10.1-10.1v-.5h-4.2v.5c0 3.2-2.6 5.9-5.8 5.9-3.2 0-5.8-2.6-5.8-5.9 0-3.2 2.6-5.9 5.8-5.9h2.1v-6.4c6.4-1 11.1-6.6 11.1-13.2V25.9h3.9l.6-.6c1.6-1.7 2.6-2.6 4.3-4.4l.6-.6V10H14.9v10.3zm13.6 64.3V25.9h18v58.8c-2.4-2.3-5.7-3.6-9-3.6s-6.5 1.3-9 3.5zm9.1.7c5 0 9 4.1 9 9.1s-4 9.1-9 9.1-9-4.1-9-9.1 4-9.1 9-9.1zM56 14.2v4.3l-3.1 3.1H22.2l-3.1-3.1v-4.3H56z"/></g><defs><clipPath id="clip0"><path fill="#fff" d="M0 0h129v130H0z"/></clipPath></defs></svg>