<svg width="95" height="95" fill="none" xmlns="http://www.w3.org/2000/svg"><path d="M95 11.083v-9.5c0-.02-.01-.037-.011-.057a1.565 1.565 0 00-.11-.549l-.002-.004c-.006-.014-.017-.025-.024-.04a1.555 1.555 0 00-.282-.419 1.561 1.561 0 00-.121-.109 1.54 1.54 0 00-.33-.222A1.512 1.512 0 0093.416 0H42.75c-.42 0-.822.167-1.12.464L.465 41.63l-.002.003c-.127.132-.23.285-.305.452a2.046 2.046 0 00-.137.567c-.003.034-.02.063-.02.098v9.5c0 .874.709 1.583 1.583 1.583h11.875a7.133 7.133 0 017.125 7.125v1.72L.464 82.797c-.295.298-.461.7-.464 1.12v9.5C0 94.29.709 95 1.583 95H52.25c.214 0 .425-.043.621-.128.021-.009.037-.028.057-.038.169-.078.322-.184.453-.315l.016-.01 31.64-33.223 9.5-9.5c.296-.297.463-.7.463-1.12v-9.5c0-.02-.01-.036-.011-.056a1.565 1.565 0 00-.11-.55l-.002-.004c-.006-.014-.017-.025-.024-.039a1.64 1.64 0 00-.732-.75 1.516 1.516 0 00-.704-.184H81.542a1.52 1.52 0 00-.396.08 1.538 1.538 0 00-.396-.08 7.11 7.11 0 01-7.065-6.53l20.85-20.85c.296-.297.463-.7.465-1.12zM43.406 3.167h46.188l-38 38H5.406l38-38zM20.583 67.156v8.052a7.133 7.133 0 01-7.125 7.125H5.406l15.177-15.177zm30.084 24.677h-47.5V85.5h10.292c5.68-.007 10.285-4.61 10.291-10.292v-14.25c-.006-5.681-4.61-10.285-10.291-10.291H3.167v-6.334h47.5v6.334H40.375c-5.681.006-10.285 4.61-10.292 10.291v14.25c.007 5.681 4.61 10.285 10.292 10.292h10.292v6.333zm41.166-41.822l-9.064 9.064-28.936 30.383V84.55l31.203-32.764 6.797-6.797v5.022zM80.75 42.75a1.53 1.53 0 00.396-.08c.128.044.26.07.395.08h8.053l-6.825 6.825-31.198 32.758H40.375a7.133 7.133 0 01-7.125-7.125v-14.25a7.133 7.133 0 017.125-7.125H52.25c.42-.001.822-.168 1.12-.464l17.633-17.633a10.303 10.303 0 009.747 7.014zm11.083-32.322l-20.91 20.91-.001.001-17.089 17.089v-5.022l38-38v5.022z" fill="#616D7D"/><path d="M40.19 74.45a1.583 1.583 0 00-1.73.346c-.29.304-.454.705-.46 1.125a1.583 1.583 0 003.166 0 1.583 1.583 0 00-.975-1.472zm6.101-6.7a1.583 1.583 0 00-1.52.446l-1.583 1.659a1.584 1.584 0 002.292 2.186l1.583-1.66a1.584 1.584 0 00-.772-2.631zm4.813-6.19l-1.583 1.66a1.584 1.584 0 102.291 2.186l1.584-1.659a1.584 1.584 0 00-2.292-2.186zm6.334-6.634l-1.583 1.66a1.584 1.584 0 102.292 2.185l1.583-1.659a1.584 1.584 0 00-2.292-2.186zm7.853-7.083a1.584 1.584 0 00-1.52.45l-1.584 1.658a1.583 1.583 0 102.291 2.187l1.584-1.66a1.584 1.584 0 00-.77-2.635zm3.769-4.903c-.595.246-.98.828-.977 1.471-.007.417.16.819.46 1.109a1.58 1.58 0 001.124.474 1.582 1.582 0 001.124-.474c.3-.29.466-.692.46-1.109a1.638 1.638 0 00-.46-1.124 1.583 1.583 0 00-1.732-.347z" fill="#616D7D"/></svg>