<svg width="85" height="139" fill="none" xmlns="http://www.w3.org/2000/svg"><path fill-rule="evenodd" clip-rule="evenodd" d="M43.5 61.5a9.98 9.98 0 00-10 10 9.98 9.98 0 0010 10 9.98 9.98 0 0010-10 9.98 9.98 0 00-10-10zm-5.691 10a5.672 5.672 0 015.691-5.692 5.672 5.672 0 015.691 5.692 5.672 5.672 0 01-5.691 5.692 5.672 5.672 0 01-5.691-5.692zm5.691 16a9.98 9.98 0 00-10 10 9.98 9.98 0 0010 10 9.98 9.98 0 0010-10 9.98 9.98 0 00-10-10zm-5.691 10a5.672 5.672 0 015.691-5.692 5.672 5.672 0 015.691 5.692 5.672 5.672 0 01-5.691 5.692 5.672 5.672 0 01-5.691-5.692z" fill="#616D7D"/><path fill-rule="evenodd" clip-rule="evenodd" d="M20.77.5H16.5V1c0 12.51 6.846 18.965 11.92 23.75l.047.044.003.003c.364.342.717.673 1.059.998 1.865 1.771 3.397 3.328 4.572 5.127 1.038 1.59 1.812 3.401 2.178 5.74H33.86c-.668 0-1.316.22-1.847.605a3.038 3.038 0 00-1.269 2.48V46.5H20.56c-3.89 0-7.059 3.129-7.059 6.99v9.455L2.93 73.562l-.002.003A7.983 7.983 0 00.5 79.333V138.5h43.142v-14.713H67.46c3.886 0 7.04-3.172 7.04-7.07V108.5h2.487c4.148 0 7.513-3.416 7.513-7.599V68.099c0-4.183-3.365-7.599-7.513-7.599H74.5v-7.01c0-3.861-3.17-6.99-7.059-6.99H56.5v-6.753a3.106 3.106 0 00-3.116-3.086h-2.752c-1.027-11.52-7.456-17.557-12.362-22.143-2.425-2.28-4.254-4.025-5.532-6.042C31.518 6.55 30.765 4.301 30.765 1V.5h-4.27V1c0 4.042.952 7.081 2.627 9.727 1.602 2.53 3.83 4.624 6.144 6.8l.07.065.003.003c5.083 4.752 10.802 10.194 11.148 21.248l.064 2.051h5.68v5.373H35.014v-5.373h5.837l-.094-2.206c-.18-4.2-1.308-7.363-3.073-10.066-1.693-2.593-3.943-4.705-6.186-6.81l-.09-.086h-.001C26.398 17 20.769 11.636 20.769 1V.5zm49.497 52.99v7.01h-1.254c-4.148 0-7.513 3.416-7.513 7.599V100.9c0 4.183 3.365 7.599 7.513 7.599h1.263v8.217a2.829 2.829 0 01-2.816 2.831H20.712a2.829 2.829 0 01-2.816-2.831v-34.98l7.212-7.244c3.173-3.188 3.173-8.415 0-11.602-1.992-2.001-4.786-2.746-7.375-2.235V53.49c0-1.531 1.265-2.79 2.826-2.79H67.44c1.561 0 2.826 1.259 2.826 2.79zM80.292 93.5v-7H65.708v7h14.584zm0-11v-7H65.708v7h14.584zm0-14.401V71.5H65.708v-3.401c0-1.849 1.493-3.351 3.305-3.351h7.974c1.812 0 3.305 1.502 3.305 3.35zm0 29.401H65.708v3.401c0 1.849 1.493 3.351 3.305 3.351h7.974c1.812 0 3.305-1.502 3.305-3.351V97.5zm-63.75-31.613c1.523-1.531 4.054-1.531 5.578 0 1.525 1.532 1.525 4.078 0 5.61l-8.448 8.486v36.734c0 3.898 3.154 7.07 7.04 7.07h18.706v10.474H4.724V79.333c0-1.022.383-1.99 1.149-2.73l.011-.01 10.657-10.706z" fill="#616D7D"/></svg>