<svg width="138" height="121" fill="none" xmlns="http://www.w3.org/2000/svg"><g clip-path="url(#clip0)" fill="#616D7D"><path d="M69 120.954c-10.434 0-20.867-.047-31.3.046-2.551 0-4.174-.973-5.426-3.105C21.841 99.775 11.407 81.655.927 63.628-.278 61.59-.325 59.921.881 57.882 11.268 39.855 21.655 21.874 31.903 3.846 33.48 1.112 35.381 0 38.581 0c20.635.093 41.27.046 61.905 0 2.272 0 3.756.88 4.869 2.827a21113.9 21113.9 0 0031.857 55.055c.973 1.714 1.066 3.197.046 4.958a15541.314 15541.314 0 00-31.671 55.194c-1.206 2.132-2.875 2.966-5.287 2.966-10.433-.093-20.867-.046-31.3-.046zm-.232-4.171c10.109.046 20.218 0 30.373.093 1.669 0 2.597-.51 3.431-1.993 10.109-17.657 20.218-35.313 30.42-52.97.695-1.158.603-1.992-.047-3.104A11990.507 11990.507 0 01102.48 6.163c-.928-1.622-1.902-1.993-3.617-1.993-19.94.046-39.88.092-59.772.046-1.902 0-2.875.603-3.803 2.225C25.226 24.052 15.07 41.615 4.962 59.179c-.603 1.02-.742 1.761-.047 2.92 10.248 17.656 20.496 35.36 30.651 53.062.789 1.344 1.67 1.715 3.107 1.715 10.016-.14 20.079-.093 30.095-.093z" stroke="#616D7D"/><path d="M61.331 80.597A676.887 676.887 0 0167 85.622c-6.01 7.495-18.242 8.542-25.658 2.303-8.738-7.286-8.44-18.633.852-28.556-4.646-4.23-7.544-9.254-6.692-15.66.597-4.606 2.472-8.751 6.223-11.766 6.223-5.024 17.518-6.197 24.891 2.177-1.875 1.675-3.708 3.35-5.668 5.067-2.302-2.094-4.817-3.517-8.013-3.434-5.285.126-9.633 4.439-9.675 9.714-.043 5.067 4.134 9.38 9.334 9.589 2.6.084 5.2 0 7.928 0v8.542c-3.155.167-6.18.167-9.164.586-4.646.628-7.46 3.559-8.397 8.207-.767 3.726 1.279 8.123 4.731 10.258a10.56 10.56 0 0011.806-.502c.555-.46 1.109-.963 1.833-1.55zm26.087.8c-1.705 2.686-3.24 4.946-4.69 7.334-2.216 3.668-5.67 4.478-9.55 4.137-.425-.043-1.108-.853-1.108-1.365-.127-1.961-.042-3.966-.042-5.97 0-1.066.469-1.28 1.535-1.492 1.193-.214 2.6-.853 3.367-1.791 1.791-2.175 3.326-4.606 4.775-7.037.384-.597.341-1.833-.042-2.473-1.364-2.346-2.771-4.648-4.52-6.695-.81-.981-2.259-1.663-3.495-1.92-1.194-.212-1.578-.596-1.535-1.705.043-1.791 0-3.54-.043-5.33-.042-1.408.512-2.09 2.004-2.09 3.794 0 6.907 1.28 9.038 4.606 1.45 2.26 2.857 4.562 4.477 7.121 1.577-2.559 3.069-4.819 4.519-7.164 2.131-3.54 5.414-4.648 9.251-4.35.554.043 1.492.768 1.534 1.194.171 2.474.086 4.947.086 7.719-3.41-.768-4.86 1.364-6.267 3.582-1.066 1.706-2.345 3.24-3.24 4.99-.384.682-.427 1.96 0 2.643 1.364 2.388 2.856 4.776 4.604 6.866.98 1.151 2.686 1.663 4.05 2.473.298-.17.554-.34.853-.512 0 2.516.085 5.032-.086 7.548-.042.427-.852 1.152-1.364 1.195-3.709.426-6.906-.64-9.08-3.881-1.748-2.388-3.24-4.862-5.031-7.633z"/></g><defs><clipPath id="clip0"><path fill="#fff" d="M0 0h138v121H0z"/></clipPath></defs></svg>