<svg width="135" height="44" fill="none" xmlns="http://www.w3.org/2000/svg"><g clip-path="url(#clip0)" fill="#fff"><path d="M0 24.29h2.47v9.742c0 .64.107 1.24.322 1.805a4.343 4.343 0 002.37 2.484c.563.244 1.193.367 1.89.367.703 0 1.337-.123 1.9-.367a4.234 4.234 0 001.435-1.002c.394-.424.697-.918.908-1.482a5.112 5.112 0 00.316-1.806V24.29H12.7v9.742c0 .769-.121 1.493-.364 2.171a4.72 4.72 0 01-1.146 1.79c-.52.513-1.187.919-2 1.218-.813.298-1.79.447-2.93.447-1.013 0-1.91-.15-2.691-.447-.781-.299-1.436-.706-1.963-1.224a5.12 5.12 0 01-1.198-1.81A5.957 5.957 0 010 33.98v-9.69zm16.13 0h1.382l9.638 10.97h.095V24.29h1.087v15.367h-.57l-10.44-12.21h-.084v11.855H16.13V24.289zm15.897 0h2.47v15.012h-2.47V24.289zm11.279 14.074a4.71 4.71 0 01-1.631-1.498c-.436-.639-.765-1.399-.987-2.28a11.806 11.806 0 01-.333-2.882c0-1.027.111-1.97.333-2.829.221-.858.55-1.598.987-2.22a4.613 4.613 0 011.63-1.45c.652-.344 1.407-.517 2.265-.517.838 0 1.58.173 2.228.517.647.345 1.19.829 1.63 1.45.44.622.774 1.362 1.003 2.22.229.859.343 1.802.343 2.83 0 1.041-.114 1.984-.343 2.828-.229.844-.565 1.574-1.008 2.188a5.214 5.214 0 01-1.636 1.481c-.648.374-1.387.607-2.217.7-.86 0-1.614-.179-2.264-.538zM53.487 44zm0 0v-.399a5.63 5.63 0 01-2.038-.372 7.342 7.342 0 01-1.768-.964 6.835 6.835 0 01-1.367-1.342c-.38-.5-.65-.997-.813-1.493a6.6 6.6 0 001.679-.587 7.622 7.622 0 001.467-.975 8.358 8.358 0 002.729-4.435 7.384 7.384 0 00.206-1.73 7.69 7.69 0 00-.274-2.058 7.567 7.567 0 00-.787-1.853 7.713 7.713 0 00-2.85-2.786 8.292 8.292 0 00-4.101-1.061 8.353 8.353 0 00-4.111 1.061 7.46 7.46 0 00-1.61 1.212 7.848 7.848 0 00-1.23 1.574 7.574 7.574 0 00-.787 1.853 7.684 7.684 0 00-.274 2.058c0 .827.141 1.65.422 2.469a8.68 8.68 0 001.177 2.274 8.239 8.239 0 001.8 1.815c.69.511 1.471.88 2.301 1.084.267.33.607.675 1.019 1.034.411.36.876.711 1.393 1.056.544.36 1.108.688 1.69.98a16.17 16.17 0 001.91.82c.674.24 1.366.427 2.069.56.708.136 1.427.204 2.147.205zm11.749-12.156c0 1.056.154 2.001.464 2.834.31.834.735 1.54 1.277 2.118a5.45 5.45 0 001.927 1.326 6.281 6.281 0 002.412.458 3.75 3.75 0 001.488-.308 5.796 5.796 0 001.335-.797 6.62 6.62 0 001.103-1.11c.324-.413.592-.832.803-1.255l1.034.678a10 10 0 01-1.071 1.455c-.42.475-.902.89-1.43 1.234a7.37 7.37 0 01-1.837.857c-.683.216-1.447.324-2.29.324-.81 0-1.574-.096-2.292-.286a8.304 8.304 0 01-1.979-.798 7.339 7.339 0 01-1.615-1.233 7.545 7.545 0 01-1.203-1.59 7.922 7.922 0 01-1.019-3.906 7.938 7.938 0 011.04-3.928 7.684 7.684 0 012.87-2.868 8.339 8.339 0 012.001-.813 8.937 8.937 0 012.322-.292 6.89 6.89 0 012.159.324c.658.215 1.26.5 1.805.857.534.346 1.022.76 1.451 1.234.408.448.772.935 1.088 1.455l-1.066.733c-.62-1.215-1.31-2.106-2.07-2.673-.76-.567-1.632-.851-2.618-.851-.851 0-1.646.158-2.385.474-.73.31-1.388.773-1.931 1.358-.55.589-.982 1.304-1.299 2.144-.316.84-.474 1.789-.474 2.845zm17.374-.356v-6.261h2.175c.45 0 .866.075 1.246.226.38.15.707.361.982.63.274.27.49.593.644.97.155.378.231.789.231 1.235 0 .488-.096.93-.29 1.325a2.938 2.938 0 01-.807 1.008c-.345.276-.751.49-1.22.64a4.97 4.97 0 01-1.535.227H82.61zm-2.47 7.814h2.47v-7.06h1.732l5.11 7.06h2.86l-5.352-7.285a6.029 6.029 0 001.467-.556c.443-.24.824-.524 1.14-.85.31-.317.559-.69.734-1.1.172-.406.258-.843.258-1.31 0-.567-.112-1.09-.337-1.568a3.424 3.424 0 00-1.003-1.239c-.443-.349-.998-.62-1.662-.814-.666-.194-1.442-.29-2.329-.29h-5.087v15.012zM99.1 27.383l2.67 5.938h-5.415l2.745-5.938zm.348-3.438l-7.083 15.357H93.6l2.322-5.012h6.302l2.249 5.012h2.512l-6.925-15.357h-.612zm9.437.345h1.382l9.638 10.97H120V24.29h1.087v15.367h-.57l-10.44-12.21h-.084V39.3h-1.108V24.29zm26.115 0v.97h-7.749v5.366h5.184v.97h-5.184v6.735H135v.97h-10.219V24.29H135zM70.121 10.47a2.918 2.918 0 01-.731-.095.152.152 0 01-.102-.166s.023-.15.094-.36a2.87 2.87 0 01.144-.353c.06-.128.133-.262.224-.395.18-.264.408-.542.718-.735.315-.184.73-.251 1.085-.411.364-.152.722-.311 1.071-.437.346-.135.675-.25.956-.349.564-.194.953-.304.953-.304a.098.098 0 01.105.036.106.106 0 01-.004.132s-.266.307-.686.74c-.21.214-.455.466-.725.722-.263.266-.562.525-.855.792-.297.257-.54.607-.839.814-.305.2-.65.287-.962.336a2.72 2.72 0 01-.423.033h-.023zM99.46 20.66c-.496-.28-1.232-.677-2.153-1.208a449.69 449.69 0 01-7.611-4.43A446.858 446.858 0 0184.648 12c-1.783-1.083-3.67-2.217-5.6-3.423-1.934-1.204-3.946-2.423-5.962-3.707l-3.052-1.93-.698-.44c-.258-.126-.574-.315-.741-.33-.103-.026-.185-.066-.302-.09l-.368-.063a1.698 1.698 0 00-.375-.037l-.379-.019c-.503.03-1.023.07-1.474.25-.245.06-.434.188-.645.286-.233.135-.506.317-.757.471l-3.053 1.927c-2.017 1.285-4.03 2.5-5.964 3.703-1.932 1.204-3.819 2.337-5.605 3.417a425.845 425.845 0 01-5.048 3.02 439.955 439.955 0 01-7.616 4.42c-.92.53-1.657.927-2.153 1.206-.498.277-.764.423-.764.423l.708-.513c.464-.333 1.136-.833 2.007-1.447a442.484 442.484 0 017.234-5.045 440.93 440.93 0 014.873-3.306c1.735-1.163 3.56-2.396 5.469-3.64 1.906-1.245 3.86-2.56 5.877-3.845 1.006-.647 2.018-1.3 3.036-1.954.26-.166.492-.325.78-.497.328-.174.658-.368 1-.465.68-.262 1.38-.335 2.079-.371l.526.027c.174.008.349.02.523.059l.524.097c.178.039.377.115.563.177.424.133.623.277.907.417l.026.012.096.056.047.032.097.062.19.123.381.245 3.035 1.958c2.013 1.29 3.967 2.605 5.873 3.851 1.907 1.246 3.73 2.482 5.466 3.647a446.946 446.946 0 014.87 3.31 455.852 455.852 0 017.23 5.05c.87.614 1.543 1.115 2.005 1.448l.708.513-.763-.424zm-81.801-.814a160.113 160.113 0 014.245-3.139c.886-.638 1.846-1.327 2.876-2.033 1.026-.711 2.106-1.467 3.236-2.224 1.16-.784 2.325-1.56 3.495-2.325 1.194-.786 2.417-1.569 3.638-2.353 1.227-.774 2.452-1.552 3.668-2.302a281.09 281.09 0 013.58-2.185c1.164-.705 2.304-1.362 3.38-1.992.14-.079.255-.155.414-.236.16-.077.322-.154.482-.233.156-.085.322-.12.483-.173.161-.045.32-.1.481-.129C48.28.412 48.9.364 49.49.436c.146.017.291.031.435.047l.42.097c.14.037.272.05.41.108l.407.16c.285.1.457.239.667.358l.18.109.139.103.272.202c.715.523 1.329.998 1.836 1.384 1.013.776 1.58 1.24 1.58 1.24s-.655-.32-1.782-.911c-.562-.297-1.249-.653-2.023-1.082l-.297-.16-.136-.076c.01.008.023.016.006.006l-.01-.004-.02-.009-.04-.017-.08-.034c-.212-.085-.449-.217-.647-.237-.204-.047-.402-.108-.647-.123a63.663 63.663 0 00-.353-.043l-.366.004c-.493-.009-1 .093-1.496.232-.124.035-.238.097-.359.14-.118.05-.247.083-.35.157-.11.062-.218.127-.329.191-.11.065-.25.17-.374.253-1.027.712-2.106 1.468-3.238 2.226-1.158.784-2.323 1.56-3.494 2.324-1.194.787-2.415 1.57-3.636 2.354-1.226.776-2.45 1.555-3.667 2.304a271.375 271.375 0 01-3.58 2.186c-1.163.704-2.302 1.362-3.38 1.992a149.3 149.3 0 01-3.05 1.745 154.28 154.28 0 01-4.627 2.516c-1.127.59-1.784.907-1.784.907s.568-.463 1.58-1.239zM87.8 2.286l-.005-.002.005.003zm28.96 17.893a158.408 158.408 0 01-4.605-2.51 147.73 147.73 0 01-3.038-1.74c-1.072-.628-2.206-1.283-3.365-1.986a270.154 270.154 0 01-3.563-2.179c-1.211-.748-2.43-1.523-3.651-2.296-1.216-.783-2.433-1.562-3.62-2.348a262.632 262.632 0 01-3.48-2.318c-1.125-.755-2.2-1.51-3.22-2.219a71.03 71.03 0 00-.38-.264l-.048-.034-.023-.016-.008-.005-.063-.037-.198-.111c-.28-.183-.477-.212-.69-.31-.222-.079-.487-.13-.728-.186-.25-.019-.498-.075-.742-.067-.49-.007-.967.04-1.396.155l-.322.081c-.106.03-.197.081-.295.12-.097.04-.194.082-.288.122l-.294.158c-.772.425-1.457.778-2.018 1.073-1.123.586-1.776.903-1.776.903s.564-.461 1.575-1.234c.505-.384 1.115-.857 1.83-1.379l.272-.201c.106-.064.215-.13.324-.198.112-.063.222-.141.34-.195l.37-.153c.245-.12.514-.174.787-.243.273-.084.559-.093.852-.135.195-.026.394-.024.597-.02.101 0 .204.002.308 0 .31.035.617.059.953.135.337.09.72.202.96.333l.205.097.104.048.152.089.4.232c1.073.627 2.205 1.284 3.364 1.986 1.16.701 2.357 1.426 3.563 2.18 1.21.748 2.43 1.524 3.65 2.298 1.217.783 2.433 1.563 3.62 2.347 1.165.764 2.325 1.538 3.478 2.32 1.125.755 2.2 1.51 3.221 2.22 1.026.703 1.981 1.392 2.863 2.027a161.92 161.92 0 014.225 3.13 77.054 77.054 0 011.575 1.236s-.654-.317-1.777-.906zm-64.42.889a.117.117 0 01.016-.066s.125-.213.373-.537a10.42 10.42 0 011.108-1.22c.487-.46 1.073-.966 1.764-1.402.698-.428 1.52-.756 2.286-1.177.772-.411 1.537-.831 2.27-1.2.727-.38 1.414-.719 2.003-1.01a75.682 75.682 0 011.97-.961c.05-.023.106 0 .129.05a.1.1 0 01-.026.117s-.676.568-1.71 1.387c-.515.412-1.115.893-1.768 1.394-.647.509-1.353 1.028-2.053 1.554-.707.518-1.356 1.129-2.04 1.58-.687.444-1.39.758-2.007 1.004a10.45 10.45 0 01-1.56.48 5.413 5.413 0 01-.637.107.108.108 0 01-.08-.025.111.111 0 01-.038-.075zm29.815.1s-1.445-.784-3.59-1.996c-1.073-.603-2.328-1.303-3.662-2.071-1.34-.758-2.753-1.592-4.171-2.42-1.413-.834-2.883-1.576-4.187-2.394a33.96 33.96 0 01-1.833-1.252 40.496 40.496 0 01-1.588-1.212c-.489-.382-.921-.754-1.306-1.084a30.65 30.65 0 01-.977-.886c-.532-.504-.82-.82-.82-.82a.104.104 0 01.007-.145.097.097 0 01.096-.022s.405.124 1.083.391c.34.133.745.305 1.207.51.458.21.975.445 1.526.725a40.525 40.525 0 013.667 2.064c1.29.838 2.586 1.864 3.94 2.795 1.348.941 2.701 1.875 3.955 2.772 1.26.889 2.425 1.734 3.427 2.456 1.115.8 2.224 1.607 3.327 2.423a.098.098 0 01.034.11.098.098 0 01-.09.067.09.09 0 01-.045-.011z"/></g><defs><clipPath id="clip0"><path fill="#fff" d="M0 0h135v44H0z"/></clipPath></defs></svg>