<svg width="21" height="49" fill="none" xmlns="http://www.w3.org/2000/svg"><path d="M5.978 5.449C4.304 4.295 3.62 2.02 4.207 0L6.04 1.263C7.714 2.417 8.398 4.69 7.811 6.71L5.978 5.449z" fill="url(#paint0_linear)"/><path d="M6.734 13.021l-.208.067a4.94 4.94 0 01-.944-.888l-1.8-2.21c2.082-1.018 4.687-.512 6.185 1.328l1.474 1.809a7.16 7.16 0 00-4.707-.106z" fill="url(#paint1_linear)"/><path d="M7.575 35.233l1.933-2.102a4.75 4.75 0 01-.275 6.136L7.47 41.185a7.025 7.025 0 00-.517-5.097 4.8 4.8 0 01.622-.855z" fill="url(#paint2_linear)"/><path d="M14.085 36.161l1.074-2.617a4.89 4.89 0 012.674-2.663 5.109 5.109 0 012.865-.32l-1.075 2.616a4.895 4.895 0 01-2.674 2.664 5.131 5.131 0 01-2.864.32z" fill="url(#paint3_linear)"/><path d="M16.761 28.296l.087-2.815c.04-1.296.6-2.5 1.572-3.39A5.042 5.042 0 0121 20.84l-.088 2.816c-.04 1.296-.6 2.5-1.572 3.389a5.026 5.026 0 01-2.579 1.25z" fill="url(#paint4_linear)"/><path d="M3.914 45.609a5.285 5.285 0 013.983-.407 5.237 5.237 0 012.613 1.722l-2.74 1.455a5.298 5.298 0 01-3.983.406 5.233 5.233 0 01-2.644-1.779l2.772-1.397z" fill="url(#paint5_linear)"/><path d="M2.783 39.18l2.71-1.437a5.201 5.201 0 01-2.541 6.163l-2.73 1.377a5.203 5.203 0 012.56-6.102z" fill="url(#paint6_linear)"/><path d="M16.502 20.017l-.91-2.673c-.76-2.226.242-4.613 2.265-5.737l.911 2.674c.757 2.226-.244 4.613-2.266 5.736z" fill="url(#paint7_linear)"/><path d="M10.727 40.56a5.038 5.038 0 013.451-1.616c1-.06 1.965.173 2.806.65l-1.933 2.101a5.033 5.033 0 01-3.451 1.617 5.07 5.07 0 01-2.806-.649l1.933-2.103z" fill="url(#paint8_linear)"/><path d="M11.24 24.712l-.205-.078a4.75 4.75 0 01-.134-1.27l.087-2.814a5.01 5.01 0 012.498 1.397 4.738 4.738 0 011.359 3.475l-.072 2.311a6.913 6.913 0 00-3.533-3.02z" fill="url(#paint9_linear)"/><path d="M13.298 32.825l-.883 2.15a6.704 6.704 0 00-2.255-4.012l-.165-.143a4.72 4.72 0 01.322-1.236l1.074-2.615c1.95 1.237 2.802 3.677 1.907 5.856z" fill="url(#paint10_linear)"/><path d="M9.255 17.328l-.91-2.674a5.088 5.088 0 012.84.485 4.88 4.88 0 012.505 2.814l.745 2.189a7.079 7.079 0 00-4.386-1.66l-.22-.006a4.863 4.863 0 01-.574-1.148z" fill="url(#paint11_linear)"/><path d="M13.34 12.325l-1.8-2.21a4.751 4.751 0 01.104-6.142l1.799 2.21a4.724 4.724 0 011.042 3.576 4.738 4.738 0 01-1.146 2.566z" fill="url(#paint12_linear)"/><defs><linearGradient id="paint0_linear" x1="10.5" y1="0" x2="10.5" y2="49" gradientUnits="userSpaceOnUse"><stop stop-color="#B5212E"/><stop offset="1" stop-color="#fff"/></linearGradient><linearGradient id="paint1_linear" x1="10.5" y1="0" x2="10.5" y2="49" gradientUnits="userSpaceOnUse"><stop stop-color="#B5212E"/><stop offset="1" stop-color="#fff"/></linearGradient><linearGradient id="paint2_linear" x1="10.5" y1="0" x2="10.5" y2="49" gradientUnits="userSpaceOnUse"><stop stop-color="#B5212E"/><stop offset="1" stop-color="#fff"/></linearGradient><linearGradient id="paint3_linear" x1="10.5" y1="0" x2="10.5" y2="49" gradientUnits="userSpaceOnUse"><stop stop-color="#B5212E"/><stop offset="1" stop-color="#fff"/></linearGradient><linearGradient id="paint4_linear" x1="10.5" y1="0" x2="10.5" y2="49" gradientUnits="userSpaceOnUse"><stop stop-color="#B5212E"/><stop offset="1" stop-color="#fff"/></linearGradient><linearGradient id="paint5_linear" x1="10.5" y1="0" x2="10.5" y2="49" gradientUnits="userSpaceOnUse"><stop stop-color="#B5212E"/><stop offset="1" stop-color="#fff"/></linearGradient><linearGradient id="paint6_linear" x1="10.5" y1="0" x2="10.5" y2="49" gradientUnits="userSpaceOnUse"><stop stop-color="#B5212E"/><stop offset="1" stop-color="#fff"/></linearGradient><linearGradient id="paint7_linear" x1="10.5" y1="0" x2="10.5" y2="49" gradientUnits="userSpaceOnUse"><stop stop-color="#B5212E"/><stop offset="1" stop-color="#fff"/></linearGradient><linearGradient id="paint8_linear" x1="10.5" y1="0" x2="10.5" y2="49" gradientUnits="userSpaceOnUse"><stop stop-color="#B5212E"/><stop offset="1" stop-color="#fff"/></linearGradient><linearGradient id="paint9_linear" x1="10.5" y1="0" x2="10.5" y2="49" gradientUnits="userSpaceOnUse"><stop stop-color="#B5212E"/><stop offset="1" stop-color="#fff"/></linearGradient><linearGradient id="paint10_linear" x1="10.5" y1="0" x2="10.5" y2="49" gradientUnits="userSpaceOnUse"><stop stop-color="#B5212E"/><stop offset="1" stop-color="#fff"/></linearGradient><linearGradient id="paint11_linear" x1="10.5" y1="0" x2="10.5" y2="49" gradientUnits="userSpaceOnUse"><stop stop-color="#B5212E"/><stop offset="1" stop-color="#fff"/></linearGradient><linearGradient id="paint12_linear" x1="10.5" y1="0" x2="10.5" y2="49" gradientUnits="userSpaceOnUse"><stop stop-color="#B5212E"/><stop offset="1" stop-color="#fff"/></linearGradient></defs></svg>