<svg width="21" height="49" fill="none" xmlns="http://www.w3.org/2000/svg"><path d="M15.022 5.449C16.696 4.295 17.38 2.02 16.793 0L14.96 1.263c-1.674 1.154-2.358 3.427-1.771 5.448l1.833-1.262z" fill="url(#paint0_linear)"/><path d="M14.266 13.021l.208.067c.351-.253.67-.551.944-.888l1.8-2.21c-2.082-1.018-4.687-.512-6.185 1.328l-1.474 1.809a7.16 7.16 0 014.707-.106z" fill="url(#paint1_linear)"/><path d="M13.425 35.233l-1.933-2.102a4.75 4.75 0 00.275 6.136l1.763 1.918a7.025 7.025 0 01.517-5.097 4.803 4.803 0 00-.622-.855z" fill="url(#paint2_linear)"/><path d="M6.915 36.161l-1.074-2.617a4.89 4.89 0 00-2.674-2.663 5.109 5.109 0 00-2.865-.32l1.075 2.616a4.895 4.895 0 002.674 2.664 5.13 5.13 0 002.864.32z" fill="url(#paint3_linear)"/><path d="M4.239 28.296l-.087-2.815a4.77 4.77 0 00-1.572-3.39A5.042 5.042 0 000 20.84l.088 2.816c.04 1.296.6 2.5 1.572 3.389a5.026 5.026 0 002.579 1.25z" fill="url(#paint4_linear)"/><path d="M17.086 45.609a5.285 5.285 0 00-3.983-.407 5.237 5.237 0 00-2.613 1.722l2.741 1.455a5.298 5.298 0 003.983.406 5.233 5.233 0 002.644-1.779l-2.772-1.397z" fill="url(#paint5_linear)"/><path d="M18.217 39.18l-2.71-1.437a5.201 5.201 0 002.541 6.163l2.73 1.377a5.203 5.203 0 00-2.56-6.102z" fill="url(#paint6_linear)"/><path d="M4.498 20.017l.91-2.673c.76-2.226-.242-4.613-2.265-5.737l-.911 2.674c-.757 2.226.244 4.613 2.266 5.736z" fill="url(#paint7_linear)"/><path d="M10.273 40.56a5.038 5.038 0 00-3.452-1.616c-1-.06-1.964.173-2.805.65l1.933 2.101A5.033 5.033 0 009.4 43.312a5.07 5.07 0 002.806-.649l-1.933-2.103z" fill="url(#paint8_linear)"/><path d="M9.76 24.712l.205-.078c.1-.415.147-.84.134-1.27l-.087-2.814a5.01 5.01 0 00-2.498 1.397 4.738 4.738 0 00-1.359 3.475l.072 2.311a6.913 6.913 0 013.533-3.02z" fill="url(#paint9_linear)"/><path d="M7.702 32.825l.883 2.15a6.704 6.704 0 012.255-4.012l.165-.143a4.72 4.72 0 00-.322-1.236L9.609 26.97c-1.95 1.237-2.802 3.677-1.907 5.856z" fill="url(#paint10_linear)"/><path d="M11.745 17.328l.91-2.674a5.088 5.088 0 00-2.84.485 4.88 4.88 0 00-2.505 2.814l-.745 2.189a7.079 7.079 0 014.386-1.66l.22-.006c.24-.356.434-.741.574-1.148z" fill="url(#paint11_linear)"/><path d="M7.66 12.325l1.8-2.21a4.751 4.751 0 00-.104-6.142l-1.799 2.21a4.724 4.724 0 00-1.042 3.576c.115.96.515 1.845 1.146 2.566z" fill="url(#paint12_linear)"/><defs><linearGradient id="paint0_linear" x1="10.5" y1="0" x2="10.5" y2="49" gradientUnits="userSpaceOnUse"><stop stop-color="#B5212E"/><stop offset="1" stop-color="#fff"/></linearGradient><linearGradient id="paint1_linear" x1="10.5" y1="0" x2="10.5" y2="49" gradientUnits="userSpaceOnUse"><stop stop-color="#B5212E"/><stop offset="1" stop-color="#fff"/></linearGradient><linearGradient id="paint2_linear" x1="10.5" y1="0" x2="10.5" y2="49" gradientUnits="userSpaceOnUse"><stop stop-color="#B5212E"/><stop offset="1" stop-color="#fff"/></linearGradient><linearGradient id="paint3_linear" x1="10.5" y1="0" x2="10.5" y2="49" gradientUnits="userSpaceOnUse"><stop stop-color="#B5212E"/><stop offset="1" stop-color="#fff"/></linearGradient><linearGradient id="paint4_linear" x1="10.5" y1="0" x2="10.5" y2="49" gradientUnits="userSpaceOnUse"><stop stop-color="#B5212E"/><stop offset="1" stop-color="#fff"/></linearGradient><linearGradient id="paint5_linear" x1="10.5" y1="0" x2="10.5" y2="49" gradientUnits="userSpaceOnUse"><stop stop-color="#B5212E"/><stop offset="1" stop-color="#fff"/></linearGradient><linearGradient id="paint6_linear" x1="10.5" y1="0" x2="10.5" y2="49" gradientUnits="userSpaceOnUse"><stop stop-color="#B5212E"/><stop offset="1" stop-color="#fff"/></linearGradient><linearGradient id="paint7_linear" x1="10.5" y1="0" x2="10.5" y2="49" gradientUnits="userSpaceOnUse"><stop stop-color="#B5212E"/><stop offset="1" stop-color="#fff"/></linearGradient><linearGradient id="paint8_linear" x1="10.5" y1="0" x2="10.5" y2="49" gradientUnits="userSpaceOnUse"><stop stop-color="#B5212E"/><stop offset="1" stop-color="#fff"/></linearGradient><linearGradient id="paint9_linear" x1="10.5" y1="0" x2="10.5" y2="49" gradientUnits="userSpaceOnUse"><stop stop-color="#B5212E"/><stop offset="1" stop-color="#fff"/></linearGradient><linearGradient id="paint10_linear" x1="10.5" y1="0" x2="10.5" y2="49" gradientUnits="userSpaceOnUse"><stop stop-color="#B5212E"/><stop offset="1" stop-color="#fff"/></linearGradient><linearGradient id="paint11_linear" x1="10.5" y1="0" x2="10.5" y2="49" gradientUnits="userSpaceOnUse"><stop stop-color="#B5212E"/><stop offset="1" stop-color="#fff"/></linearGradient><linearGradient id="paint12_linear" x1="10.5" y1="0" x2="10.5" y2="49" gradientUnits="userSpaceOnUse"><stop stop-color="#B5212E"/><stop offset="1" stop-color="#fff"/></linearGradient></defs></svg>