<svg width="61" height="66" fill="none" xmlns="http://www.w3.org/2000/svg"><path fill-rule="evenodd" clip-rule="evenodd" d="M61 0H0v61h25.57l4.631 4.63 4.63-4.63H61V0z" fill="#B5212E"/><path d="M10.457 24.517h1.847v7.235c0 .474.08.921.24 1.34a3.24 3.24 0 001.772 1.844c.421.182.892.273 1.413.273.526 0 1-.091 1.42-.273a3.167 3.167 0 001.752-1.844c.158-.419.237-.866.237-1.34v-7.234h.813v7.234c0 .57-.09 1.108-.272 1.612a3.503 3.503 0 01-.856 1.329c-.39.381-.888.682-1.496.904-.608.222-1.338.332-2.19.332-.758 0-1.428-.11-2.012-.332a4.205 4.205 0 01-1.468-.909 3.798 3.798 0 01-.896-1.343 4.396 4.396 0 01-.304-1.633v-7.195zm12.06 0h1.033l7.206 8.147h.07v-8.147h.814V35.93h-.426l-7.806-9.067h-.063v8.803h-.828V24.517zm11.885 0h1.846v11.148h-1.846V24.517zm8.433 10.452a3.51 3.51 0 01-1.22-1.113c-.326-.474-.572-1.039-.738-1.692a8.705 8.705 0 01-.248-2.14c0-.764.083-1.464.248-2.101.166-.638.412-1.187.738-1.649a3.44 3.44 0 011.22-1.076c.486-.256 1.05-.384 1.693-.384.626 0 1.181.128 1.665.384s.89.615 1.22 1.076c.328.462.578 1.011.749 1.649.17.637.256 1.337.256 2.1a7.97 7.97 0 01-.256 2.1 4.955 4.955 0 01-.754 1.625 3.88 3.88 0 01-1.223 1.1 4.24 4.24 0 01-1.657.52c-.643 0-1.207-.133-1.693-.4zm7.611 4.185v-.297a4.239 4.239 0 01-1.523-.276 5.498 5.498 0 01-1.322-.716 5.091 5.091 0 01-1.022-.996 3.786 3.786 0 01-.608-1.109 4.957 4.957 0 001.256-.436c.392-.198.76-.44 1.096-.724a6.188 6.188 0 002.04-3.293c.103-.424.155-.852.155-1.284a5.603 5.603 0 00-.793-2.905 5.75 5.75 0 00-2.131-2.068 6.242 6.242 0 00-3.066-.788 6.27 6.27 0 00-3.074.787c-.44.244-.845.547-1.204.9a5.836 5.836 0 00-.92 1.17 5.67 5.67 0 00-.793 2.905c0 .612.106 1.223.316 1.831a6.43 6.43 0 00.88 1.69c.376.516.83.971 1.346 1.347.515.38 1.1.653 1.72.805.2.245.454.501.762.768.307.266.655.528 1.042.784a12.548 12.548 0 002.691 1.337c.504.177 1.021.316 1.547.415a8.64 8.64 0 001.605.153zM31.587 16.246a1.16 1.16 0 01-.285-.037.058.058 0 01-.04-.064s.008-.058.037-.139c.013-.04.032-.087.056-.136.023-.05.052-.101.087-.153a.97.97 0 01.281-.284c.123-.071.285-.097.424-.159.142-.059.283-.12.42-.169.134-.052.263-.096.373-.134.22-.075.372-.118.372-.118a.038.038 0 01.03.004.039.039 0 01.018.024.04.04 0 01-.008.037s-.104.119-.268.286c-.083.082-.178.18-.284.28-.103.102-.22.202-.334.305-.116.1-.21.235-.328.315a.948.948 0 01-.376.13c-.055.008-.11.012-.166.012h-.009zm11.47 3.938c-.193-.108-.48-.262-.84-.467-.998-.56-1.99-1.131-2.977-1.712-.612-.359-1.276-.748-1.973-1.168-.697-.418-1.435-.857-2.19-1.323-.755-.465-1.542-.936-2.33-1.432l-1.194-.746-.273-.17c-.1-.049-.224-.122-.29-.128-.04-.01-.072-.025-.117-.035l-.144-.024a.678.678 0 00-.147-.014l-.148-.007c-.197.011-.4.027-.576.096-.096.023-.17.073-.253.11-.09.053-.197.123-.296.183l-1.193.744c-.789.497-1.576.967-2.332 1.431-.755.466-1.493.904-2.191 1.32-.698.42-1.361.81-1.974 1.168-.987.58-1.98 1.148-2.978 1.708-.36.204-.648.358-.842.466l-.298.163.276-.198c.182-.129.445-.322.785-.559.936-.66 1.88-1.31 2.828-1.95.589-.398 1.226-.83 1.906-1.277.678-.45 1.392-.926 2.138-1.407.745-.48 1.51-.989 2.298-1.486l1.187-.755c.102-.064.192-.125.305-.192.128-.067.257-.142.391-.18.266-.1.54-.129.813-.143l.205.01c.069.004.137.008.205.023l.205.038c.07.015.147.044.22.068.166.051.244.107.354.161l.01.005.038.022.019.012.26.166 1.187.757c.787.499 1.552 1.006 2.297 1.488.745.482 1.458.96 2.137 1.41.679.447 1.316.88 1.904 1.278.948.642 1.89 1.292 2.826 1.952.34.237.604.43.785.56l.276.198-.298-.164zm-31.982-.315c.547-.413 1.1-.817 1.66-1.213.346-.246.722-.512 1.124-.785.402-.275.824-.567 1.266-.86.453-.303.908-.602 1.366-.898.467-.304.945-.606 1.422-.91.48-.299.96-.6 1.435-.889.464-.285.93-.566 1.4-.844.454-.273.9-.527 1.32-.77.055-.03.1-.06.163-.091l.188-.09c.061-.033.126-.046.189-.067.063-.018.125-.04.188-.05a2.52 2.52 0 01.725-.033l.17.018.165.037c.054.015.105.02.16.042l.159.062c.111.038.178.092.26.138l.07.042.055.04.107.078c.28.202.519.386.717.535.396.3.619.479.619.479s-.257-.123-.698-.352c-.22-.115-.488-.252-.79-.418l-.117-.062-.053-.029c.004.003.01.006.002.002l-.003-.002-.008-.003-.016-.007-.031-.013c-.083-.032-.176-.083-.253-.091-.08-.018-.158-.042-.253-.048l-.138-.016-.143.001a2.086 2.086 0 00-.585.09c-.049.014-.093.038-.14.054-.047.02-.097.032-.137.06l-.129.075c-.043.025-.097.065-.146.097-.402.275-.823.567-1.266.86-.453.303-.908.603-1.366.899-.467.304-.945.606-1.422.91-.48.299-.958.6-1.434.89-.464.285-.93.566-1.4.844-.454.272-.9.527-1.32.77-.42.245-.822.469-1.193.675-.598.334-1.201.658-1.81.972-.44.227-.697.35-.697.35s.222-.179.618-.479zM38.5 13.084l-.002-.001c.007.004.005.002.002 0zm11.323 6.914a62.56 62.56 0 01-1.8-.97c-.37-.205-.77-.428-1.189-.672-.418-.243-.862-.496-1.315-.768-.466-.277-.93-.558-1.393-.842-.474-.289-.95-.588-1.428-.887-.475-.303-.951-.604-1.415-.907-.456-.295-.91-.594-1.36-.896-.44-.292-.86-.583-1.26-.857l-.148-.103-.019-.013-.01-.006-.002-.002-.025-.014-.077-.043c-.11-.07-.186-.082-.27-.12-.087-.03-.19-.05-.284-.072-.098-.007-.195-.029-.29-.026a2.031 2.031 0 00-.546.06l-.127.032c-.04.011-.076.03-.115.046l-.112.047-.115.06c-.302.165-.57.302-.79.416-.438.226-.694.349-.694.349s.22-.179.616-.477c.198-.149.436-.331.715-.533l.107-.078.127-.076c.043-.025.086-.055.133-.076l.144-.059c.096-.046.201-.067.308-.093.107-.033.219-.037.333-.053.077-.01.154-.009.233-.008h.121c.121.014.241.023.373.053.131.035.281.078.375.129l.08.037.04.018.06.035.156.09c.42.242.863.495 1.316.767.454.27.921.551 1.393.842.473.29.95.59 1.427.888.476.303.951.604 1.415.907.456.296.91.594 1.36.897.44.292.86.583 1.26.857.4.272.774.539 1.12.784.556.394 1.107.798 1.65 1.21.395.3.617.477.617.477s-.256-.122-.695-.35zm-25.188.343c0-.008.002-.017.007-.025 0 0 .049-.082.146-.208a4.04 4.04 0 01.433-.472c.19-.177.42-.372.69-.54.272-.166.594-.293.893-.456.302-.159.601-.32.888-.464.284-.146.553-.277.783-.39.459-.228.77-.371.77-.371.02-.009.042 0 .05.02a.038.038 0 01-.01.045s-.264.22-.668.535c-.201.16-.436.346-.691.54-.253.196-.53.396-.803.6-.276.2-.53.436-.797.61a4.528 4.528 0 01-1.123.503 3.25 3.25 0 01-.272.07c-.154.034-.25.042-.25.042a.043.043 0 01-.046-.038zm11.658.04s-.565-.304-1.404-.772c-.42-.233-.91-.504-1.431-.8-.524-.293-1.077-.616-1.631-.935-.553-.323-1.128-.61-1.638-.925a15.825 15.825 0 01-1.338-.952 15.747 15.747 0 01-.892-.762 6.687 6.687 0 01-.32-.317.04.04 0 01.002-.056.038.038 0 01.038-.009s.159.048.424.152c.132.051.291.117.471.196.18.082.382.172.597.28a15.775 15.775 0 011.434.798c.504.324 1.011.72 1.54 1.08.527.364 1.056.725 1.547 1.072.492.343.948.67 1.34.949.436.309.87.62 1.3.936a.039.039 0 01.014.042.038.038 0 01-.036.027.035.035 0 01-.017-.005zM12.054 43.238c0 .58.085 1.097.256 1.554.171.457.406.844.705 1.161.3.317.654.56 1.064.727.41.167.853.25 1.331.25.284 0 .558-.056.822-.168.264-.112.512-.259.737-.437.226-.178.43-.382.609-.608.179-.227.326-.456.443-.688l.57.372a5.49 5.49 0 01-.59.797c-.233.26-.498.488-.79.677a4.085 4.085 0 01-1.014.47 4.21 4.21 0 01-1.265.177 4.95 4.95 0 01-1.264-.157 4.601 4.601 0 01-1.093-.437 4.138 4.138 0 01-1.556-1.548 4.321 4.321 0 01-.562-2.142 4.333 4.333 0 01.574-2.153 4.218 4.218 0 011.585-1.572c.336-.191.704-.34 1.104-.446.4-.106.828-.16 1.282-.16.431 0 .829.06 1.192.178s.695.274.996.47c.295.19.564.416.801.676.225.245.426.513.6.798l-.588.401c-.342-.665-.723-1.154-1.142-1.465a2.363 2.363 0 00-1.446-.467c-.47 0-.908.087-1.316.26a3.1 3.1 0 00-1.066.745 3.518 3.518 0 00-.717 1.175 4.37 4.37 0 00-.262 1.56zm9.591-.195V39.61h1.2c.249 0 .478.042.688.124a1.567 1.567 0 01.897.877c.086.208.128.433.128.678 0 .267-.053.51-.16.726a1.612 1.612 0 01-.445.552 2.09 2.09 0 01-.674.352 2.76 2.76 0 01-.847.124h-.787zm-1.363 4.284h1.363v-3.87h.956l2.82 3.87h1.58l-2.955-3.994c.295-.071.565-.172.81-.305.244-.131.454-.287.63-.466a1.99 1.99 0 00.404-.603c.095-.222.143-.462.143-.718a1.88 1.88 0 00-.74-1.54 2.698 2.698 0 00-.918-.445 4.648 4.648 0 00-1.285-.16h-2.808v8.23zm10.465-6.535l1.474 3.256h-2.99l1.516-3.256zm.192-1.885l-3.91 8.42h.682l1.282-2.748h3.479l1.241 2.748H35.1l-3.823-8.42h-.338zm5.21.189h.763l5.32 6.015h.052v-6.015h.6v8.426h-.314l-5.763-6.695h-.047v6.5h-.611v-8.23z" fill="#fff"/><path d="M50.564 39.096v.532h-4.277v2.943h2.861v.531h-2.86v3.693h4.276v.532h-5.64v-8.23h5.64z" fill="#fff"/><path d="M50.447 39.154h0m0 0v-.297a4.239 4.239 0 01-1.524-.276 5.498 5.498 0 01-1.322-.716 5.091 5.091 0 01-1.022-.996 3.786 3.786 0 01-.608-1.109 4.957 4.957 0 001.256-.436c.392-.198.76-.44 1.096-.724a6.188 6.188 0 002.04-3.293c.103-.424.155-.852.155-1.284a5.603 5.603 0 00-.793-2.905 5.75 5.75 0 00-2.131-2.068 6.242 6.242 0 00-3.066-.788 6.27 6.27 0 00-3.074.787c-.44.244-.845.547-1.204.9a5.836 5.836 0 00-.92 1.17 5.67 5.67 0 00-.793 2.905c0 .612.106 1.223.316 1.831a6.43 6.43 0 00.88 1.69c.376.516.83.971 1.346 1.347.515.38 1.1.653 1.72.805.2.245.454.501.762.768.307.266.655.528 1.041.784a12.675 12.675 0 002.692 1.337c.504.177 1.021.316 1.547.415a8.64 8.64 0 001.605.153zm-39.99-14.637h1.847v7.235c0 .474.08.921.24 1.34a3.24 3.24 0 001.772 1.844c.421.182.892.273 1.413.273.526 0 1-.091 1.42-.273a3.167 3.167 0 001.752-1.844c.158-.419.237-.866.237-1.34v-7.234h.813v7.234c0 .57-.09 1.108-.272 1.612a3.503 3.503 0 01-.856 1.329c-.39.381-.888.682-1.496.904-.608.222-1.338.332-2.19.332-.758 0-1.428-.11-2.012-.332a4.205 4.205 0 01-1.468-.909 3.798 3.798 0 01-.896-1.343 4.396 4.396 0 01-.304-1.633v-7.195zm12.06 0h1.033l7.206 8.147h.07v-8.147h.814V35.93h-.426l-7.806-9.067h-.063v8.803h-.828V24.517zm11.885 0h1.846v11.148h-1.846V24.517zm8.433 10.452a3.51 3.51 0 01-1.22-1.113c-.326-.474-.572-1.039-.738-1.692a8.705 8.705 0 01-.248-2.14c0-.764.083-1.464.248-2.101.166-.638.412-1.187.738-1.649a3.44 3.44 0 011.22-1.076c.486-.256 1.05-.384 1.693-.384.626 0 1.181.128 1.665.384s.89.615 1.22 1.076c.328.462.578 1.011.749 1.649.17.637.256 1.337.256 2.1a7.97 7.97 0 01-.256 2.1 4.955 4.955 0 01-.754 1.625 3.88 3.88 0 01-1.223 1.1 4.24 4.24 0 01-1.657.52c-.643 0-1.207-.133-1.693-.4zM31.587 16.246a1.16 1.16 0 01-.285-.037.058.058 0 01-.04-.064s.008-.058.037-.139c.013-.04.032-.087.056-.136.023-.05.052-.101.087-.153a.97.97 0 01.281-.284c.123-.071.285-.097.424-.159.142-.059.283-.12.42-.169.134-.052.263-.096.373-.134.22-.075.372-.118.372-.118a.038.038 0 01.03.004.039.039 0 01.018.024.04.04 0 01-.008.037s-.104.119-.268.286c-.083.082-.178.18-.284.28-.103.102-.22.202-.334.305-.116.1-.21.235-.328.315a.948.948 0 01-.376.13c-.055.008-.11.012-.166.012h-.009zm11.47 3.938c-.193-.108-.48-.262-.84-.467-.998-.56-1.99-1.131-2.977-1.712-.612-.359-1.276-.748-1.973-1.168-.697-.418-1.435-.857-2.19-1.323-.755-.465-1.542-.936-2.33-1.432l-1.194-.746-.273-.17c-.1-.049-.224-.122-.29-.128-.04-.01-.072-.025-.117-.035l-.144-.024a.678.678 0 00-.147-.014l-.148-.007c-.197.011-.4.027-.576.096-.096.023-.17.073-.253.11-.09.053-.197.123-.296.183l-1.193.744c-.789.497-1.576.967-2.332 1.431-.755.466-1.493.904-2.191 1.32-.698.42-1.361.81-1.974 1.168-.987.58-1.98 1.148-2.978 1.708-.36.204-.648.358-.842.466l-.298.163.276-.198c.182-.129.445-.322.785-.559.936-.66 1.88-1.31 2.828-1.95.589-.398 1.226-.83 1.906-1.277.678-.45 1.392-.926 2.138-1.407.745-.48 1.51-.989 2.298-1.486l1.187-.755c.102-.064.192-.125.305-.192.128-.067.257-.142.391-.18.266-.1.54-.129.813-.143l.205.01c.069.004.137.008.205.023l.205.038c.07.015.147.044.22.068.166.051.244.107.354.161l.01.005.038.022.019.012.26.166 1.187.757c.787.499 1.552 1.006 2.297 1.488.745.482 1.458.96 2.137 1.41.679.447 1.316.88 1.904 1.278.948.642 1.89 1.292 2.826 1.952.34.237.604.43.785.56l.276.198-.298-.164zm-31.982-.315c.547-.413 1.1-.817 1.66-1.213.346-.246.722-.512 1.124-.785.402-.275.824-.567 1.266-.86.453-.303.908-.602 1.366-.898.467-.304.945-.606 1.422-.91.48-.299.96-.6 1.435-.889.464-.285.93-.566 1.4-.844.454-.273.9-.527 1.32-.77.055-.03.1-.06.163-.091l.188-.09c.061-.033.126-.046.189-.067.063-.018.125-.04.188-.05a2.52 2.52 0 01.725-.033l.17.018.165.037c.054.015.105.02.16.042l.159.062c.111.038.178.092.26.138l.07.042.055.04.107.078c.28.202.519.386.717.535.396.3.619.479.619.479s-.257-.123-.698-.352c-.22-.115-.488-.252-.79-.418l-.117-.062-.053-.029c.004.003.01.006.002.002l-.003-.002-.008-.003-.016-.007-.031-.013c-.083-.032-.176-.083-.253-.091-.08-.018-.158-.042-.253-.048l-.138-.016-.143.001a2.086 2.086 0 00-.585.09c-.049.014-.093.038-.14.054-.047.02-.097.032-.137.06l-.129.075c-.043.025-.097.065-.146.097-.402.275-.823.567-1.266.86-.453.303-.908.603-1.366.899-.467.304-.945.606-1.422.91-.48.299-.958.6-1.434.89-.464.285-.93.566-1.4.844-.454.272-.9.527-1.32.77-.42.245-.822.469-1.193.675-.598.334-1.201.658-1.81.972-.44.227-.697.35-.697.35s.222-.179.618-.479zM38.5 13.084l-.002-.001c.007.004.005.002.002 0zm11.323 6.914a62.56 62.56 0 01-1.8-.97c-.37-.205-.77-.428-1.189-.672-.418-.243-.862-.496-1.315-.768-.466-.277-.93-.558-1.393-.842-.474-.289-.95-.588-1.428-.887-.475-.303-.951-.604-1.415-.907-.456-.295-.91-.594-1.36-.896-.44-.292-.86-.583-1.26-.857l-.148-.103-.019-.013-.01-.006-.002-.002-.025-.014-.077-.043c-.11-.07-.186-.082-.27-.12-.087-.03-.19-.05-.284-.072-.098-.007-.195-.029-.29-.026a2.031 2.031 0 00-.546.06l-.127.032c-.04.011-.076.03-.115.046l-.112.047-.115.06c-.302.165-.57.302-.79.416-.438.226-.694.349-.694.349s.22-.179.616-.477c.198-.149.436-.331.715-.533l.107-.078.127-.076c.043-.025.086-.055.133-.076l.144-.059c.096-.046.201-.067.308-.093.107-.033.219-.037.333-.053.077-.01.154-.009.233-.008h.121c.121.014.241.023.373.053.131.035.281.078.375.129l.08.037.04.018.06.035.156.09c.42.242.863.495 1.316.767.454.27.921.551 1.393.842.473.29.95.59 1.427.888.476.303.951.604 1.415.907.456.296.91.594 1.36.897.44.292.86.583 1.26.857.4.272.774.539 1.12.784.556.394 1.107.798 1.65 1.21.395.3.617.477.617.477s-.256-.122-.695-.35zm-25.188.343c0-.008.002-.017.007-.025 0 0 .049-.082.146-.208a4.04 4.04 0 01.433-.472c.19-.177.42-.372.69-.54.272-.166.594-.293.893-.456.302-.159.601-.32.888-.464.284-.146.553-.277.783-.39.459-.228.77-.371.77-.371.02-.009.042 0 .05.02a.038.038 0 01-.01.045s-.264.22-.668.535c-.201.16-.436.346-.691.54-.253.196-.53.396-.803.6-.276.2-.53.436-.797.61a4.528 4.528 0 01-1.123.503 3.25 3.25 0 01-.272.07c-.154.034-.25.042-.25.042a.043.043 0 01-.046-.038zm11.658.04s-.565-.304-1.404-.772c-.42-.233-.91-.504-1.431-.8-.524-.293-1.077-.616-1.631-.935-.553-.323-1.128-.61-1.638-.925a15.825 15.825 0 01-1.338-.952 15.747 15.747 0 01-.892-.762 6.687 6.687 0 01-.32-.317.04.04 0 01.002-.056.038.038 0 01.038-.009s.159.048.424.152c.132.051.291.117.471.196.18.082.382.172.597.28a15.775 15.775 0 011.434.798c.504.324 1.011.72 1.54 1.08.527.364 1.056.725 1.547 1.072.492.343.948.67 1.34.949.436.309.87.62 1.3.936a.039.039 0 01.014.042.038.038 0 01-.036.027.036.036 0 01-.017-.005zM12.054 43.237c0 .58.085 1.097.256 1.554.171.457.406.844.705 1.161.3.317.654.56 1.064.727.41.167.853.25 1.331.25.284 0 .558-.056.822-.168.264-.112.512-.259.737-.437.226-.178.43-.382.609-.608.179-.227.326-.456.443-.688l.57.372a5.49 5.49 0 01-.59.797c-.233.26-.498.488-.79.677a4.085 4.085 0 01-1.014.47 4.21 4.21 0 01-1.265.177 4.95 4.95 0 01-1.264-.157 4.601 4.601 0 01-1.093-.437 4.138 4.138 0 01-1.556-1.548 4.32 4.32 0 01-.562-2.142 4.333 4.333 0 01.574-2.154 4.218 4.218 0 011.585-1.57c.336-.192.704-.34 1.104-.447.4-.106.828-.16 1.282-.16.431 0 .829.06 1.192.178s.695.274.996.47c.295.19.564.416.801.676.225.245.426.513.6.798l-.588.401c-.342-.665-.723-1.154-1.142-1.465a2.363 2.363 0 00-1.446-.467c-.47 0-.908.087-1.316.26a3.1 3.1 0 00-1.066.745 3.518 3.518 0 00-.717 1.175 4.37 4.37 0 00-.262 1.56zm9.591-.195V39.61h1.2c.249 0 .478.042.688.124a1.567 1.567 0 01.897.877c.086.208.128.433.128.678 0 .267-.053.51-.16.726a1.612 1.612 0 01-.445.552 2.09 2.09 0 01-.674.352 2.76 2.76 0 01-.847.124h-.787zm-1.363 4.284h1.363v-3.87h.956l2.82 3.87h1.58l-2.955-3.994c.295-.071.565-.172.81-.305.244-.131.454-.287.63-.466a1.99 1.99 0 00.404-.603c.095-.222.143-.462.143-.718a1.88 1.88 0 00-.74-1.54 2.698 2.698 0 00-.918-.445 4.648 4.648 0 00-1.285-.16h-2.808v8.23zm10.465-6.535l1.474 3.256h-2.99l1.516-3.256zm.192-1.885l-3.91 8.42h.682l1.282-2.748h3.479l1.241 2.748H35.1l-3.823-8.42h-.338zm5.21.19h.763l5.32 6.014h.052v-6.015h.6v8.426h-.314l-5.763-6.695h-.047v6.5h-.611v-8.23zm14.415 0v.531h-4.277v2.943h2.861v.531h-2.86v3.693h4.276v.532h-5.64v-8.23h5.64z" stroke="#fff" stroke-width=".862"/></svg>